<svg width="39.000000" height="39.000000" viewBox="0 0 39 39" fill="none" xmlns="http://www.w3.org/2000/svg" xmlns:xlink="http://www.w3.org/1999/xlink">
	<desc>
			Created with Pixso.
	</desc>
	<defs>
		<linearGradient x1="2.676472" y1="1.030495" x2="36.323540" y2="34.402447" id="paint_linear_33_2789_0" gradientUnits="userSpaceOnUse">
			<stop stop-color="#ACC4FB" stop-opacity="0.200000"/>
			<stop offset="0.316666" stop-color="#65769E" stop-opacity="0.200000"/>
			<stop offset="1.000000" stop-color="#384259" stop-opacity="0.200000"/>
		</linearGradient>
	</defs>
	<path id="Coin" d="M38.42 24.2C35.81 34.64 25.24 41.02 14.78 38.41C4.34 35.8 -2.02 25.23 0.58 14.79C3.18 4.35 13.75 -2.03 24.18 0.58C34.65 3.15 41.01 13.75 38.42 24.2Z" fill="#F7931A" fill-opacity="0" fill-rule="nonzero"/>
	<path id="Coin" d="M38.42 24.2C35.81 34.64 25.24 41.02 14.78 38.41C4.34 35.8 -2.02 25.23 0.58 14.79C3.18 4.35 13.75 -2.03 24.18 0.58C34.65 3.15 41.01 13.75 38.42 24.2Z" fill="url(#paint_linear_33_2789_0)" fill-opacity="1.000000" fill-rule="nonzero"/>
	<path id="Symbol" d="M26.96 17.35C27.25 15.13 25.65 13.98 23.46 13.2L24.14 10.2L22.4 9.76L21.74 12.69C21.28 12.58 20.82 12.46 20.36 12.37L21.02 9.43L19.27 9L18.59 11.99C18.22 11.9 17.84 11.83 17.47 11.74L15.08 11.13L14.64 13.07C14.64 13.07 15.94 13.37 15.89 13.4C16.59 13.58 16.72 14.06 16.7 14.43L15.93 17.85C15.98 17.87 16.04 17.87 16.11 17.92C16.04 17.9 16 17.9 15.93 17.87L14.88 22.65C14.79 22.88 14.57 23.21 14.09 23.09C14.11 23.11 12.82 22.77 12.82 22.77L12 24.87L14.25 25.42C14.67 25.53 15.09 25.63 15.48 25.75L14.8 28.77L16.53 29.21L17.21 26.21C17.7 26.35 18.16 26.47 18.6 26.58L17.92 29.56L19.65 30L20.33 26.97C23.29 27.53 25.5 27.27 26.4 24.43C27.12 22.17 26.33 20.88 24.75 20.02C25.91 19.75 26.75 18.96 26.96 17.35ZM23.06 23.23C22.56 25.49 18.92 24.31 17.76 24.01L18.65 20C19.84 20.3 23.59 20.85 23.06 23.23ZM23.54 17.35C23.08 19.4 20.06 18.41 19.07 18.16L19.91 14.52C20.87 14.76 24.03 15.2 23.54 17.35Z" fill="#F7931A" fill-opacity="1.000000" fill-rule="nonzero"/>
</svg>
