<svg width="39.000000" height="39.000000" viewBox="0 0 39 39" fill="none" xmlns="http://www.w3.org/2000/svg" xmlns:xlink="http://www.w3.org/1999/xlink">
	<desc>
			Created with Pixso.
	</desc>
	<defs>
		<linearGradient x1="2.676472" y1="1.030495" x2="36.323540" y2="34.402447" id="paint_linear_33_2825_0" gradientUnits="userSpaceOnUse">
			<stop stop-color="#ACC4FB" stop-opacity="0.200000"/>
			<stop offset="0.316666" stop-color="#65769E" stop-opacity="0.200000"/>
			<stop offset="1.000000" stop-color="#384259" stop-opacity="0.200000"/>
		</linearGradient>
	</defs>
	<path id="Coin" d="M38.42 24.2C35.81 34.64 25.24 41.02 14.78 38.41C4.34 35.8 -2.02 25.23 0.58 14.79C3.18 4.35 13.75 -2.03 24.18 0.58C34.65 3.15 41.01 13.75 38.42 24.2Z" fill="#F0B90B" fill-opacity="0" fill-rule="nonzero"/>
	<path id="Coin" d="M38.42 24.2C35.81 34.64 25.24 41.02 14.78 38.41C4.34 35.8 -2.02 25.23 0.58 14.79C3.18 4.35 13.75 -2.03 24.18 0.58C34.65 3.15 41.01 13.75 38.42 24.2Z" fill="url(#paint_linear_33_2825_0)" fill-opacity="1.000000" fill-rule="nonzero"/>
	<path id="BNB" d="M19.49 9L13.68 12.37L15.82 13.61L19.49 11.48L23.17 13.61L25.31 12.37L19.49 9ZM12.13 18.22L12.13 15.74L14.28 14.49L12.13 13.25L10 14.49L10 16.97L12.13 18.22ZM19.49 13.25L17.35 14.49L19.49 15.74L21.64 14.49L19.49 13.25ZM26.84 13.25L24.71 14.49L26.84 15.74L26.84 18.22L28.99 16.97L28.99 14.49L26.84 13.25ZM25.32 19.11L25.31 16.62L25.32 16.62L23.17 15.38L19.49 17.51L15.83 15.38L13.68 16.62L13.68 19.11L17.36 21.24L17.36 25.51L19.5 26.74L21.64 25.51L21.64 21.24L25.32 19.11ZM29 18.75L26.86 20L26.84 24.25L23.17 26.38L23.17 28.87L29 25.51L29 18.75ZM12.15 24.25L12.13 20L10 18.75L10 25.51L15.82 28.87L15.82 26.38L12.15 24.25ZM25.31 23.37L25.31 20.88L23.17 22.12L23.17 24.6L25.31 23.37ZM15.82 22.12L13.68 20.88L13.68 23.37L15.82 24.6L15.82 22.12ZM19.49 28.52L17.35 27.27L17.35 29.75L19.49 31L21.64 29.75L21.64 27.27L19.49 28.52Z" fill="#F0B90B" fill-opacity="1.000000" fill-rule="evenodd"/>
</svg>
