<svg width="63" height="72" viewBox="0 0 63 72" fill="none" xmlns="http://www.w3.org/2000/svg">
<path d="M20.9645 2.25219C21.0743 0.112961 21.5886 0.0996739 21.5886 0.0996739C21.5886 0.0996739 21.7845 0.00923622 21.511 0.250119C21.2481 0.481673 21.2261 1.4099 21.1958 2.68263L21.1921 2.83811C21.1795 3.36202 21.2587 3.90743 21.3464 4.51176C21.4852 5.46727 21.6453 6.5701 21.4977 7.96822C21.3551 9.36504 20.7497 10.3667 20.2166 11.2487C20.1616 11.3396 20.1074 11.4293 20.0546 11.518C19.6513 12.1944 19.3456 12.7859 19.3456 12.7859L17.5965 13.9431C17.5965 13.9431 15.9707 14.1643 14.495 15.1784C13.591 15.8025 12.6939 16.9469 11.9524 18.2799C11.523 19.0317 11.1647 19.9037 10.8725 20.6148C10.8462 20.6788 10.8204 20.7415 10.7952 20.8027C10.3921 21.799 10.2383 22.5835 10.1079 23.2482C9.98393 23.8807 9.88119 24.4046 9.60533 24.899C9.12112 25.748 9.01929 26.2917 8.99896 26.4466C9.19672 26.1139 10.4164 24.0709 10.2982 24.4893C10.1881 24.99 9.88205 25.7117 9.38142 26.5308C9.07497 27.0364 9.01714 27.5322 8.95575 28.0586C8.91686 28.392 8.87654 28.7377 8.77064 29.106C8.57608 29.7991 8.32456 30.5758 8.0986 31.2737C7.8412 32.0686 7.61696 32.7611 7.5478 33.111C7.41802 33.7676 7.51509 34.6185 7.65808 35.872L7.65838 35.8747C7.69877 36.265 7.69206 36.699 7.68522 37.1405C7.67886 37.5518 7.6724 37.9697 7.70382 38.3649C7.75568 38.911 7.93141 39.4571 8.07457 39.6654C8.31966 40.0361 8.39718 40.4984 8.46296 40.8907C8.48829 41.0418 8.51188 41.1825 8.54262 41.3035C8.61402 41.5813 8.73137 41.8083 8.84454 42.0272C8.91684 42.167 8.98744 42.3036 9.04325 42.4479C9.13541 42.6583 9.19625 43.0129 9.26374 43.4063C9.31521 43.7063 9.37054 44.0288 9.44657 44.327C9.57714 44.7888 9.75586 45.2356 9.97977 45.66L9.93434 45.7577C9.93434 45.7577 8.6022 43.2349 8.08786 41.4206C7.78868 40.328 7.41793 38.8004 7.22291 36.3097C7.03003 33.8392 7.30349 31.9215 7.60866 30.1068C7.82772 28.8041 8.43569 27.509 8.76137 26.8818L8.73395 26.9277C8.73395 26.9277 9.89122 20.4843 11.0485 18.2019C11.8028 16.6739 12.8495 15.406 13.6365 14.6975C13.9565 14.3983 14.2513 14.2559 14.4625 14.154C14.5129 14.1297 14.5586 14.1076 14.5987 14.0863C15.0518 13.8371 16.0087 13.6948 16.5604 13.6127C16.7289 13.5877 16.8595 13.5682 16.9265 13.5531C17.0898 13.5205 18.1682 13.0846 18.89 12.4606C19.4238 11.9915 19.7039 11.3927 19.8573 11.0647C19.8889 10.9971 19.9152 10.941 19.9371 10.9C20.1728 10.4805 20.2522 9.84605 20.3219 9.28868C20.3387 9.1546 20.3549 9.02498 20.3726 8.90389C20.402 8.70311 20.4407 8.50038 20.4823 8.28248C20.57 7.82265 20.6707 7.29525 20.7236 6.57607C20.7901 5.67277 20.8386 4.72245 20.9193 3.13731L20.9203 3.1182C20.934 2.84877 20.9487 2.56106 20.9645 2.25219Z" fill="#806638"/>
<path d="M41.9329 9.05324C42.7845 9.05324 43.2852 8.84536 43.2852 8.84536L43.6495 8.86465L43.0576 10.0691L41.4648 10.1977L33.5384 10.0871C33.5384 10.0871 30.4369 9.76861 31.1459 9.78146C31.6385 9.78804 33.1743 9.58248 34.8756 9.35476C36.9473 9.07749 39.2643 8.76736 40.2424 8.76736C40.8853 8.76736 41.1069 8.85557 41.3039 8.934C41.4615 8.99675 41.6035 9.05324 41.9329 9.05324Z" fill="#806638"/>
<path d="M62.1398 46.1318L62.1408 46.1344L62.1395 46.1352L62.1398 46.1318Z" fill="#806638"/>
<path d="M62.1398 46.1318C62.1226 46.0844 61.8778 45.4031 61.8026 44.7821C61.7716 44.5264 61.7855 44.3521 61.7986 44.1887C61.8184 43.9407 61.8362 43.7179 61.692 43.2738C61.5845 42.9367 61.4111 42.8884 61.3039 42.8585C61.2684 42.8486 61.2402 42.8407 61.2239 42.825C61.1588 42.762 61.1134 42.0839 61.1262 41.7132C61.1391 41.3424 61.1134 40.8615 61.0482 40.6532C60.9509 40.5752 60.8858 40.5101 60.7426 40.0292C60.7335 40.0021 60.7246 39.9758 60.716 39.9503L60.7004 39.9038C60.566 39.5049 60.4951 39.2944 60.4241 39.1646C60.3927 39.1071 60.337 39.0517 60.2816 38.9966C60.1994 38.9149 60.1181 38.8339 60.1181 38.7484C60.1181 38.5607 60.23 38.4319 60.307 38.3432C60.3475 38.2967 60.3783 38.2612 60.3783 38.2341C60.3701 38.1312 60.2889 38.1458 60.2172 38.1586C60.1757 38.166 60.1373 38.1729 60.1181 38.1561C60.0871 38.1187 60.1231 37.992 60.1599 37.8628C60.1998 37.7223 60.2406 37.5788 60.1966 37.5449C60.1833 37.5318 60.138 37.5691 60.0849 37.6127C60.0071 37.6765 59.9125 37.7541 59.8777 37.7078C59.842 37.6649 59.8025 37.4139 59.7549 37.1114C59.7155 36.8608 59.6705 36.5748 59.6175 36.3422C59.566 36.1083 59.513 35.9043 59.4698 35.738C59.4204 35.5483 59.3839 35.4078 59.377 35.3281C59.3642 35.1852 58.4833 32.673 58.2666 32.0549L58.2652 32.0509C58.0925 31.5344 57.9471 31.0092 57.8297 30.4774C57.8006 30.3407 57.7754 30.14 57.7535 29.9659C57.7265 29.751 57.7046 29.5765 57.6866 29.6125C57.6728 29.6401 57.6684 29.713 57.6639 29.7871C57.6578 29.8879 57.6516 29.9906 57.6214 29.9832C57.5948 29.9754 57.5278 29.5895 57.4665 29.2364C57.4234 28.9878 57.3831 28.7554 57.3617 28.6828C57.3471 28.6266 57.3092 28.5273 57.2622 28.4042C57.1624 28.1426 57.0214 27.7733 56.9759 27.4801C56.9161 27.0797 56.7908 26.0868 56.695 25.3281L56.6703 25.1326C56.6544 25.0063 56.6398 24.8922 56.6266 24.7887C56.559 24.2583 56.5272 24.0088 56.5272 23.8467C56.5432 23.3729 56.517 22.8985 56.4492 22.4293C56.3206 21.6098 56.0634 20.615 55.8379 20.0368C55.7329 19.7732 55.5858 19.4106 55.4202 19.0022C54.8993 17.7176 54.1948 15.9805 54.0378 15.4527C54.0378 15.277 54.2654 15.3747 54.2654 15.3747C54.2654 15.3747 54.8307 16.7921 55.2469 17.8842C55.6502 18.9768 56.0338 19.939 56.1315 20.0368C56.2096 20.134 56.8208 21.2069 57.0938 22.9625C57.2499 23.9663 57.3486 24.9253 57.4349 25.7644C57.4995 26.3929 57.5572 26.9541 57.627 27.4162C57.6389 27.4945 57.6504 27.5734 57.6621 27.653C57.7271 28.0965 57.7949 28.5593 57.9326 29.0223C58.05 29.4186 58.2111 29.8235 58.4123 30.3288C58.5115 30.5783 58.6206 30.8521 58.7388 31.1615C59.0444 31.9484 59.272 32.6051 59.3955 33.1709C59.4736 33.5647 59.5091 33.9062 59.5389 34.1934C59.5638 34.4325 59.5847 34.634 59.6231 34.7966C59.643 34.8741 59.6653 34.9713 59.6921 35.0877C59.7708 35.4297 59.8876 35.9376 60.0915 36.5968C60.365 37.4806 60.7675 38.619 61.0405 39.3275C61.5741 40.7449 61.812 41.9284 61.8926 42.5593C61.9636 43.2084 62.2038 45.4516 62.1398 46.1318Z" fill="#806638"/>
<path fill-rule="evenodd" clip-rule="evenodd" d="M14.1154 27.1831C14.175 27.0568 14.2443 26.9652 14.3018 26.903C14.4325 26.9332 14.5601 26.9763 14.6827 27.0318C14.6132 27.0322 14.5438 27.0366 14.4748 27.045C14.5914 27.0635 14.7345 27.1736 14.7345 27.1736C14.7345 27.1736 14.78 27.0763 14.9295 27.0956C14.9767 27.1006 15.02 27.1238 15.0503 27.1602C15.0807 27.1966 15.0956 27.2434 15.092 27.2906C15.092 27.3191 15.0401 27.3645 14.9876 27.4106C14.9434 27.4493 14.8988 27.4885 14.8841 27.5182C14.852 27.5834 14.9488 27.6421 15.0466 27.694C15.0767 27.71 15.1236 27.7148 15.174 27.7139C15.174 27.7139 14.6084 27.7142 14.4978 27.7922C14.4171 27.8491 14.7555 27.9513 15.0251 28.0326C15.1249 28.0627 15.2153 28.09 15.2715 28.1111C15.4793 28.1891 15.9281 28.5466 16.0451 28.8329C16.1557 29.1059 20.1088 30.6987 20.1088 30.6987L20.6818 30.6693L19.9628 33.6908L19.3515 36.6817L20.574 39.6391L23.0557 40.6236H25.7722L26.4293 37.4249L27.9043 35.5342L27.4199 37.5651L28.7132 40.2186L27.1333 42.474L18.7277 42.2306L13.9872 40.67C13.9872 40.67 13.6495 40.652 13.5517 40.7806C13.8889 41.1719 14.0367 41.5193 14.2331 41.9811C14.3663 42.2942 14.5219 42.66 14.7742 43.1277C14.9525 43.4548 15.1677 43.8095 15.3674 44.1388C15.4894 44.3399 15.6056 44.5315 15.7042 44.7016C15.8753 44.9925 16.0316 45.2919 16.1723 45.5987C16.1723 45.5987 17.5182 46.452 17.7783 46.5806C17.5661 46.6782 17.4447 46.7654 17.2627 46.8962C17.2385 46.9137 17.2132 46.9319 17.1864 46.9509C17.4558 47.0941 17.659 47.0551 17.8748 47.0137C18.0706 46.9761 18.2767 46.9366 18.552 47.0294C18.677 47.0717 18.7819 47.2831 18.921 47.5633C19.209 48.1432 19.6432 49.0179 20.7041 49.2985C21.335 49.4609 23.1686 48.6097 23.4871 48.4468C23.6448 48.3661 23.8586 48.1643 24.0341 47.9811L24.9168 49.6521L30.0405 51.2581L34.8976 53.2872L35.309 53.5723L34.9088 53.6704L29.7461 55.4848L25.5002 59.3925L21.7879 62.767C21.7879 62.767 21.4646 63.742 20.2129 64.1994L20.6059 63.6893L20.398 57.7268L18.3432 55.4907L15.0665 53.2868L12.8492 51.1343L11.1262 47.9222L10.6774 47.3762L10.0208 45.5104C9.9962 45.4964 9.97 45.4855 9.94278 45.4778C9.95564 49.1712 8.62264 50.088 8.62264 50.088C8.62264 50.088 8.77866 50.3156 8.97368 50.5886C8.97887 50.5959 8.98409 50.6032 8.98932 50.6105L9.00565 50.6333C9.19275 50.8938 9.39702 51.1783 9.40958 51.6028C9.41972 51.9001 9.23772 52.2674 9.04862 52.649C8.8779 52.9936 8.70138 53.3498 8.65522 53.6768C8.5992 54.1243 8.62969 54.5523 8.66822 55.0933C8.6745 55.1814 8.681 55.2726 8.68737 55.3673C8.70957 55.6542 8.6501 55.94 8.54413 56.4492C8.49467 56.6869 8.43503 56.9734 8.3689 57.3312C8.2927 57.7548 8.24777 58.3134 8.19283 58.9965C8.14487 59.5928 8.08928 60.2841 7.99858 61.0632C7.99301 61.1133 7.98745 61.1621 7.98188 61.2109C10.4595 63.6216 13.2514 65.6834 16.2801 67.3411L16.2806 67.3433C20.0342 69.397 24.109 70.7986 28.3316 71.4885L47.1822 68.5987L60.7814 61.4961C60.7997 61.4788 60.8179 61.461 60.836 61.4433C60.8496 61.43 60.8633 61.4166 60.8769 61.4036L61.1341 53.007L60.6528 49.7949L57.6619 49.5999C57.6619 49.5999 55.1527 50.3668 52.7274 51.1631L52.9151 51.0112C54.0526 49.8214 56.2377 48.0204 56.7058 47.6822C56.6685 47.9461 56.4964 48.4308 56.2901 49.0118C56.2066 49.2469 56.1175 49.4978 56.0294 49.7563C56.1593 49.5287 56.6732 49.0473 56.9788 48.7743C57.2842 48.4977 58.3195 47.8945 58.8265 47.5991L58.9076 47.5519C58.8581 47.7675 58.832 47.9878 58.8296 48.2089C58.8296 48.2089 59.2303 47.2274 59.6011 46.5185C59.9718 45.8096 60.1797 44.6849 60.1797 44.6849L60.178 44.6836C60.178 44.6836 59.9375 45.0089 59.6709 45.1906C59.5085 44.4363 59.5085 43.9035 59.7489 43.0188C59.4034 43.9087 58.9003 43.9541 58.4067 43.9987L58.3834 44.0008C58.1442 42.8564 58.1896 40.6074 58.2548 40.0931C58.1925 40.2742 58.029 40.501 57.8771 40.7117C57.822 40.7882 57.7683 40.8626 57.7216 40.9319C57.689 40.7759 57.4679 40.6126 57.3054 40.5157C57.2015 40.4538 57.172 40.3194 57.1386 40.1677C57.1198 40.0822 57.0997 39.9912 57.0645 39.9045C56.4992 40.2427 56.1156 40.3078 56.1156 40.3078C56.1156 40.3078 56.8892 39.9109 57.4807 38.2856C58.0169 36.8301 57.8438 35.986 57.6821 35.1974C57.6437 35.0102 57.6059 34.8261 57.5784 34.6377C56.8699 36.92 55.3741 38.7339 55.3741 38.7339C55.3741 38.7339 55.3873 38.6041 55.3419 38.2333C55.2157 38.4858 55.1339 38.71 55.0403 38.9664C54.8591 39.463 54.634 40.0802 53.9566 41.2568C53.1228 42.7053 52.307 42.8917 51.8232 42.8514L52.0774 41.946C53.4432 39.5514 54.6081 35.8875 54.5678 33.0925C54.5234 30.392 53.4108 28.9693 52.839 28.3019L52.0435 23.969L41.809 23.1953L37.0694 27.7142L30.6191 28.7283L29.8738 30.219C29.8751 30.2026 29.8762 30.1895 29.8769 30.18L29.8783 30.163L29.6704 27.8939L28.5003 27.1849L27.5487 26.2664L26.6512 27.9569L26.4877 28.12C26.5539 27.8399 26.592 27.5533 26.6009 27.2646L26.2628 24.7743L24.787 22.9081L23.0519 23.8702L21.6176 24.1001L17.5213 26.5432L17.1305 26.6929L18.9037 25.1724L18.6618 24.6852L18.8868 24.5338L16.8907 22.0761L15.9413 17.4008L15.7463 14.9105L14.0884 14.7999L12.4952 16.5817L10.8571 19.5529L9.92696 22.4597L9.51077 24.1956L8.86784 26.3023L8.96557 26.4647C8.83764 26.9974 8.83039 27.1185 8.8109 27.4445C8.80564 27.5324 8.79949 27.6353 8.78984 27.7651C8.89856 26.8646 9.61362 25.8779 10.1911 25.081C10.3057 24.9229 10.4149 24.7721 10.5129 24.6311C10.8056 24.2085 10.9681 23.8575 10.9814 23.7923C11.0007 23.7196 10.9902 23.6314 10.9786 23.5337C10.9591 23.3693 10.9363 23.1777 11.0465 22.9861C11.1046 22.8842 11.233 22.841 11.3933 22.787C11.5912 22.7204 11.8378 22.6374 12.0606 22.4074C12.2748 22.188 12.4648 21.8802 12.6488 21.5821C12.9226 21.1382 13.1832 20.7159 13.4909 20.639C14.2256 20.4504 14.8239 20.7234 14.9671 21.38C15.064 21.8472 14.6332 22.1831 14.2649 22.4702C14.0891 22.6073 13.9276 22.7333 13.8445 22.8571C13.6346 23.1699 13.6403 23.411 13.6565 24.0938C13.6601 24.2474 13.6643 24.4235 13.6666 24.6277C13.6795 25.7395 13.9868 26.9752 14.1154 27.1831ZM23.8687 29.2238L23.3007 28.7263C23.6812 28.6475 24.0085 28.5955 24.2272 28.6426C24.2502 28.6483 24.2727 28.6539 24.2948 28.6594C24.7678 28.7765 25.0501 28.8465 25.3978 29.4492C25.7029 29.9428 25.9769 30.1071 26.0781 30.1543L26.0859 30.172C26.1532 30.1927 26.2232 30.2037 26.2937 30.2045C26.2157 30.2697 26.0529 30.4124 26.118 30.7832C26.1349 30.8793 26.1614 30.9819 26.1883 31.0862C26.2637 31.3787 26.3426 31.6844 26.2228 31.8958C26.0273 31.675 25.7594 31.5684 25.4951 31.4631C25.2382 31.3609 24.9847 31.26 24.804 31.0569C24.5209 30.7437 24.3939 30.4138 24.2831 30.1259C24.1553 29.7941 24.0491 29.5181 23.7499 29.3878L23.8687 29.2238Z" fill="#D8C47C"/>
<path fill-rule="evenodd" clip-rule="evenodd" d="M9.35489 25.8486L8.19763 29.353L7.37854 33.4167L7.42397 36.7329L7.62717 37.6203C7.60595 37.7202 7.59253 37.7842 7.59253 37.7842L7.70311 39.2149L8.23631 41.1784L8.75065 42.4642L9.25128 44.0377L9.68632 45.0947L10.0374 45.9009L10.343 47.7152L11.8187 49.2754L12.6056 49.6269L13.0585 49.395L17.6001 53.5324L26.716 55.8469L32.1191 54.255L38.8878 51.394L40.5844 49.5744C40.554 49.5882 39.5244 50.0472 37.7617 50.0285C37.8643 49.9468 37.9986 49.7777 38.1493 49.5881C38.3942 49.2799 38.6823 48.9173 38.9476 48.7868C39.0662 48.7266 39.177 48.6791 39.2835 48.6336C39.5794 48.5069 39.8408 48.3951 40.1374 48.065C40.2059 47.9854 40.2659 47.9111 40.3227 47.8408C40.6004 47.497 40.8018 47.2477 41.5352 46.9403C42.7709 46.4067 41.9209 45.7175 41.9209 45.7175C42.057 45.5838 42.2025 45.46 42.3564 45.3471C42.6753 45.1067 43.0456 44.8139 43.0135 44.3C42.968 43.4355 42.8056 42.1805 42.0966 41.4523C42.3869 41.392 42.7891 41.3398 43.2186 41.2841C43.8089 41.2076 44.4509 41.1243 44.9255 41.004C45.8745 40.7631 46.3104 40.4249 46.3104 40.4249C46.3104 40.4249 45.7643 39.4952 46.6485 38.5591C46.8612 38.334 47.0645 38.1306 47.2581 37.937C47.8691 37.3257 48.3828 36.8118 48.7878 36.0166C48.7163 36.0075 48.6405 35.995 48.5586 35.9815C47.939 35.8794 46.9669 35.7193 44.8668 36.5172C44.9952 36.5776 45.1191 36.6471 45.2375 36.7251C45.2375 36.7251 43.7747 37.1284 43.2415 37.5772C42.8655 37.8951 42.6224 38.1897 42.3996 38.4597C42.0712 38.8576 41.787 39.202 41.1867 39.4888C40.6547 39.7429 40.1209 39.8265 39.612 39.9063C39.1569 39.9776 38.7219 40.0457 38.3261 40.2299C37.8029 40.4733 37.558 40.694 37.3734 40.8603C37.2622 40.9605 37.1729 41.041 37.0578 41.0948C37.0851 41.1275 37.0873 41.1693 37.0897 41.2149C37.093 41.2782 37.0967 41.349 37.1684 41.4133C37.1619 41.4225 37.1528 41.4361 37.1412 41.4533C37.0144 41.6423 36.5967 42.265 36.1736 42.265C36.219 42.4407 36.6091 42.5706 36.6091 42.5706C36.6091 42.5706 36.3232 42.7789 35.5949 42.8307C35.6341 42.8716 35.6731 42.9128 35.7127 42.9546C36.0466 43.3076 36.4193 43.7016 37.2854 44.2482C37.2645 44.2917 37.2258 44.3409 37.1829 44.3955C37.0657 44.5445 36.917 44.7334 37.0124 44.9571C37.1555 45.2627 37.5267 45.6789 39.0085 46.0171C38.8082 46.0256 38.5989 46.0442 38.3771 46.064C37.7633 46.1187 37.0543 46.1818 36.1796 46.0625C35.9717 46.0375 35.7941 46.0143 35.6387 45.9939C34.9051 45.898 34.6663 45.8667 34.0601 46.0171C34.089 46.046 34.1358 46.0642 34.1926 46.0863C34.2888 46.1237 34.4135 46.1722 34.5281 46.303C34.4968 46.305 34.4391 46.3027 34.3624 46.2997C33.9615 46.2838 33.0439 46.2475 32.6945 46.7063C32.2709 47.2563 32.0809 48.1514 32.1008 48.7743C31.8552 48.7665 31.4412 48.8041 30.8843 49.0345C30.2971 49.2731 29.7297 49.3459 29.1837 49.416C28.8472 49.4591 28.5188 49.5013 28.199 49.5805C27.6589 49.7144 27.1212 49.3092 26.6352 48.943C26.3664 48.7404 26.1134 48.5497 25.8844 48.4687C25.2415 48.2282 24.389 47.6496 24.389 47.6496L22.5888 47.4739L18.9739 45.9459L14.6064 41.5947L14.282 39.4763L13.0788 36.3427L10.9396 33.4817L10.8934 32.349L13.8412 27.1032L15.1742 23.2147L10.7338 23.5855L9.35489 25.8486ZM12.2439 47.8677L12.4848 48.3648L12.3266 48.1438C12.3266 48.1438 12.2822 48.0335 12.2439 47.8677ZM13.9659 40.9566L13.8237 40.8149C13.8703 40.8499 13.918 40.8982 13.9659 40.9566Z" fill="#E6DB9D"/>
<path fill-rule="evenodd" clip-rule="evenodd" d="M17.6011 18.2941C17.5361 18.3401 17.4677 18.3808 17.3966 18.4161C17.2651 18.6258 17.1291 18.8811 17.0284 19.1638C16.7549 19.931 16.7095 20.7698 16.7095 20.7698L16.6966 21.0103C16.6966 21.0103 16.2024 21.7647 16.0074 21.9923C15.0016 20.8489 15.1424 19.1711 15.1664 18.8859C15.1673 18.8744 15.1681 18.8651 15.1686 18.8582C14.8304 19.2954 14.5115 19.424 14.4143 19.424C14.362 19.424 14.3322 19.3621 14.3037 19.3027C14.2791 19.2517 14.2555 19.2025 14.2192 19.1964C14.1897 19.1964 14.0505 19.2513 13.8853 19.3165C13.7963 19.3517 13.6994 19.3899 13.6085 19.424C13.2487 16.6529 14.3674 15.7016 14.5904 15.512C14.6054 15.4993 14.6164 15.4899 14.6226 15.4837C14.4468 15.302 14.4468 14.9831 14.4468 14.9831C14.4468 14.9831 14.4147 14.9509 14.3495 14.8729C15.169 14.6509 16.202 14.2484 17.1651 13.813C17.5359 13.6501 17.9191 13.4748 18.3224 13.2669C19.5221 12.6351 20.1768 12.4669 20.2008 12.4608L20.2656 12.6786C20.4227 12.4994 20.6058 12.3136 20.8196 12.1221C22.3802 10.7239 22.991 10.243 22.991 10.243L25.5138 8.97515L28.6153 10.1976L27.0744 16.2368L25.8781 19.0656L25.7541 19.0423C25.6782 19.3399 25.5834 19.5567 25.5055 19.7016L25.6315 19.6777V21.3943L24.9744 23.2733C24.9744 23.2733 24.9196 23.3961 24.8462 23.5374L25.0263 23.2795L27.6919 19.0983L28.6472 17.7751C28.6516 17.7619 28.654 17.7549 28.654 17.7549L29.8893 14.7975L33.4069 11.3578L38.8688 10.9875L39.402 13.8164L42.068 14.7332L43.0331 16.2051L43.6931 15.7379L49.416 20.7398L50.2844 23.2632L50.3071 23.3064L51.0289 25.3937C50.7376 25.2557 50.4214 25.1783 50.0993 25.1661C49.8832 25.1599 49.4324 25.1924 48.9504 25.2271C48.3299 25.2719 47.6578 25.3203 47.3685 25.2947C47.2684 25.2859 47.1628 25.2755 47.0505 25.2645C46.5864 25.2191 46.0067 25.1623 45.216 25.152C44.2349 25.152 43.7986 24.8468 43.7986 24.8468C43.7986 24.8468 43.5581 24.9445 43.142 24.9574C42.9637 24.9574 42.7937 24.9371 42.5994 24.9139C42.3402 24.8829 42.0376 24.8468 41.6139 24.8468C41.201 24.8468 40.9086 25.0844 40.6694 25.2787L40.6645 25.2827C40.4831 25.4302 40.357 25.5477 40.3062 25.5963C40.5047 25.6011 40.7033 25.5856 40.8987 25.5499C40.8491 25.5591 40.7996 25.5749 40.75 25.5967C40.8014 25.5923 40.8556 25.5872 40.9119 25.581C40.6897 25.6175 40.4592 25.7951 40.232 26.0573C40.2369 26.057 40.2419 26.0568 40.2469 26.0565C40.0896 26.235 39.9324 26.4551 39.7735 26.6967C39.7518 26.7318 39.7302 26.7674 39.7087 26.8034L39.7052 26.8018C39.6438 26.897 39.5822 26.995 39.5201 27.0946C39.182 27.6732 38.8112 28.0637 38.6033 28.239C38.219 28.5884 37.6885 28.7658 37.0726 28.9718C37.001 28.9957 36.9279 29.0202 36.8541 29.0452C36.5383 29.152 36.1853 29.3379 35.8026 29.5396C35.0192 29.9522 34.1112 30.4305 33.1415 30.4305C32.8344 30.4305 32.589 30.343 32.3551 30.2597C32.1334 30.1807 31.9221 30.1054 31.6786 30.1116C31.5228 30.1151 31.3698 30.1528 31.2302 30.2222L31.2242 30.2079C31.0706 30.2745 30.9247 30.3616 30.7909 30.4454C30.3442 30.7162 29.9695 31.0908 29.6987 31.5375C29.733 31.1346 29.5847 30.4124 29.5702 30.3477C29.5567 30.2881 29.5019 30.2997 29.4425 30.3123C29.4374 30.3134 29.4321 30.3145 29.427 30.3155C29.3948 29.9448 29.2324 29.0473 29.2324 29.0473C29.2299 29.1399 29.2146 29.2318 29.187 29.3203C29.1085 28.8651 28.9007 28.2736 28.9007 28.2736H28.9135V26.4597L29.9735 25.2699L35.0449 23.3908L37.8788 20.5572L37.2188 18.2583L36.3131 19.4888L35.2662 19.2488L35.5089 19.9963L34.6705 21.6546L33.0319 22.5191L31.3286 23.4359C31.3286 23.4359 30.867 23.6751 30.3985 23.5465C30.119 23.4717 30.1208 23.2109 30.1224 22.9778C30.1234 22.826 30.1244 22.686 30.0475 22.6168C30.0091 22.5841 29.9182 22.6064 29.7947 22.6367C29.7564 22.6461 29.7148 22.6563 29.6708 22.6659L28.9023 23.8628L28.5513 24.8576L28.1655 26.4637L28.1004 27.1726C28.1004 27.1726 27.7948 27.257 27.7815 27.0946C27.7591 26.9601 27.7158 26.8299 27.6529 26.7088C27.5926 27.0255 27.5056 27.3365 27.3927 27.6385C27.1981 28.1717 26.8788 28.4122 26.6838 28.4906C26.5467 28.5494 26.4178 28.6259 26.3006 28.7182C26.3006 28.7182 26.268 28.3997 26.3135 28.1721C26.3382 27.9989 26.3516 27.7735 26.3566 27.6892C26.3575 27.6742 26.3581 27.6633 26.3585 27.6585C26.3585 27.6552 26.3588 27.6549 26.3585 27.6585C26.336 27.6974 26.3101 27.7342 26.2809 27.7684C26.1052 27.2365 26.073 26.2078 26.073 26.2078C26.0919 26.2264 26.1138 26.2418 26.1377 26.2532C26.0916 26.1858 26.0646 26.1072 26.0597 26.0256C26.0383 26.0651 26.0273 26.1093 26.0276 26.1542C25.7992 25.9461 25.6749 25.6912 25.6177 25.574C25.5947 25.5268 25.5825 25.5019 25.5788 25.5113C25.5666 25.5322 25.5557 25.5538 25.5462 25.576C25.5017 25.4853 25.469 25.3892 25.4489 25.2901C25.4325 25.2079 25.4409 25.1094 25.4492 25.0135C25.4572 24.9194 25.4651 24.8278 25.4489 24.7569C25.3986 24.8101 25.3391 24.8536 25.2732 24.8855C25.2732 24.8855 25.2539 24.7231 25.2411 24.6125C25.2213 24.5023 25.2213 24.4826 25.2865 24.3394C24.6881 24.3073 24.545 23.9691 24.545 23.9691L24.5583 23.9497C24.5221 23.8954 24.492 23.7972 24.4668 23.7149C24.4466 23.649 24.4296 23.5934 24.4151 23.5789C24.3825 23.5464 24.3371 23.6115 24.3371 23.6115C24.3238 23.6441 24.2591 23.6766 24.2591 23.6766C24.2681 23.6969 24.2843 23.713 24.3045 23.7221C23.4378 23.852 22.7615 24.3333 22.7615 24.3333C22.75 24.3036 22.7305 24.2775 22.7053 24.2581C22.6801 24.2386 22.65 24.2263 22.6183 24.2227C22.5026 24.203 22.4897 24.398 22.4897 24.398C22.4897 24.398 22.2878 24.4572 21.8978 24.7169C21.7326 24.8269 21.586 24.965 21.4181 25.1233C21.1896 25.3386 20.9216 25.5913 20.5129 25.8613C20.3695 25.9619 20.3255 26.0831 20.274 26.2248C20.1926 26.4489 20.0925 26.7245 19.5507 27.0511C18.7362 27.5542 18.1148 27.4887 17.844 27.4602C17.8209 27.4577 17.8001 27.4556 17.7822 27.4541C17.5546 27.4348 17.4312 27.2136 17.444 27.0186C17.2567 27.0186 16.9244 27.1606 16.569 27.3125C16.16 27.4873 15.7204 27.6752 15.4351 27.6752C15.6884 27.6105 16.4299 27.0966 16.5272 26.9213C16.6181 26.7263 16.8783 26.3229 17.1513 26.0045C17.3178 25.8004 17.5694 25.5885 17.7494 25.4368C17.8508 25.3514 17.9294 25.2851 17.9575 25.2501C18.0227 25.1528 17.8602 25.0877 17.7629 25.0744C17.9254 24.8991 18.6472 24.4177 18.6472 24.4177H18.6455L18.9185 23.8391L20.5358 22.1634C20.5478 22.1462 20.5597 22.1292 20.5714 22.1123C20.6157 22.0485 20.658 21.9876 20.6993 21.9339C21.5184 20.8937 21.3238 20.4256 21.3238 20.4256C20.9552 20.5045 20.6809 20.2306 20.5523 19.9901C20.4931 19.882 20.4597 19.7618 20.4545 19.6387C20.5162 19.6651 20.5849 19.6698 20.6496 19.6519C20.7192 19.6229 20.7164 19.495 20.715 19.431C20.7149 19.4234 20.7147 19.4166 20.7147 19.4111C20.7147 19.3592 20.6513 19.3463 20.5861 19.3463C20.6125 19.3272 20.6348 19.3028 20.6516 19.2749C20.6684 19.2469 20.6793 19.2158 20.6839 19.1835C20.6365 19.1913 20.5887 19.1957 20.5407 19.1968C20.4811 19.1921 20.4222 19.1812 20.365 19.1642C20.317 19.1652 20.2692 19.1695 20.2218 19.177C20.2394 19.1596 20.2509 19.1369 20.2544 19.1123C20.2544 19.0965 20.2421 19.0884 20.228 19.079C20.213 19.0691 20.1959 19.0577 20.1892 19.0343C19.7538 19.4372 18.323 19.2422 18.323 19.2422H18.3213C18.7451 19.0653 18.876 18.9659 19.2114 18.7113C19.3343 18.6181 19.4846 18.5039 19.6869 18.3575C19.75 18.311 19.8116 18.2627 19.8717 18.2131L17.6011 18.2941ZM22.4117 18.412C22.4023 19.1545 22.3112 19.9227 22.094 20.7013C22.249 20.432 22.5641 19.9662 23.1261 19.4372C23.4192 19.1613 23.6752 18.916 23.8918 18.6911L22.4117 18.412Z" fill="#CAAE5B"/>
<path d="M25.6466 69.5838C25.6297 69.5993 25.6129 69.6148 25.5961 69.6303C25.6234 69.6743 25.6504 69.7453 25.6504 69.8542C25.817 69.7587 25.9701 69.7247 26.1055 69.6948C26.2184 69.6698 26.319 69.6475 26.4047 69.5945C26.4264 69.6408 26.448 69.711 26.4734 69.793C26.5618 70.0793 26.6949 70.5104 27.0288 70.576C27.4771 70.6738 27.9585 70.381 28.4462 70.0107C28.5402 69.9357 28.6368 69.857 28.7344 69.7774C29.1361 69.4499 29.556 69.1076 29.8894 68.9507C30.0414 69.2303 30.1761 69.5191 30.2927 69.8152C30.4397 69.698 30.6158 69.4843 30.8212 69.2351C31.379 68.5583 32.1522 67.62 33.1404 67.6434C33.5313 66.7198 34.1843 65.9309 35.0186 65.3744C36.2736 64.5227 37.0601 64.4575 38.0421 64.5355C38.4321 64.0289 38.9127 63.599 39.4595 63.2677C39.4785 63.2753 39.5014 63.2857 39.5279 63.2978C39.7283 63.3893 40.136 63.5755 40.6301 63.3457C40.8509 63.2443 41.0825 63.029 41.3327 62.7964C41.7237 62.4329 42.1601 62.0272 42.6716 61.948C43.1236 61.8858 43.5832 61.9823 43.972 62.221C43.972 62.221 46.4151 59.7955 48.1009 58.9892C48.0357 58.7942 47.9058 58.0596 49.8822 56.4338C49.9419 56.4865 49.9466 56.5903 49.9506 56.677C49.954 56.751 49.9569 56.8127 49.9928 56.8196C50.0249 56.8196 50.5071 56.6117 51.1175 56.1432C51.8718 55.5779 52.7754 54.986 53.3214 54.8235C54.3501 54.5179 55.4414 55.142 55.4414 55.142C55.5342 55.0769 55.6376 55.0285 55.747 54.9988L55.7591 54.9967C56.0126 54.9524 56.1975 54.92 56.3385 54.8702C56.3343 54.9803 56.3514 55.1158 56.3704 55.2658C56.4098 55.5767 56.457 55.95 56.3385 56.2877C56.542 56.4022 56.7576 56.4937 56.9814 56.5607C56.9703 56.5849 56.9579 56.6127 56.9442 56.6437C56.8212 56.9207 56.5899 57.4418 56.2274 57.7051C56.3659 57.7717 56.4553 57.8427 56.5457 57.9146C56.6757 58.018 56.808 58.1231 57.092 58.2195C56.8969 58.4925 56.5776 58.961 56.4353 59.2481C56.3737 59.3796 56.2436 59.6891 56.097 60.0375L56.0966 60.0385L56.0958 60.0404L56.0954 60.0413C55.9018 60.5019 55.68 61.0292 55.5507 61.3025C55.4553 61.4933 55.3467 61.7474 55.2406 61.9957C55.0791 62.3738 54.9233 62.7384 54.8289 62.8455C54.7918 62.8875 54.7319 62.9617 54.6563 63.0553C54.4122 63.3575 54.004 63.8628 53.6716 64.1455C54.0574 64.0023 55.6355 63.5214 56.305 63.3393C56.1057 63.6316 55.0955 65.1305 54.1242 66.5719C49.4739 69.3592 44.283 71.1233 38.8974 71.7468C33.5117 72.3703 28.055 71.8388 22.8909 70.1877L22.8924 70.1846C20.466 69.4066 18.1226 68.385 15.8981 67.1342V67.0584C15.9529 67.0242 16.0012 66.9807 16.0409 66.9298C16.0579 66.9054 16.0731 66.8793 16.0872 66.8551C16.1109 66.8145 16.1313 66.7794 16.1515 66.7673C16.2166 66.7348 16.5222 66.6388 16.6847 66.6696C16.7381 66.6798 16.8205 66.7058 16.9152 66.7356C17.108 66.7964 17.3515 66.8733 17.5042 66.8646C17.6672 66.8602 17.8397 66.8138 18.0318 66.7622C18.3913 66.6657 18.8195 66.5506 19.3832 66.6568C20.2464 66.8164 20.6713 67.2596 21.08 67.6861C21.2871 67.9021 21.49 68.1138 21.7436 68.2821C22.1838 68.5829 22.6372 68.5117 22.8077 68.4849C22.8364 68.4804 22.8571 68.4771 22.8683 68.4771H23.0436C23.0541 68.4771 23.086 68.4489 23.1288 68.4111C23.2193 68.3312 23.3585 68.2083 23.4469 68.2174C23.5933 68.2246 23.6655 68.2957 23.7295 68.3589C23.7793 68.4079 23.8242 68.4522 23.8953 68.4578C24.0682 68.4783 24.314 68.4407 24.5657 68.4021C24.8722 68.3552 25.1876 68.3069 25.3911 68.3605C25.5011 68.395 25.6011 68.4555 25.6826 68.5369C25.7641 68.6183 25.8247 68.7182 25.8592 68.8281C25.9372 69.0686 25.8721 69.3742 25.6835 69.5499L25.6466 69.5838Z" fill="#CAAE5B"/>
<path d="M19.5455 58.2353C19.5455 58.2353 19.4169 57.754 18.2253 56.5123C18.0676 56.3486 17.9383 56.1977 17.822 56.0622C17.689 55.9071 17.5731 55.772 17.4517 55.6606C17.0722 55.3027 16.798 55.1206 16.537 54.9473C16.4089 54.8622 16.2839 54.7793 16.1513 54.6786C15.7671 54.3933 15.3682 54.232 14.9791 54.0746C14.4726 53.8698 13.9828 53.6717 13.5637 53.2158C12.8226 52.4095 11.959 50.8691 11.3589 49.2948C10.7674 47.7213 10.6045 47.2207 10.6045 47.1753C10.6045 47.1298 10.7674 46.8242 10.9753 46.8697C11.1232 46.902 11.1659 47.1152 11.197 47.2708C11.2096 47.3339 11.2204 47.3875 11.2355 47.4157C11.339 47.5752 11.4565 47.7253 11.5865 47.8641C11.6309 47.9151 11.6781 47.9677 11.7269 48.0221C12.014 48.3418 12.3598 48.727 12.5487 49.2622C12.5033 48.729 12.3211 48.1375 12.3211 48.1375C12.3211 48.1375 13.4656 48.8593 14.4407 49.6132C14.5859 49.7248 14.7184 49.8255 14.8398 49.9178L14.8424 49.9198C15.54 50.45 15.8682 50.6994 16.1123 51.1087C16.1885 51.2365 16.2921 51.4198 16.4093 51.6272C16.7331 52.2002 17.1605 52.9564 17.3981 53.2286C17.7217 53.5994 22.1558 54.9971 22.1558 54.9971L24.265 56.5697L25.3121 58.8649L24.4926 60.1508L22.9191 60.489L20.3637 59.3446L19.5455 58.2353Z" fill="#CAAE5B"/>
<path d="M52.3213 25.4791C52.5814 26.3156 52.6894 27.192 52.6402 28.0666L53.6461 30.3706L53.7133 33.0532L50.7742 42.6825C50.7742 42.6825 52.2371 51.4262 51.8861 52.1167C51.5346 52.7867 50.5205 54.139 50.5205 54.139L50.5231 54.1368C51.0893 53.9 51.6332 53.6131 52.1484 53.2796C52.8054 52.8317 53.4295 52.4459 53.9953 52.3173C54.158 52.2795 54.362 52.2502 54.5854 52.218C55.1297 52.1397 55.7889 52.0448 56.2447 51.7713C56.6333 51.5499 57.0477 51.1278 57.325 50.8452L57.3258 50.8444C57.4149 50.7537 57.4898 50.6774 57.5451 50.6269C57.7492 50.4504 58.3122 50.3398 58.7047 50.2626C58.7755 50.2487 58.8408 50.2359 58.8974 50.224C59.2681 50.1262 59.9248 50.2501 60.2629 50.848C60.6011 51.446 60.458 52.103 60.458 52.103L61.1798 52.5839C61.1798 52.5839 61.4331 50.3783 61.8364 50.0092C62.1938 49.6822 62.2345 49.3289 62.2845 48.8947C62.2878 48.8659 62.2912 48.8367 62.2947 48.8071C62.2979 48.7795 62.3013 48.7516 62.3049 48.7234C62.341 48.3147 62.2785 47.7995 62.2514 47.5761C62.2444 47.5187 62.2397 47.4804 62.2397 47.4684C62.2397 47.4524 62.2441 47.4261 62.2501 47.3896C62.2663 47.2924 62.2945 47.1223 62.2852 46.8765C62.2563 46.6325 62.2085 46.3912 62.142 46.1547L61.8364 43.0661L61.4506 41.3628L60.794 39.2887L60.5664 38.404L60.3255 37.5849L60.0396 37.1169L59.539 35.1727L58.7002 32.3571L57.9458 29.6911L57.3672 27.1815C57.3672 27.1815 57.105 25.493 56.8602 24.2764L56.6966 23.0844L56.391 21.1402L55.4095 18.5976L54.2844 15.7825L53.5433 16.3285C53.5433 16.3285 52.3384 16.3748 51.9501 17.7914C51.5655 19.1944 50.8664 19.6039 50.6698 19.7191L50.6643 19.7223C50.4757 19.8329 50.3454 19.9109 50.5211 20.8929C50.9561 21.7793 51.8927 24.1461 52.3213 25.4791Z" fill="#CAAE5B"/>
<path fill-rule="evenodd" clip-rule="evenodd" d="M14.0004 25.7702C14.0004 25.7702 13.4544 25.933 13.1942 26.2189C12.934 26.492 12.8235 26.7195 12.4724 27.1812C12.1214 27.6428 12.1017 28.02 11.8154 28.5986C11.5295 29.1644 10.8985 30.016 10.8205 30.3216C10.7425 30.6272 10.6127 32.0575 10.4502 32.7339C10.3071 33.4103 10.6127 34.2426 10.6127 34.2426L10.983 34.1642C10.983 34.1642 10.983 34.6455 11.3537 34.9708C11.7241 35.2893 11.7892 33.8912 11.7892 33.8912L13.1741 29.2162L15.261 27.7988L15.4886 26.6544L14.0004 25.7702Z" fill="#E6DB9D"/>
<path fill-rule="evenodd" clip-rule="evenodd" d="M15.0131 27.8899C15.0131 27.8899 14.0312 27.9547 13.5503 28.3061C13.3552 28.4489 13.2772 28.5659 13.0694 28.7416C12.6857 29.0601 12.2953 29.3528 12.1071 29.7703C11.8988 30.186 11.6712 30.817 11.5152 32.0068C11.45 32.5074 11.45 32.9691 11.4046 33.3724C11.3395 33.9184 11.2422 34.3539 11.294 34.6582C11.3592 35.2823 12.003 35.6076 12.0655 36.3161L13.3985 35.6402L14.6535 30.6918L17.3195 29.0202L15.8108 27.3297L15.0114 27.8869L15.0131 27.8899Z" fill="#E6DB9D"/>
<path fill-rule="evenodd" clip-rule="evenodd" d="M21.315 28.9693C21.3554 29.0347 21.4123 29.0884 21.48 29.1249C21.5477 29.1613 21.6238 29.1794 21.7007 29.1772C22.2793 29.1772 22.8121 29.3203 23.0333 29.6126C23.404 30.0811 24.4314 31.5766 24.4314 31.5766L26.8891 32.4608L27.0477 29.5668L24.3624 27.701L21.3064 28.8257V28.9688H21.3132L21.315 28.9693Z" fill="#D8C47C"/>
<path fill-rule="evenodd" clip-rule="evenodd" d="M13.8686 50.3288C13.8686 50.3288 14.4018 51.1805 15.7022 51.9867C16.8728 52.6956 18.7257 53.3394 20.3776 53.723C21.3265 53.9506 22.2759 54.1259 23.1276 54.1392C25.4228 54.1713 27.0027 53.5151 28.9602 53.3004C30.0202 53.1898 31.3206 53.1054 32.6729 52.7861C34.4088 52.3699 35.4362 51.9014 36.8343 51.243C37.8484 50.775 38.7785 50.424 39.5325 49.9752C40.5924 49.3511 41.3661 48.6555 42.2636 48.4476C42.153 48.7532 42.036 49.2993 41.1518 49.865C41.6198 49.8517 42.2636 49.8196 42.2636 49.8196C42.2636 49.8196 41.6395 50.1899 40.5406 51.0223C39.8642 51.5366 38.9671 52.4072 38.0503 52.9858C37.4584 53.3565 36.8146 53.6287 36.392 53.8507C35.3633 54.4165 34.9484 54.7024 34.2725 55.3938C34.5129 55.3809 34.5327 55.3938 34.5327 55.3938C34.5327 55.3938 33.6806 55.5043 33.0698 55.8292C32.9412 55.8292 32.7183 55.7838 32.3283 55.8944C32.0227 55.9917 31.6193 56.2133 31.2036 56.3299C30.6117 56.5056 30.4171 56.4276 30.4171 56.4276L30.5144 56.6226C30.5144 56.6226 29.7429 56.6093 29.4857 56.6355C29.5311 56.6483 29.5183 56.668 29.5183 56.668C29.4731 56.6756 29.4296 56.691 29.3897 56.7135C29.2659 56.7937 29.1298 56.8529 28.9868 56.8888C28.9088 56.9016 28.8436 56.9016 28.7459 56.9213C28.7785 56.9994 29.0322 57.4357 29.1492 57.6929C29.0519 57.758 27.5886 58.8634 27.5886 58.8634C27.634 58.9348 27.6711 59.0112 27.6992 59.091C27.7447 59.2337 27.7644 59.442 27.8098 59.5393C27.92 59.7344 27.9851 59.7669 27.9851 59.7669C27.9851 59.7669 27.8098 59.7995 27.5038 59.8775C27.244 59.9427 26.9251 60.0528 26.4751 60.118C26.337 60.1359 26.1981 60.1468 26.0589 60.1506C26.1241 60.2937 26.4099 60.8398 25.8832 61.4703C25.3564 62.1008 25.194 62.1925 25.0315 62.5954C24.9497 62.5335 24.8627 62.479 24.7713 62.4325C24.596 62.3545 24.3552 62.2379 24.2707 62.0815C24.2215 62.2899 24.1563 62.4942 24.0757 62.6927C23.9132 63.1282 23.6728 63.5576 23.6274 63.8825C23.4516 63.6875 23.1267 63.3039 22.678 63.3819C22.2292 63.4599 21.8717 64.0711 21.7937 64.2468C21.7937 64.1363 21.7157 64.0518 21.6964 64.1817C21.6832 64.3248 21.4363 65.8199 20.0578 67.0294C20.045 66.7238 20.045 66.0475 20.0124 65.8267C19.8838 65.9553 19.7265 66.1452 18.79 66.5485C17.8732 66.9514 18.0185 67.3547 18.0185 67.3547C18.0185 67.3547 17.9405 66.7118 18.4347 66.0346C18.9353 65.3587 19.2409 65.0398 19.2409 64.9879C19.2328 64.9351 19.2103 64.8856 19.1757 64.8448C19.1106 64.7796 18.9807 64.7016 18.9807 64.6497C19.0587 64.6176 19.8324 64.2468 19.787 63.4792C19.7415 62.7904 19.4492 62.4325 19.2409 62.1792C19.2087 62.1466 19.5469 61.9062 19.5011 61.8282C19.4685 61.7827 19.0527 61.4767 19.0004 61.3138C19.0127 61.2166 19.0346 61.1209 19.0656 61.0279C19.111 60.8848 19.1436 60.787 19.1307 60.6898C19.0982 60.5273 18.9224 60.0785 18.8706 60.0331C18.916 60.046 19.2409 60.0331 19.2409 60.0331C19.2409 60.0331 18.9812 59.6169 18.9353 59.4219C18.8894 59.2269 18.7921 58.713 18.7403 58.6157C18.8509 58.6285 19.1239 58.6478 19.1239 58.6157C19.1372 58.5179 18.8834 58.3555 18.9953 58.2299C19.0733 58.2428 19.2229 58.3079 19.3656 58.4901C19.2876 58.2818 19.1577 57.8789 18.8843 57.7164C19.0129 57.671 19.4501 57.5536 19.8337 57.7812C20.2173 58.0088 20.348 58.3272 20.348 58.3272C20.348 58.3272 20.5756 58.5029 20.9271 58.7631C21.33 59.0816 21.8435 59.5346 22.663 59.8552C22.8387 59.953 23.287 59.953 23.6124 59.8878C23.754 59.8541 23.8898 59.7993 24.0153 59.7254C24.0606 59.6987 24.1085 59.6768 24.1584 59.6602C24.0885 59.5199 24.0081 59.3851 23.918 59.2569C24.0285 59.2569 24.1584 59.2702 24.1584 59.2702C24.1584 59.2702 24.2364 59.0944 23.8854 58.7558C23.9634 58.6778 24.0611 58.6272 24.0611 58.4957C23.9505 58.4828 23.7555 58.3204 23.7101 58.2552C23.7748 58.2098 23.8725 58.0602 23.9831 58.0148C23.8854 57.9367 23.6449 57.6114 23.5344 57.5793C23.64 57.5401 23.7422 57.4922 23.84 57.4361C23.84 57.4361 23.2939 57.293 23.1182 57.1759C22.9424 57.0474 22.6827 56.8249 22.5267 56.7598C22.3638 56.6946 22.0779 56.6625 21.9609 56.5322C22.0711 56.5647 22.2468 56.5322 22.3771 56.5322C22.4744 56.5322 22.5202 56.545 22.5524 56.545C22.5395 56.4996 22.5395 56.4019 22.7933 56.3697C22.9153 56.3513 23.0338 56.314 23.1443 56.2591C23.1443 56.2591 22.9034 56.2463 22.63 55.9861C22.3565 55.7259 22.1293 55.5181 21.9733 55.4855C21.8109 55.4529 21.5053 55.5961 21.3167 55.5828C21.0565 55.5506 20.9459 55.4203 20.9459 55.4203C20.9459 55.4203 20.0814 55.4983 18.1634 54.3282C16.505 53.3137 15.7832 52.4166 15.7832 52.4166C15.6281 52.3603 15.478 52.2906 15.3349 52.2083C14.7108 51.8834 13.8459 51.207 13.872 50.3224L13.8686 50.3288Z" fill="#B79947"/>
<path fill-rule="evenodd" clip-rule="evenodd" d="M37.7908 11.3031C37.9412 11.352 38.0749 11.4421 38.1766 11.5633C38.4822 11.9143 38.6772 12.5774 37.9815 13.2863C38.2546 13.3836 38.3673 13.4149 38.6056 13.3836C38.3652 13.6699 37.8191 14.2811 37.7865 14.8143C37.7539 15.2498 38.027 15.3801 38.027 15.3801C38.027 15.3801 37.6108 15.861 37.5915 16.6659C37.788 16.4443 38.0031 16.2398 38.2344 16.0547C38.7158 15.6711 39.3788 15.2357 39.8276 14.9626C39.8215 15.0771 39.8369 15.1916 39.873 15.3004C39.873 15.3004 40.7114 14.6112 41.416 14.9172C41.7345 15.0604 41.5914 15.5087 41.5914 15.5087C41.5914 15.5087 42.0273 15.3462 42.3329 15.6518C42.6385 15.9574 43.0705 16.7457 43.2921 17.0513C43.3894 17.1944 43.6431 17.4675 43.9029 17.8901C44.2577 18.4818 44.554 19.1066 44.7875 19.7558C44.8004 19.4177 44.8848 18.8913 45.8475 19.2226C46.8098 19.5608 47.9019 20.2698 48.8187 21.6658C49.7355 23.0618 49.9627 24.6378 50.4243 25.2379C50.8923 25.8165 51.3737 26.7787 51.4062 27.1821C51.4388 27.5854 51.2631 28.8854 52.2253 32.403C52.4984 31.3109 52.9146 28.8854 52.9146 28.8854L53.1421 26.7462L53.4023 20.127L46.4904 14.3849L41.0873 10.4639L37.5696 10.802L37.7908 11.3031Z" fill="#B79947"/>
<path fill-rule="evenodd" clip-rule="evenodd" d="M50.6328 21.1536C50.6328 21.1536 50.5351 20.5107 48.9098 19.4177C47.284 18.3384 46.0162 18.3384 44.8461 17.4216C43.9485 16.6998 43.0124 15.0415 42.4029 14.4954C41.811 13.9558 41.7137 12.3952 41.7137 12.3952L43.7098 10.7236L46.6784 6.43273L49.1879 3.66944L50.3906 5.34105L52.0622 7.30454L52.9919 11.2448L53.3301 17.0123L50.6298 21.154L50.6328 21.1536Z" fill="#B79947"/>
<path fill-rule="evenodd" clip-rule="evenodd" d="M50.5202 68.3457C50.5202 68.3457 50.563 68.3736 50.6458 68.419C55.2652 66.2547 59.4042 63.1869 62.8185 59.3966C62.7812 58.0808 62.7327 56.7319 62.6796 56.2321C62.5694 55.1722 62.6474 54.0929 62.6149 53.4689C62.5823 52.8448 62.2313 50.3022 62.0688 49.6456C61.8931 48.9889 61.5545 48.6636 61.503 48.6636C61.4576 48.6769 61.1842 49.8993 61.1842 50.2067C61.1842 50.514 61.119 51.2538 61.119 51.4424C61.0736 51.4291 61.0543 51.3138 61.0543 51.2666C60.9891 51.4291 60.9111 51.7154 60.8785 51.748C60.846 51.7805 60.924 51.4749 60.8785 51.4098C60.8331 51.3446 60.75 51.3772 60.768 51.2148C60.7757 51.1184 60.7909 51.0228 60.8134 50.9289C60.8134 50.9289 60.6184 51.2148 60.4756 51.943C60.3325 52.6648 60.3325 52.6845 60.2806 52.7492C60.2352 52.8276 59.975 53.0874 59.9617 53.1851C59.9489 53.3604 60.2026 53.5361 60.2219 53.6334C60.2348 53.7963 59.9943 54.5503 59.9163 54.9193C59.8383 55.2883 59.8709 56.0114 59.7877 56.3822C59.7226 56.7203 59.6591 56.9154 59.4367 57.0581C59.5991 57.0907 59.7551 57.1361 59.7551 57.1361C59.7551 57.1361 59.9827 58.0983 59.4041 58.9179C59.1962 59.2037 59.1444 59.334 58.9232 59.5942C58.4873 60.0751 58.1491 60.6229 58.1165 60.9791C58.094 60.874 58.0789 60.7674 58.0711 60.6602C58.0711 60.6602 57.3952 61.4471 57.1089 61.8959C56.7385 62.4745 56.2246 62.4419 56.0802 62.5851C55.9357 62.7283 55.9044 62.988 55.9516 63.1963C55.823 63.2285 55.5813 63.2743 55.4184 63.7749C55.3404 64.0347 55.1454 64.2893 54.8398 64.4642C54.5342 64.639 54.1634 64.6918 53.9748 64.7372C54.1373 64.7826 54.2024 64.7826 54.2804 64.8345C54.1831 64.9969 53.7344 65.2507 53.2337 65.576C52.7331 65.8816 52.4922 66.3299 52.3688 66.6227C52.2402 66.8957 52.0503 67.0714 51.7447 67.104C51.8733 67.182 52.0636 67.3637 52.1609 67.4225C52.0177 67.455 51.7752 67.455 51.3418 67.8258C50.8866 68.203 50.7306 68.3136 50.5223 68.3461L50.5202 68.3457Z" fill="#B79947"/>
<path fill-rule="evenodd" clip-rule="evenodd" d="M41.4747 71.3592C41.7237 71.1847 41.9933 71.0418 42.2775 70.9336C43.2916 70.5307 44.3644 70.4527 44.7871 70.3228C45.1904 70.1943 45.5089 70.0168 46.0095 69.9195C45.9962 70.0335 45.985 70.1407 45.973 70.2418C44.4971 70.7058 42.9941 71.079 41.4726 71.3592H41.4747Z" fill="#E6DB9D"/>
<path fill-rule="evenodd" clip-rule="evenodd" d="M44.6167 17.922L42.3215 14.6127L40.7154 13.377C40.7154 13.377 39.571 11.2708 39.493 11.2056C39.4279 11.1602 38.3486 11.0432 37.6594 10.9977L37.788 11.3162C37.9384 11.3651 38.0721 11.4552 38.1737 11.5764C38.4793 11.9274 38.6744 12.5905 37.9787 13.2994C38.2518 13.3967 38.3645 13.428 38.6028 13.3967C38.3623 13.683 37.8163 14.2942 37.7837 14.8274C37.7511 15.2629 38.0242 15.3928 38.0242 15.3928C38.0242 15.3928 37.608 15.8741 37.5887 16.6786C37.7852 16.457 38.0003 16.2525 38.2316 16.0674C38.7129 15.6817 39.376 15.2479 39.8248 14.9749C39.8187 15.0894 39.8341 15.2042 39.8702 15.3131C39.8702 15.3131 40.7086 14.6238 41.4132 14.9294C41.7317 15.0726 41.5885 15.5214 41.5885 15.5214C41.5885 15.5214 42.0244 15.3589 42.33 15.6645C42.6356 15.9701 43.0711 16.7566 43.2923 17.0627C43.3896 17.2058 43.6433 17.4789 43.9031 17.901C44.258 18.4928 44.5543 19.1179 44.7877 19.7672C44.8006 19.5071 44.8529 19.1432 45.3021 19.1432L44.6193 17.9208L44.6167 17.922Z" fill="#B79947"/>
<path fill-rule="evenodd" clip-rule="evenodd" d="M10.2071 27.3245C10.2071 27.3245 10.0447 26.9212 10.2071 26.1347C10.3696 25.3482 10.6233 24.9774 10.7077 23.8202C10.7922 22.6629 11.5465 21.2193 11.5465 21.2193L13.6335 20.2704L15.1096 20.6733L15.5451 22.65L13.6789 23.6787C13.6789 23.6787 13.5816 24.1142 13.0548 24.4652C12.5281 24.8163 11.7999 25.0893 11.6246 25.4472C11.5198 25.6664 11.4433 25.898 11.397 26.1364C11.397 26.1364 10.8638 26.0258 10.5453 26.3769C10.2071 26.7348 10.22 27.0532 10.2071 27.3263V27.3245Z" fill="#E6DB9D"/>
<path fill-rule="evenodd" clip-rule="evenodd" d="M29.7521 15.9977C29.9607 15.9471 30.1608 15.8659 30.3457 15.7569C30.2677 15.9652 30.2677 16.1928 29.9295 16.687C29.5913 17.1812 29.5785 17.2527 29.3055 17.7662C29.0324 18.2994 28.9999 19.0666 28.7397 19.4044C28.8563 19.3477 28.9814 19.3105 29.11 19.2942C29.11 19.2942 28.8503 19.5218 28.7397 19.7623C28.6291 20.0027 28.4341 20.5034 27.9532 20.8094C27.4723 21.1154 26.8606 21.31 26.204 22.0318C25.5469 22.7403 24.871 23.6378 24.5324 23.9606C24.7081 23.655 24.9486 23.0438 25.0137 22.6409C25.0789 22.238 25.0004 21.7562 25.111 21.2234C25.2216 20.6907 25.2216 20.3066 25.7539 19.3765C26.2863 18.4464 27.1975 15.2151 27.1975 15.2151L29.161 14.591L29.7529 15.9956L29.7521 15.9977Z" fill="#B79947"/>
<path fill-rule="evenodd" clip-rule="evenodd" d="M28.3365 14.8079C28.3365 14.8079 27.7451 15.6595 27.5826 16.4139C27.4202 17.1683 27.5693 17.1031 27.472 17.4739C27.4138 17.6999 27.4138 17.937 27.472 18.1631C27.6769 17.8331 27.9574 17.5566 28.2903 17.3564C28.8496 17.0187 29.3048 16.7778 29.5761 16.4919C29.8491 16.1863 30.0767 15.6857 30.6682 15.3021C30.4278 15.2695 30.0896 15.1589 30.0253 15.1735C30.2662 14.9005 30.9875 14.4843 31.7158 13.9836C32.4375 13.4693 32.3921 13.2619 33.5627 12.7484C33.1791 12.8135 32.9969 12.7158 32.678 12.7484C32.8066 12.4753 33.2566 12.345 33.7067 11.8967C34.1567 11.4484 33.4208 10.7849 33.4208 10.7849L29.9919 12.859L28.334 14.8096L28.3365 14.8079Z" fill="#B79947"/>
<path fill-rule="evenodd" clip-rule="evenodd" d="M19.0323 13.2603L19.1103 12.6362L20.0923 11.0628L21.1197 8.2995V4.52167L21.0417 2.33701L21.2041 0.906292L21.3276 0.451529L21.4579 0.275796L22.2962 0.711271L23.4539 2.28472L23.5645 5.32147L22.4394 10.1134L19.2273 13.6182L19.0323 13.2603Z" fill="#CAAE5B"/>
<path fill-rule="evenodd" clip-rule="evenodd" d="M21.5875 10.3081C21.5875 10.3081 22.359 8.40933 22.7122 6.7253C22.7773 6.38712 22.9072 6.04937 22.9398 5.77634C23.1022 4.18317 23.1476 3.52653 22.9398 2.65515C22.7773 2.01223 22.1532 1.43274 21.8279 0.983547C21.5095 0.515069 21.3599 0.340621 21.425 0.24204C21.4902 0.143458 21.7435 -0.0177023 21.9904 0.00158549C22.2528 0.00922356 22.5109 0.0701578 22.7491 0.180684C22.9872 0.291209 23.2004 0.449017 23.3757 0.644511C23.8763 1.22314 24.2728 3.18706 24.2728 3.18706L24.6898 5.77848L25.7498 9.0424L21.5883 10.3107L21.5875 10.3081Z" fill="#B79947"/>
<path fill-rule="evenodd" clip-rule="evenodd" d="M28.8365 8.33183C28.8365 8.33183 28.6933 8.39655 28.4336 8.33183C28.4446 8.43797 28.4262 8.54512 28.3803 8.64146C28.3344 8.73781 28.2628 8.81962 28.1734 8.87789C27.9004 8.7673 25.3445 8.98847 25.3445 8.98847C25.3445 8.98847 24.1547 8.78016 23.7839 7.20671C23.5242 6.1596 23.9789 4.71645 23.8294 3.76706C23.6018 2.36891 23.2833 2.09545 23.2507 1.66041C23.2182 1.22536 23.1856 1.11435 23.1856 0.841321C23.0424 0.808746 22.958 0.763313 22.8153 0.763313C22.7827 0.634728 22.8474 0.52243 22.7047 0.294835C22.7827 0.32741 23.3159 0.39256 23.9399 0.984051C24.4543 1.46539 24.4543 1.64069 24.5319 1.73842C24.6292 1.83571 25.4161 2.50993 25.7543 3.182C26.0925 3.85407 26.7491 5.99715 26.8987 6.34819C26.9441 6.49135 27.0418 6.63451 27.2844 6.9594C27.6616 7.42788 28.2141 8.20239 28.8382 8.33097L28.8365 8.33183Z" fill="#987938"/>
<path fill-rule="evenodd" clip-rule="evenodd" d="M24.6233 1.77113C25.0172 2.40741 25.3711 3.06762 25.6829 3.74791C26.0665 4.61243 26.2941 5.32136 26.7754 5.89999C26.5153 5.14605 26.0536 3.66347 25.7806 3.1367C25.475 2.5795 24.8509 1.979 24.6233 1.77113Z" fill="#A88F33"/>
<path fill-rule="evenodd" clip-rule="evenodd" d="M19.4194 16.6542L20.0114 15.9131V15.3864C20.0114 15.3864 20.668 15.2106 21.3765 14.4888C22.085 13.767 23.067 12.3822 23.9319 12.4666C24.7969 12.5643 24.8813 14.3457 24.9139 14.8467C24.9465 15.3478 25.057 16.4849 25.2323 17.0965C25.4274 17.7077 23.1257 20.0223 23.1257 20.0223L21.5625 21.2121L19.4194 16.6542Z" fill="#D8C47C"/>
<path fill-rule="evenodd" clip-rule="evenodd" d="M42.8677 10.1779C42.0996 9.8979 41.2923 9.73997 40.4752 9.70982C39.1096 9.66438 37.1136 9.74239 35.1565 9.75525C33.0498 9.76811 31.1382 9.03346 28.4855 8.90359C28.05 8.64342 26.9425 7.50544 23.4853 9.9177C23.6931 9.90484 25.9952 9.3845 26.7946 10.3862C27.6008 11.381 27.3732 13.0715 27.2631 13.4744C27.0548 14.3719 26.3784 15.6787 26.1058 16.5955C25.8332 17.5124 25.8975 17.9941 25.7025 18.637C25.5075 19.28 25.0784 19.5993 25.3317 20.3404C25.6699 20.1325 25.8461 20.1325 26.411 18.8646C26.9759 17.5968 26.8598 16.6928 27.7963 15.62C28.7131 14.5408 30.2394 13.0646 30.8197 12.6938C31.4001 12.3231 36.0082 9.93056 40.8331 12.2129C41.9968 12.0895 42.8677 10.1779 42.8677 10.1779Z" fill="#B79947"/>
<path fill-rule="evenodd" clip-rule="evenodd" d="M25.4294 9.29323C25.4247 9.24437 25.4139 9.19628 25.3973 9.15007C25.3522 9.05498 25.2929 8.96727 25.2215 8.8899C25.2215 8.8899 24.0771 8.68202 23.4985 8.74674C22.484 8.85733 21.5672 10.1123 21.1381 10.7561C20.7091 11.3999 20.1759 12.3943 19.5972 12.9082C19.6036 12.8581 19.592 12.8074 19.5647 12.765C19.5647 12.765 19.5972 12.8105 19.5325 12.8756C19.4678 12.9408 19.4674 12.9729 19.4999 13.0042L19.5977 13.1015C19.6298 13.1015 20.5273 12.6982 21.7498 11.5585C23.0502 10.3686 24.045 9.75828 24.5653 9.54911C24.8428 9.43119 25.1325 9.34534 25.4294 9.29323Z" fill="#B79947"/>
<path fill-rule="evenodd" clip-rule="evenodd" d="M47.6278 4.40428C47.6278 4.40428 47.4195 4.66402 47.1593 4.95034C46.5807 5.56154 45.8263 6.25033 45.1825 6.95926C44.5718 7.63562 43.8825 8.16239 43.1085 9.04663C42.3344 9.93086 41.4368 10.9124 41.2097 11.1987C41.0018 11.485 40.8394 11.9531 40.8394 12.1935C40.7288 12.1155 40.5989 12.0311 40.5989 12.0311C40.6536 12.1332 40.719 12.2291 40.7939 12.3174C40.9564 12.545 41.2097 12.8317 41.34 13.0066C41.4998 13.2292 41.6146 13.481 41.6777 13.7477C41.7557 13.7606 42.2564 13.8583 42.8809 12.8309C43.5054 11.8035 44.324 10.6788 44.324 10.6788L45.6244 8.74745L46.444 7.10928L47.4726 5.27566L47.6291 4.40428H47.6278Z" fill="#987938"/>
<path fill-rule="evenodd" clip-rule="evenodd" d="M48.9606 3.0914C48.9606 3.0914 48.1736 3.73433 47.868 4.12008C47.5624 4.50584 46.8394 5.51823 46.8394 5.51823L47.0995 5.48566L48.4197 4.31553L48.934 3.39872L48.9602 3.09312L48.9606 3.0914Z" fill="#A88F33"/>
<path fill-rule="evenodd" clip-rule="evenodd" d="M48.7213 54.7631C48.7213 54.7631 48.7084 54.2299 49.0076 53.9114C49.3132 53.5925 50.0868 53.1245 50.8412 51.3689C51.5956 49.6133 51.6796 49.2168 51.6796 49.2168C51.6796 49.2168 50.3273 50.3741 49.4936 50.6471C49.6887 50.2438 49.7992 49.9579 49.897 49.7496C49.7864 49.6523 49.3183 49.5417 49.2729 49.4898C49.5326 49.2296 49.6758 48.5923 50.2026 48.1697C50.8789 47.6553 52.1142 46.7715 53.0743 45.9837C54.0344 45.1959 55.922 43.3636 56.1629 42.8304C56.3061 43.0383 56.3382 43.1681 56.3382 43.1681C56.3382 43.1681 55.3893 44.4039 54.8951 45.1904C54.4592 45.8667 54.4917 46.2503 54.4917 46.2503L55.3893 45.8646C55.3893 45.8646 55.649 46.8268 54.4724 48.2901C54.9868 48.0951 55.1942 48.2121 55.4866 48.0492C55.0052 48.3553 54.3421 48.7715 53.7181 49.9154C53.1069 51.0598 52.2745 52.3928 50.8704 53.2248C49.5048 54.1026 48.7178 54.7592 48.7178 54.7592L48.7213 54.7631Z" fill="#A67A2E"/>
<path fill-rule="evenodd" clip-rule="evenodd" d="M45.1969 10.8547C45.1969 10.8547 44.6637 11.9661 44.5857 12.831C44.5728 13.0393 44.5206 13.2018 44.5206 13.4422C44.5077 14.2159 44.566 15.0808 44.392 15.4837C44.3268 15.3213 44.2942 15.2107 44.2291 15.146C44.1318 15.419 43.9561 16.2707 43.8129 16.5891C43.7482 16.3813 43.605 15.6595 43.6183 14.8078C43.6316 13.9561 43.6505 13.7933 43.6505 13.618C43.6183 13.8777 43.4426 14.2292 43.3774 14.437C43.2801 14.2617 43.1696 14.0341 43.0393 13.8456C42.9613 13.9741 42.864 14.164 42.7795 14.2617C42.7662 14.1837 42.7341 13.9754 42.7144 13.6831C42.7015 13.3449 42.6818 12.9095 42.7015 12.8182C42.7337 12.6429 43.0071 11.9536 43.5857 11.3227C44.275 10.5684 44.9839 9.11877 45.1918 8.67001C45.3996 8.22125 46.2839 6.35548 46.2839 6.35548H46.9602L45.9783 8.592C45.9783 8.592 45.3868 9.81442 45.0812 10.2636C44.7756 10.7128 44.1318 11.9999 43.8455 12.5006C44.0534 12.2275 44.2291 12.0844 44.4374 11.8242C44.6389 11.642 45.1978 10.8555 45.1978 10.8555L45.1969 10.8547Z" fill="#806638"/>
<path fill-rule="evenodd" clip-rule="evenodd" d="M48.9731 3.00652C48.8627 3.34656 48.6881 3.66228 48.4588 3.93662C48.0555 4.41796 47.1905 5.06131 46.7683 5.57479C46.3826 6.07542 45.6111 7.44099 45.9617 9.05988C46.0903 8.70884 46.3324 8.0132 46.9762 7.22625C47.62 6.43931 48.3092 5.53579 48.6478 4.83372C48.9856 4.12478 49.031 3.56587 49.031 3.56587L49.1596 3.40342L49.0816 3.03267L48.971 3.00652H48.9731Z" fill="#B79947"/>
<path fill-rule="evenodd" clip-rule="evenodd" d="M49.0082 2.92803L48.9757 3.00603C48.9757 3.00603 49.073 3.03861 49.0537 3.16891C49.0551 3.34718 49.0442 3.52533 49.0211 3.70211C48.989 3.9297 48.9238 4.10501 48.9109 4.24817C48.9109 4.55377 48.9564 4.90481 48.5252 5.77619C48.3966 6.01664 48.3173 6.22452 48.2522 6.36768C48.0897 6.71871 48.0571 6.771 47.914 6.93345C48.1416 6.80487 48.9611 6.29052 49.3769 6.36768C49.091 6.53012 48.6551 6.84901 48.382 7.2652C48.4472 7.27806 48.7202 7.33035 49.1535 7.2652C49.8753 7.15462 50.6816 6.89445 51.3901 6.94631C52.1642 6.99174 51.8585 6.01664 51.8585 6.01664L50.9653 4.05314L49.2748 2.86373L49.0082 2.92803Z" fill="#B79947"/>
<path fill-rule="evenodd" clip-rule="evenodd" d="M53.4159 17.6361C53.4159 17.6361 52.6615 16.8818 52.3559 14.2929C52.0503 11.6921 52.1155 7.86368 52.1155 7.86368L51.5043 6.36824C51.5043 6.36824 51.3757 5.37342 51.0555 5.00309C50.7353 4.63277 50.1065 4.00827 49.8202 3.70267C49.5339 3.39707 49.209 2.98088 49.014 2.91573C49.1113 2.75328 49.5472 1.83647 51.2179 1.82361C52.8887 1.81076 53.4039 2.74042 53.5783 3.0786C53.7528 3.41678 54.5406 4.87879 54.8329 7.6648C55.1059 10.4474 55.1192 10.6557 55.0738 11.6179C55.0412 12.1511 54.8655 13.3864 54.5594 14.7061C54.28 15.8248 53.9744 17.0734 53.415 17.6387L53.4159 17.6361Z" fill="#987938"/>
<path fill-rule="evenodd" clip-rule="evenodd" d="M51.0494 19.8537C51.3008 19.8718 51.5519 19.8151 51.7711 19.6908C52.0116 19.6779 52.883 19.7885 53.5525 18.9369C53.5979 19.1315 53.7154 19.6587 53.4093 20.1267C53.5722 19.9638 53.8126 19.8991 53.8452 19.8537C53.8581 20.0941 54.0857 20.8352 53.1234 22.6363C53.3832 22.3504 53.6888 22.3632 53.9618 22.3307C53.9751 22.6688 54.1568 23.8064 53.6759 24.418C53.3575 24.8342 52.8371 24.7039 52.8371 24.7039C52.8447 24.6131 52.8447 24.5217 52.8371 24.4309C52.8242 24.2551 52.7591 24.0798 52.805 23.9628C52.5535 23.848 52.3245 23.6894 52.1286 23.4943C51.5628 22.9611 50.8282 22.0512 50.7763 21.3748C50.7112 20.6205 51.3875 20.458 51.3875 20.458C51.3309 20.4073 51.2826 20.348 51.2444 20.2823C51.2118 20.1721 51.1792 19.9964 51.0494 19.8537Z" fill="#806638"/>
<path fill-rule="evenodd" clip-rule="evenodd" d="M46.0361 11.6738C46.0361 11.6738 46.0035 11.6284 45.8282 11.8362C45.8608 11.6284 45.8933 11.4329 45.9062 11.2443C45.9892 11.0697 46.0965 10.9078 46.2251 10.7634C46.1274 10.958 46.0622 11.1337 46.0622 11.1337C46.0622 11.1337 46.3031 10.685 46.6541 10.412C46.8946 10.2169 47.2002 10.1261 47.3301 9.9439C47.4732 9.74888 47.4407 9.71631 47.4732 9.68373C47.4732 9.68373 47.7921 9.47585 48.2799 8.86422C48.3446 8.78621 48.4423 8.70177 48.5075 8.62376C48.6176 8.57833 48.8778 8.46132 49.1834 8.30487C49.5023 8.12957 49.8598 7.88911 50.0809 7.79053C50.5164 7.59551 50.9785 7.61523 51.1928 7.30919C51.3552 7.26376 51.5305 6.776 51.4984 6.36024C51.7388 6.45753 52.9741 7.22476 53.3971 8.90236C53.7027 10.0922 53.1563 11.9258 52.9287 12.8105C52.7011 13.6952 52.6689 14.3514 52.35 14.7543C51.9467 15.2879 50.6467 16.0401 50.3278 16.4126C50.0548 16.7182 49.2357 17.4918 49.2678 18.0508C49.3004 18.4669 49.8139 18.6937 49.9249 18.7725C50.0359 18.8514 50.0351 18.9483 50.2434 18.9011C50.4517 18.854 50.5293 18.758 50.6141 18.758C50.7114 18.7708 50.7114 18.7906 50.7569 18.7906C50.7898 18.7896 50.8226 18.7851 50.8546 18.7773C50.8546 18.7773 50.822 19.3692 49.4371 19.5488C49.3394 19.5621 49.2421 19.5942 49.1183 19.6139C49.2811 19.5359 49.3784 19.5359 49.5542 19.2955C49.3591 19.2629 48.7998 19.2303 48.6566 19.1849C48.7021 19.1069 48.8517 18.8986 48.9751 18.8013C49.0857 18.704 48.9622 18.6727 48.8649 18.7233C48.6974 18.8372 48.5367 18.9609 48.3836 19.0936C48.2212 19.2367 48.078 19.4318 47.8178 19.6079C47.7398 19.3478 47.7527 18.8536 48.0587 18.4961C47.9803 18.509 47.8307 18.7365 47.688 18.6911C47.6622 18.454 47.6775 18.2141 47.7334 17.9822C47.8114 17.6894 48.234 17.176 48.234 17.176L50.2755 13.528L50.711 10.7647L46.0361 11.6738Z" fill="#806638"/>
<path fill-rule="evenodd" clip-rule="evenodd" d="M45.9235 11.8298C45.9235 11.8298 45.8129 11.9078 46.0341 12.0574C46.0015 12.1028 45.9235 12.2653 45.8257 12.3758C45.7156 12.5044 45.5982 12.5842 45.5527 12.6947C45.4554 12.9223 45.3774 13.0783 45.3774 13.1761C45.3774 13.2738 45.3448 13.8979 45.0718 14.3008C44.9741 14.4439 44.8635 14.6844 44.7855 14.8468C44.6231 15.1327 44.4799 15.3612 44.4473 15.4897C44.3826 15.7173 44.3372 16.3414 44.3372 16.3414C44.3372 16.3414 44.4803 16.1657 44.5322 16.101C44.4537 16.2634 44.3693 16.4387 44.2459 16.569C44.3239 16.5039 44.5515 16.3414 44.9351 16.0032C45.4683 15.5549 46.3007 14.8005 47.3152 14.203C47.0092 14.3136 46.7494 14.3136 46.5415 14.3462C46.704 14.1838 48.1669 12.4671 48.9341 12.3047C48.9807 12.2456 49.0038 12.1715 48.9992 12.0964L48.3422 12.0317L47.0092 12.3176L46.8146 11.2889L45.9235 11.8285V11.8298Z" fill="#987938"/>
<path fill-rule="evenodd" clip-rule="evenodd" d="M48.0439 17.6818C48.0439 17.6818 47.8682 17.8572 47.7057 18.2931C47.5807 18.1625 47.4734 18.0159 47.3868 17.8572C47.1464 17.4543 46.7761 16.9403 45.9111 17.2331C45.8982 16.9601 45.8785 16.8169 45.9111 16.6219C46.0543 16.5897 46.4897 16.2387 46.9252 15.7248C47.2313 15.3737 47.5171 14.9704 47.7122 14.4569C47.8407 14.3592 48.0632 14.1968 48.3551 14.0082C48.7713 13.7223 49.2719 13.3318 49.3499 12.8963C49.1549 12.9743 48.7387 13.1694 48.1142 13.1372C48.3551 13.0266 48.7254 12.9096 48.68 12.4283C48.7777 12.3631 48.8557 12.3177 48.8557 12.3177C48.7824 12.2933 48.7053 12.2822 48.6281 12.2851C48.6148 12.2397 48.5955 12.175 48.485 12.2071C48.3744 12.2393 48.3564 12.2397 48.3418 12.2851C48.2964 12.2984 48.1468 12.2851 48.0362 12.3636C47.9256 12.442 47.62 12.7013 47.503 12.7468C47.5484 12.6687 47.6131 12.5522 47.6131 12.5522C47.6131 12.5522 47.2947 12.5843 47.0671 12.6807C46.6509 12.8239 46.17 13.0841 45.6822 13.3374C45.7277 13.2594 45.7474 13.2088 45.7795 13.1942C45.8117 13.1797 45.8901 13.1621 45.8901 13.1488C45.8901 13.1355 45.858 13.0202 45.8772 12.9735C46.0231 12.6646 46.1951 12.3687 46.3916 12.0893C46.6192 11.7832 46.6646 11.3477 46.6646 11.3477L47.6594 10.8471L50.4553 10.2042L52.2696 10.3148L52.042 11.5698L50.9705 13.7609L50.0537 15.7569L49.0066 16.9798L48.0439 17.6818Z" fill="#483925"/>
<path fill-rule="evenodd" clip-rule="evenodd" d="M52.5771 12.2507C52.5771 12.2507 51.4845 13.603 51.1789 13.8113C51.3739 13.3951 52.5771 10.9177 53.0125 10.2285C52.9152 10.1505 52.7849 10.1505 53.0905 8.94262C52.8308 9.5534 52.7395 9.87229 52.5252 10.0347C52.3109 10.1972 52.2843 10.1453 52.1394 10.1453C52.1668 10.0958 52.178 10.039 52.1716 9.98287C52.1716 9.98287 51.2548 9.87229 50.6286 9.87229C50.0024 9.87229 48.7628 10.2105 48.0731 10.4835C47.5271 10.7111 47.2215 10.7111 47.0265 10.8538C46.8314 11.0163 46.7209 11.192 46.6231 11.2374C46.5451 11.2829 46.1748 11.3999 46.0899 11.5233C46.0119 11.6519 45.8821 11.7964 45.8821 11.8289C45.8821 11.8615 45.8495 11.9074 45.9472 11.8744C45.9794 11.8615 46.2202 11.7312 46.4933 11.5688C46.8636 11.3609 47.3124 11.1204 47.6377 10.9773C48.5673 10.6065 48.8601 10.6717 49.2758 10.5937C49.7113 10.5156 50.3358 10.3335 50.7516 10.3335C51.1678 10.3206 51.9547 10.3335 52.1369 10.3661C52.0589 10.4312 51.9937 10.5092 52.0263 10.7822C52.0263 10.8603 51.9611 10.9447 51.8977 11.1333C51.7031 11.6665 51.3324 12.5507 51.1262 12.9995C50.8403 13.6103 50.5154 14.1242 50.3547 14.4426C50.1939 14.7611 49.8403 15.5999 49.4902 16.0487C49.14 16.4974 48.957 16.7704 48.8472 16.8682C48.7375 16.9659 47.9497 17.5441 48.0084 17.7524C48.1516 17.707 49.0555 17.3667 49.7118 16.6277C50.368 15.8888 50.4987 15.4379 51.0122 15.0346C51.5257 14.6312 51.929 13.9553 52.1694 13.3964C52.3709 12.876 52.3255 12.7136 52.5788 12.252L52.5771 12.2507Z" fill="#62593C"/>
<path fill-rule="evenodd" clip-rule="evenodd" d="M29.0322 22.344C29.0322 22.344 28.889 22.9355 28.5637 23.2283C28.2452 23.5146 27.6795 23.7615 27.6147 24.2428C27.5367 24.7237 28.1805 24.9646 28.1805 24.9646C28.1805 24.9646 27.8291 25.5432 27.8291 25.9787C27.8291 26.4275 27.8162 26.5119 27.8616 26.9409C27.8101 26.9741 27.7662 27.018 27.733 27.0695C27.733 27.0695 27.7652 27.4857 28.0841 27.7455C28.403 28.0052 28.6756 28.1616 28.838 28.0965C28.8628 28.1495 28.8846 28.2039 28.9032 28.2594C28.9032 28.2594 29.144 27.6482 29.3065 27.115C29.4689 26.5689 29.6121 26.6465 29.6768 25.9118C29.7415 25.1772 30.4483 23.9158 30.4483 23.9158L30.9305 22.8378L30.144 22.2266L29.0322 22.344Z" fill="#806638"/>
<path fill-rule="evenodd" clip-rule="evenodd" d="M30.4966 23.4033C30.3344 23.5698 30.1847 23.748 30.0487 23.9365C29.8408 24.2228 29.6784 24.4825 29.3728 24.5936C29.0672 24.7046 28.8721 24.7037 28.8914 25.0097C28.9107 25.3158 29.197 25.4452 29.3595 25.6012C29.5352 25.7637 29.6784 26.0367 29.6004 26.3427C29.6977 26.2973 29.8734 26.245 30.0358 25.894C30.1983 25.5429 31.3346 23.4037 31.3346 23.4037L30.4966 23.4033Z" fill="#483925"/>
<path fill-rule="evenodd" clip-rule="evenodd" d="M33.3684 22.428C33.3684 22.428 33.0821 21.9925 33.4335 21.6085C33.785 21.2245 34.2852 21.0624 34.4802 20.822C34.4431 20.7762 34.3933 20.7424 34.3371 20.7247C34.4665 20.493 34.664 20.3068 34.9028 20.1911C34.8055 20.0938 34.6752 20.0158 34.5325 20.0158C34.2136 20.0158 34.0182 20.2108 33.7258 20.2108C33.44 20.2108 33.4074 20.0676 33.4074 20.0676C33.4074 20.0676 33.8887 20.0222 33.8429 19.8074C33.7974 19.5799 33.7143 19.5799 33.7143 19.5799C33.7143 19.5799 34.6439 19.1941 34.8064 18.9884C34.9688 18.7826 34.9495 18.5396 34.9821 18.4423C35.0923 18.4423 35.7361 18.1041 35.9962 18.2473C36.2564 18.3904 36.0742 18.7805 36.0742 18.7805C36.0742 18.7805 36.8616 18.1886 37.2628 17.6082C37.6138 17.6408 37.7771 17.3678 38.0343 17.3678C38.3532 17.3678 38.8538 17.8032 38.9511 18.7329C39.0163 19.2661 39.1136 19.5717 39.0163 20.5147C38.9708 21.0479 38.9837 22.1863 39.1448 22.7512C39.255 23.1999 39.5152 23.1545 39.5152 23.1545C39.4753 23.2913 39.3961 23.4133 39.2876 23.5056C39.1118 23.668 39.0926 24.0975 39.1118 24.2599C39.1378 24.3787 39.1704 24.4959 39.2096 24.611C39.2096 24.611 39.0017 24.8514 38.9494 25.0143C38.904 25.1767 38.6897 25.2873 38.5332 25.2873C38.3768 25.2873 38.4552 25.274 38.2473 25.2873C38.0394 25.3006 37.9743 25.3327 37.844 25.2873C37.7137 25.2419 37.6164 25.1896 37.6687 24.773C37.7141 24.3568 36.0627 23.3881 36.0627 23.3881L33.3624 22.4259L33.3684 22.428Z" fill="#B79947"/>
<path fill-rule="evenodd" clip-rule="evenodd" d="M30.2652 26.5373C30.2652 26.5373 30.8567 27.3242 33.2886 27.3242C34.4459 27.3242 34.8492 27.2136 35.0888 27.1485C35.349 27.0833 36.3241 26.7002 37.3061 25.5425C38.1903 24.4958 37.9953 24.0667 37.9953 24.0667L37.4809 23.9887L35.8093 24.2163L30.8631 26.323L30.263 26.5373H30.2652Z" fill="#62593C"/>
<path fill-rule="evenodd" clip-rule="evenodd" d="M32.082 26.7324C32.082 26.7324 29.9753 27.2009 29.9753 25.8679C29.9753 24.5675 31.2758 23.2019 31.6011 22.9615C31.9392 22.7206 32.7455 22.4471 32.7455 22.4471H34.6897L35.06 23.4291L34.8976 25.5486L32.082 26.7324Z" fill="#222014"/>
<path fill-rule="evenodd" clip-rule="evenodd" d="M34.0268 22.8445C34.0268 22.8445 33.6239 22.4737 32.707 22.9731C31.7902 23.4724 31.0487 24.5161 31.0033 25.4638C30.9579 26.3021 31.6925 26.9266 32.8369 26.9592C33.6886 26.9913 34.2025 26.894 34.4627 26.8306C34.3975 26.7526 34.0593 26.33 34.0593 26.33L34.0268 22.8445Z" fill="#D8C47C"/>
<path fill-rule="evenodd" clip-rule="evenodd" d="M33.6296 23.0518C33.6296 23.0518 33.5323 22.9738 33.2439 23.1298C33.0034 23.2584 32.6524 23.5983 32.3793 23.8387C32.2036 23.9819 32.093 24.0466 31.9936 24.1572C31.5903 24.6385 31.2521 25.4255 31.4475 25.8155C31.643 26.2056 32.2863 26.6543 33.9249 26.3487L33.6249 23.0522L33.6296 23.0518Z" fill="#E6DB9D"/>
<path fill-rule="evenodd" clip-rule="evenodd" d="M33.0961 23.8583C33.0961 23.8583 32.8359 24.2617 32.8359 24.9055C32.8359 25.5621 33.2067 26.6088 34.5722 26.6868C35.6189 26.7519 36.321 25.1785 37.0818 24.5673C37.6604 24.0992 38.0115 24.0859 38.0115 24.0859C38.0115 24.0859 37.42 23.443 35.8401 22.6102C34.2795 21.7714 32.5303 21.6608 31.5809 22.9484C32.0297 22.9158 33.4797 22.5451 33.4797 22.5451L34.1886 22.7727L33.0961 23.8583Z" fill="#222014"/>
<path fill-rule="evenodd" clip-rule="evenodd" d="M35.1373 24.7104C35.0919 24.6131 35.0593 24.4828 35.2479 24.4506C35.4365 24.4185 35.5209 24.4374 35.5861 24.5792C35.6512 24.7211 35.7146 24.8394 35.6182 24.8981C35.5209 24.95 35.2676 24.899 35.1373 24.7104ZM34.8317 23.7936C34.8317 23.7936 34.7665 23.839 34.7991 23.7481C34.812 23.638 34.8968 23.4425 35.1047 23.4884C35.3126 23.5343 35.2676 23.7614 35.2333 23.8266C35.199 23.8917 35.0254 24.0019 34.8951 23.9552C34.8786 23.9509 34.8633 23.9429 34.8505 23.9316C34.8377 23.9204 34.8277 23.9063 34.8213 23.8905C34.815 23.8746 34.8125 23.8575 34.814 23.8406C34.8155 23.8236 34.821 23.8072 34.83 23.7927L34.8317 23.7936Z" fill="#62593C"/>
<path fill-rule="evenodd" clip-rule="evenodd" d="M17.23 24.2091C17.23 24.2091 17.7443 24.5949 18.3418 24.5799C18.9333 24.5666 19.6941 23.9558 20.0452 23.5654C20.253 23.3378 20.4309 23.0973 20.6238 22.9087C20.7867 22.7463 20.8968 22.6683 20.9748 22.5577C21.0854 22.4291 21.2024 22.1874 21.2611 22.1089C21.118 22.2195 20.9101 22.4149 20.6954 22.5448C20.4875 22.6734 20.0387 22.9151 19.8566 22.9803C19.6813 23.0454 17.8605 24.009 17.8605 24.009L17.23 24.2091Z" fill="#9F8E57"/>
<path fill-rule="evenodd" clip-rule="evenodd" d="M18.019 19.4048C18.019 19.4048 18.3049 19.2098 18.8578 19.0859C19.391 18.9573 20.4639 18.8583 20.4639 18.8583L21.3481 19.2441L21.6991 20.5771L21.0562 21.9624L20.2371 22.4767L19.307 20.9813L18.0212 19.4074L18.019 19.4048Z" fill="#9F8E57"/>
<path fill-rule="evenodd" clip-rule="evenodd" d="M16.8591 20.5945L16.5531 20.823C16.5531 20.823 16.6315 20.6798 16.6962 20.2443C16.7609 19.8089 17.0995 18.7489 17.5937 18.1377C18.0879 17.5265 18.0751 17.5591 18.0751 17.5591C18.0296 17.5507 17.9829 17.5522 17.938 17.5634C17.8932 17.5745 17.8512 17.5951 17.8149 17.6238C17.8801 17.4798 18.2962 16.9654 18.7124 16.7082C19.1286 16.4511 19.2911 16.3701 19.7265 16.5797C20.162 16.7893 20.2726 16.8981 20.5915 16.8853C20.9104 16.8724 21.183 16.5342 21.183 16.5342C21.183 16.5342 21.2481 16.7421 21.0077 17.2234C20.7672 17.7048 19.8178 18.6863 19.8178 18.6863L17.8411 20.0386L16.8591 20.5958V20.5945Z" fill="#D8C47C"/>
<path fill-rule="evenodd" clip-rule="evenodd" d="M16.6056 20.9981C16.6056 20.9981 16.3325 21.1605 16.1894 21.7696C16.0462 22.3936 16.318 23.1544 16.4753 23.3949C16.6326 23.6353 16.9896 24.2924 17.7302 24.325C17.9136 24.324 18.0949 24.2864 18.2634 24.2144C18.522 24.0958 18.7645 23.9451 18.9852 23.7656C19.3041 23.5252 19.5639 23.3173 19.5313 23.2976C19.4533 23.265 17.5678 21.7044 17.5678 21.7044L16.8589 20.9132L16.6056 20.9981Z" fill="#62593C"/>
<path fill-rule="evenodd" clip-rule="evenodd" d="M18.3876 23.5855C18.3876 23.5855 18.7712 23.5533 18.9988 23.4101C19.2264 23.267 17.6658 21.7197 17.6658 21.7197L17.7764 23.3913L18.3876 23.5855Z" fill="#483925"/>
<path fill-rule="evenodd" clip-rule="evenodd" d="M16.7291 20.8807C16.7291 20.8807 16.5341 21.2514 16.5341 21.3491C16.5015 21.6676 16.5993 22.6688 16.6773 22.9873C16.7553 23.3255 17.1779 23.839 17.7244 23.839C18.0621 23.839 18.5306 23.6311 18.5306 23.5792C18.5306 23.5141 18.0493 23.4506 17.9194 23.2085C17.8414 23.0799 17.8088 22.7601 17.7908 22.437C17.778 22.2291 17.778 22.0015 17.856 21.9226C18.0317 21.7276 18.0639 21.1683 18.0639 21.1683L18.6879 20.0088H17.8671L16.8852 20.6201L16.7291 20.8807Z" fill="#987938"/>
<path fill-rule="evenodd" clip-rule="evenodd" d="M16.4896 21.2384C16.4896 21.2384 17.1325 20.3868 17.712 20.1913C18.2915 19.9959 18.5508 20.1133 18.5508 20.1133L18.2126 20.9783L17.7313 21.5115L17.7639 21.7845C17.7639 21.7845 17.6854 22.5063 18.1668 23.0069C18.6481 23.5075 19.0056 23.4882 19.2139 23.4882C19.4222 23.4882 20.0201 23.3125 20.3257 22.5907C20.5988 21.9148 20.8263 21.0477 20.2803 20.1785C19.7467 19.3135 18.8041 19.2801 18.622 19.2801C18.4398 19.2801 17.0095 19.3517 16.4896 21.2372V21.2384Z" fill="#222014"/>
<path fill-rule="evenodd" clip-rule="evenodd" d="M32.999 24.1315C32.7586 24.0209 32.9862 23.345 33.2266 23.1367C33.4671 22.9284 33.7727 22.6884 34.3063 22.6554C34.5009 22.6425 34.6895 22.7659 34.6573 22.8962C34.6119 23.1367 34.2737 23.4749 33.9681 23.7153C33.5455 24.0471 33.2721 24.255 32.999 24.1315Z" fill="white"/>
<path fill-rule="evenodd" clip-rule="evenodd" d="M19.9943 20.4449C20.17 20.432 20.3976 20.5735 20.443 20.7638C20.4885 20.9717 20.3325 21.3879 19.9943 21.3879C19.7213 21.3879 19.5781 21.0497 19.5781 20.9524C19.5812 20.8724 19.6035 20.7943 19.6432 20.7248C19.6561 20.7051 19.6887 20.4775 19.9943 20.4449Z" fill="white"/>
<path fill-rule="evenodd" clip-rule="evenodd" d="M17.4582 20.5948C17.4582 20.5948 17.0094 20.8027 16.8015 21.2377C16.653 21.559 16.6081 21.9185 16.6729 22.2664C16.7055 22.4289 16.868 22.8318 16.9785 22.9749C17.0891 23.1181 17.2387 23.2158 17.3493 23.2025C17.4599 23.1892 17.6871 22.8969 17.6871 22.7216C17.6871 22.5463 17.7003 21.8048 17.9146 21.4015C18.1032 20.9986 17.4595 20.5952 17.4595 20.5952L17.4582 20.5948Z" fill="#D8C47C"/>
<path fill-rule="evenodd" clip-rule="evenodd" d="M17.5229 20.5619C17.4449 20.6073 17.315 20.6725 17.3471 20.7569C17.3797 20.8349 17.6527 20.8855 17.7505 21.0758C17.861 21.2708 17.861 21.4787 17.8285 21.5764C17.9134 21.5361 17.9905 21.4809 18.0561 21.4136C18.1992 21.2511 18.3745 21.0304 18.5241 21.0304C18.6218 21.0304 18.7191 21.0758 18.8104 21.0758C18.9536 21.0758 19.0963 21.0304 19.116 20.8808C19.1482 20.6858 18.843 20.51 18.6673 20.5426C18.6998 20.414 18.7453 20.2242 18.6021 20.0939C18.459 19.9636 18.0106 20.1916 17.9129 20.2567C17.8152 20.3219 17.5229 20.5619 17.5229 20.5619Z" fill="#E6DB9D"/>
<path fill-rule="evenodd" clip-rule="evenodd" d="M27.856 34.2227L28.8183 33.9385L29.0913 34.1336C29.0913 34.1336 29.2859 34.5498 29.5919 34.6016C29.4942 34.8095 29.2405 34.9874 29.2537 35.1348C29.267 35.2823 29.3969 35.395 29.3969 35.395C29.3969 35.395 28.532 36.8253 30.2357 38.2667C29.8324 38.4292 29.3189 38.6525 29.0459 38.7811C29.2405 38.8265 29.6566 38.9096 29.8324 39.0674C30.0081 39.2251 30.0081 39.2753 30.1706 39.373C30.333 39.4707 30.4303 39.6006 30.3982 39.6589C30.2876 39.5937 29.9168 39.3991 29.8521 39.5809C29.7874 39.7626 28.2461 39.6914 28.2461 39.6914L25.6452 40.1921C25.6452 40.1921 25.7425 39.9319 25.4695 39.6914C25.151 39.4055 24.761 39.7043 24.3448 39.3858C23.7987 38.9696 23.779 38.4883 23.6037 38.3066C23.779 38.196 24.1369 38.0336 24.9886 37.9208C24.956 37.8557 24.8454 37.6607 24.9106 37.4853C24.9886 37.2578 25.3135 37.1146 25.2162 36.8424C25.3593 36.8098 25.4241 36.8098 25.7819 36.3611C26.1201 35.9123 26.328 35.815 26.5882 35.7825C26.8483 35.7499 27.0044 35.7825 27.4857 35.3337C27.8235 35.0152 27.7133 34.7422 27.7133 34.7422C27.7133 34.7422 27.9336 34.6715 27.856 34.2227Z" fill="#CAAE5B"/>
<path fill-rule="evenodd" clip-rule="evenodd" d="M17.7969 44.2227C17.8476 44.2791 17.9068 44.3274 17.9722 44.3659C18.1351 44.4764 18.3756 44.6067 18.538 44.8013C18.6032 44.704 18.7656 44.5283 19.0523 44.8013C19.3391 45.0744 19.6953 44.8798 19.9169 44.9445C20.1445 45.0229 20.1573 45.0551 20.1573 45.0551C20.1573 45.0551 20.2859 44.9445 20.5735 44.8275C20.7492 44.7623 20.9571 44.7169 21.1847 44.6522C21.3926 44.6067 21.6202 44.5416 21.7766 44.5416C21.9198 44.6389 22.4333 45.1845 24.4945 44.3791C26.4387 43.6248 26.887 43.5403 27.2123 43.6569C27.2449 43.5789 27.2775 43.4293 27.7781 43.449C27.7781 43.2412 27.3619 42.5322 27.3619 42.5322L25.0667 41.7457H23.8113L20.0467 42.4349L17.9607 43.6252L17.7982 44.2253L17.7969 44.2227Z" fill="#CAAE5B"/>
<path fill-rule="evenodd" clip-rule="evenodd" d="M16.5425 42.9032C16.5425 42.9032 16.5879 43.2542 17.1083 43.625C17.6226 43.9953 17.7842 44.2165 17.7842 44.2165C17.7842 44.2165 17.8819 44.0879 17.9599 43.9568C18.0379 43.8136 18.1031 43.6511 18.233 43.6057C18.4931 43.4951 19.0846 43.703 19.2149 43.6704C19.3255 43.6383 19.2929 43.4107 19.4099 43.4107C19.683 43.3974 19.8583 43.586 19.956 43.586C20.0537 43.586 20.2937 43.5731 20.3263 43.5213C20.3589 43.4694 20.3717 42.9294 20.7425 42.6692C21.1458 42.3833 21.64 42.5067 21.7712 42.5719C21.7712 42.6692 21.784 42.9101 22.0442 42.9229C22.3044 42.9358 22.3301 42.8904 22.5586 42.9684C22.787 43.0464 23.0592 42.9555 23.1826 43.3387C23.2932 43.3065 23.5534 43.274 23.4882 42.9032C23.6168 42.8059 23.7291 42.7408 24.0026 42.3572C24.0677 42.2599 24.1779 42.1493 24.2627 42.0061C24.4903 42.0061 24.7634 41.9607 25.1273 42.2791C25.0167 42.3572 24.9515 42.4077 24.9194 42.487C25.0145 42.5813 25.1014 42.6835 25.1791 42.7926C25.2768 42.9212 25.342 43.0789 25.4654 43.1115C25.7385 43.1895 26.1872 43.0789 26.6878 43.1115C27.1692 43.1441 27.5721 43.3194 27.7478 43.43C27.813 43.3978 27.813 43.3846 27.9754 43.4171C28.1379 43.4497 28.2613 43.4626 28.086 43.2547C28.1833 43.3001 28.2939 43.3978 28.3916 43.3001C28.4893 43.2024 28.5669 43.0597 28.8399 43.0271C29.113 42.9945 29.2107 43.0399 29.3213 42.7541C29.4644 42.403 28.9702 42.403 28.9702 42.403C28.9702 42.403 29.1978 42.1947 29.4516 41.9217C29.7572 41.6358 30.1082 41.265 30.1926 40.8099C30.3358 39.9711 29.5167 39.8609 29.5167 39.8609L25.5439 41.0833L20.6868 40.8424L16.5451 42.9036L16.5425 42.9032Z" fill="#987938"/>
<path fill-rule="evenodd" clip-rule="evenodd" d="M12.9727 31.427C12.9727 31.427 12.8441 31.5894 12.7648 31.973C12.6856 32.3567 12.7194 32.3112 12.6543 32.5843C12.5891 32.8573 11.7889 35.5751 12.0889 36.4919C12.389 37.4088 12.9084 37.7469 13.2333 38.488C13.2985 38.6505 13.3619 38.7482 13.3958 38.8913C13.5064 39.3723 13.4091 39.743 13.5389 40.2243C13.5844 40.3868 13.7018 40.5754 13.8771 40.7704C14.2629 41.1733 14.8916 41.5569 15.163 41.8299C15.5461 42.2333 16.0926 43.0528 16.7883 43.1304C17.159 43.1758 17.6858 43.0198 18.1213 42.76C18.507 42.5192 18.7453 42.1814 19.15 41.9885C19.4358 41.8454 19.7414 41.7935 20.0145 41.7284C20.5802 41.6178 21.0942 41.5998 21.3998 41.6632C21.8678 41.7609 22.9732 42.0991 23.5857 42.0991C24.0643 42.0914 24.5402 42.0259 25.0031 41.9041C25.9328 41.6311 27.0575 41.1626 27.799 40.9547C28.2345 40.8261 28.5855 40.7923 28.9434 40.7142C29.5546 40.5711 30.0681 40.3761 30.3609 40.0053C30.1658 39.7777 29.9254 39.4267 28.6245 39.4395C27.1488 39.4721 25.445 40.2912 24.6062 40.4215C23.7674 40.5518 23.4035 40.662 22.467 40.3238C21.5489 39.9822 21.5185 39.7563 21.5185 39.7563C21.5185 39.7563 20.5545 39.0821 20.1512 37.3633C19.7479 35.6446 20.1512 34.3922 21.1983 33.2019C21.4713 32.8963 21.4062 32.6233 21.4062 32.6233C21.4062 32.6233 22.0954 31.6936 21.9068 30.8231C21.6989 29.9581 20.3659 30.1338 20.3659 30.1338L12.9727 31.427Z" fill="#62593C"/>
<path d="M13.2921 29.9979C13.2485 30.0452 13.2006 30.0882 13.1489 30.1265C13.3572 29.4955 13.695 29.0926 14.4815 28.7095C15.2877 28.358 16.8419 28.2945 18.5649 28.808C20.288 29.3215 21.4585 29.8354 21.4585 30.9798C21.4585 31.3803 21.2449 31.5772 20.9277 31.8696C20.8021 31.9854 20.6603 32.1161 20.5091 32.2803C20.2495 32.5492 19.9656 32.9112 19.6952 33.256C19.5933 33.3859 19.4934 33.5134 19.3973 33.6325C19.0978 33.9981 18.8108 34.3229 18.5058 34.5913C18.9051 34.4927 19.0873 34.5352 19.1468 34.6337C19.1759 34.6819 18.9672 34.7641 18.6949 34.8713C18.2337 35.0529 17.59 35.3063 17.6105 35.5882C17.6184 35.6902 18.0374 35.8486 18.454 36.0061C18.8304 36.1483 19.2048 36.2898 19.2728 36.3885C19.3505 36.4933 19.4158 36.6068 19.4674 36.7266C19.4806 36.8565 19.4806 37.1493 19.2728 37.2924C19.0675 37.4432 18.8286 37.3141 18.4365 37.1021C18.4061 37.0857 18.3749 37.0688 18.3427 37.0515C17.8485 36.7785 17.2827 36.1999 17.2827 36.1999C17.1593 36.2715 17.0218 36.3154 16.8798 36.3284C16.723 36.3497 16.5712 36.3981 16.431 36.4716C16.431 36.4716 16.0419 35.3606 15.5605 35.5882C15.1334 35.788 15.0412 35.8186 15.0246 35.8187C15.0246 35.8153 15.0244 35.8131 15.0244 35.8131C15.0244 35.8131 15.0173 35.8188 15.0246 35.8187C15.0243 35.8505 15.003 35.9925 14.5983 35.5882C14.0719 35.0743 14.0196 34.8467 14.0068 34.6714C14.002 34.5794 14.0162 34.4877 14.0481 34.402C13.6038 33.9488 13.2594 33.3682 13.0512 32.7157C12.5929 31.273 13.1092 30.3315 13.2706 30.0373C13.2787 30.0225 13.2859 30.0094 13.2921 29.9979Z" fill="#222014"/>
<path fill-rule="evenodd" clip-rule="evenodd" d="M21.4745 37.9811C21.4745 37.9811 21.3639 38.0462 21.3639 38.0788C21.3541 38.1103 21.3497 38.1432 21.351 38.1761C21.351 38.1954 21.4942 38.1632 21.5135 38.1435C21.5199 38.1307 21.4745 38.0149 21.4745 37.9811Z" fill="#62593C"/>
<path fill-rule="evenodd" clip-rule="evenodd" d="M20.5082 37.6756C20.5729 37.6888 20.6835 37.6756 20.7679 37.7081C20.8331 37.7407 20.8785 37.8059 20.8134 37.8839C20.7482 37.9619 20.6848 38.0789 20.5403 38.0592C20.3779 38.0463 20.2219 37.9619 20.2219 37.8967C20.2191 37.8555 20.2246 37.8142 20.238 37.7751C20.2514 37.736 20.2724 37.7 20.2999 37.6691C20.365 37.6173 20.3976 37.6498 20.5082 37.6756Z" fill="#62593C"/>
<path fill-rule="evenodd" clip-rule="evenodd" d="M13.017 38.2543C13.0643 38.263 13.1128 38.263 13.1601 38.2543C13.2574 38.241 14.272 37.8686 15.3319 37.9354C16.1254 37.9834 16.9119 38.1126 17.679 38.3212C19.012 38.6722 20.6699 39.3679 21.7427 39.7648C22.0286 39.8749 22.3085 40.0704 22.5143 40.148C23.3338 40.4668 23.3659 40.4668 23.8472 40.5513C24.413 40.6293 24.9917 40.4407 25.5964 40.3108C26.3375 40.148 27.6054 40.0699 28.7172 39.9075C29.0767 39.8577 29.4313 39.7772 29.7772 39.667C29.7772 39.667 28.8929 40.5513 26.773 40.8697C25.9161 40.9999 25.0453 41.0108 24.1854 40.9023C23.5091 40.8372 23.0607 40.7394 22.7226 40.6422C22.3389 40.5316 21.552 40.2388 20.5833 39.9992C19.907 39.8235 19.1526 39.6936 18.2881 39.5312C16.1553 39.1407 13.8408 38.6924 13.0161 38.2569L13.017 38.2543Z" fill="#222014"/>
<path d="M11.637 29.3784C11.7293 29.4609 11.8219 29.5437 11.9121 29.6261C11.6845 29.4186 11.4638 29.209 11.2362 28.9823C11.0086 28.7556 10.7874 28.5473 10.5598 28.3394L9.8839 27.7153C9.82797 27.6594 9.7704 27.6067 9.71284 27.5541C9.65662 27.5027 9.60036 27.4513 9.54572 27.3969L9.22726 27.078C8.31045 26.2267 7.41293 25.3939 6.49612 24.5551C7.18435 25.2177 7.88321 25.88 8.58202 26.5423L8.58497 26.5451C8.78387 26.7336 8.98276 26.922 9.1814 27.1105C9.23991 27.1622 9.30383 27.2176 9.36742 27.2726C9.42396 27.3215 9.48042 27.3704 9.53244 27.4161C9.58834 27.4723 9.64589 27.5249 9.70341 27.5775C9.75967 27.6289 9.81595 27.6804 9.87062 27.735L10.547 28.378C10.7746 28.5858 11.0017 28.7941 11.2229 29.002C11.3563 29.1274 11.4967 29.2529 11.637 29.3784Z" fill="#B79947"/>
<path fill-rule="evenodd" clip-rule="evenodd" d="M10.2732 30.8761C10.2208 30.8667 10.1685 30.8572 10.1163 30.8479C9.93608 30.8154 9.75686 30.7832 9.57787 30.7521L8.21273 30.5245L5.48158 30.089C5.38912 30.0758 5.29772 30.0625 5.20652 30.0493C5.07328 30.03 4.9403 30.0108 4.80522 29.9917L4.11644 29.9133C3.92328 29.8937 3.73013 29.873 3.53543 29.852C3.27788 29.8244 3.01736 29.7964 2.75086 29.7705C1.83984 29.6734 0.928814 29.5767 0.0177898 29.499L0 29.4962L0.000428381 29.4975L0.0623963 29.5059C0.884724 29.6329 1.70705 29.7399 2.52938 29.8398L7.13985 30.4639L8.21273 30.6222L9.57787 30.8172C10.0266 30.8824 10.4947 30.9475 10.9434 30.993C10.8125 30.9711 10.6832 30.9488 10.5548 30.9262L10.9499 30.9797C10.9499 30.9797 10.6897 30.9397 10.2732 30.8761ZM0.0240614 29.5L0.000428381 29.4975L0.0177898 29.499L0.0240614 29.5ZM10.2732 30.8761C8.93507 30.6715 5.98293 30.2217 4.85751 30.0629C3.34362 29.8466 0.32109 29.5308 0.0240614 29.5C0.0368396 29.5019 0.0496181 29.5039 0.0623963 29.5059L2.52938 29.8398C2.60306 29.8488 2.67675 29.8577 2.75043 29.8665C2.91935 29.8862 3.09099 29.9077 3.26332 29.9293C3.54878 29.9651 3.83618 30.0011 4.11601 30.0294L4.80522 30.1087C4.92069 30.125 5.0345 30.1449 5.14833 30.1647C5.25877 30.184 5.36956 30.2033 5.48158 30.2193L7.13985 30.4639L10.5548 30.9262C10.4604 30.9096 10.3666 30.8928 10.2732 30.8761Z" fill="#B79947"/>
<path d="M10.6239 31.8303L10.625 31.83L10.5745 31.8445C9.81746 32.0669 9.06415 32.2831 8.29605 32.487L7.82771 32.6126L4.20635 33.6253C4.0222 33.6791 3.83801 33.7331 3.6537 33.7874L2.49644 34.1059C2.31701 34.1576 2.13618 34.2064 1.95393 34.2551L1.30085 34.4377C1.30085 34.4377 1.37795 34.4143 1.51305 34.3733C1.45096 34.3902 1.38872 34.4073 1.32631 34.4248L1.35949 34.4137C1.73202 34.2886 2.11103 34.1614 2.48358 34.054L3.64084 33.6837C4.02409 33.5644 4.40628 33.4483 4.78821 33.3323C5.17719 33.2142 5.56613 33.0961 5.95537 32.9748C6.28423 32.8932 6.61092 32.8094 6.93724 32.7256C7.39108 32.6091 7.84513 32.4925 8.30248 32.3829C9.04807 32.1948 9.83289 32.0071 10.6178 31.8317L10.6146 31.8327L10.622 31.8308L10.6178 31.8317L10.6239 31.8303Z" fill="#B79947"/>
<path fill-rule="evenodd" clip-rule="evenodd" d="M1.78793 36.5833C1.79168 36.5819 1.7958 36.5803 1.80031 36.5786C1.95684 36.5186 2.10936 36.4525 2.26039 36.3839C2.37535 36.335 2.49012 36.2859 2.60486 36.2368C2.98334 36.0749 3.3621 35.9128 3.74578 35.7574L5.70927 34.8929C5.88399 34.8176 6.05829 34.7441 6.23202 34.6708C6.71798 34.4659 7.19963 34.2628 7.6732 34.0279C7.9744 33.8881 8.28283 33.7568 8.59163 33.6253C8.94276 33.4758 9.29466 33.326 9.63669 33.1634C9.55288 33.185 9.47207 33.2082 9.39151 33.2314L9.62948 33.1265C9.62948 33.1265 9.4304 33.1972 9.15254 33.2986C9.14251 33.3013 9.13245 33.3039 9.12235 33.3065L8.60801 33.469C8.27026 33.5796 7.93208 33.6966 7.5939 33.8393C7.17643 34.0201 6.77408 34.2208 6.37284 34.4209C6.13682 34.5387 5.90109 34.6562 5.66298 34.7694L3.73164 35.6991L2.87247 36.0998C2.74018 36.1602 2.61619 36.2167 2.5025 36.2683L1.78793 36.5833ZM2.5025 36.2683L2.64688 36.2047C2.61788 36.2182 2.5889 36.2317 2.55993 36.2453L2.55659 36.2468C2.45805 36.2929 2.35953 36.339 2.26039 36.3839C2.16081 36.4263 2.0611 36.4686 1.96113 36.5107C2.08996 36.4545 2.27573 36.3712 2.5025 36.2683Z" fill="#B79947"/>
<path d="M2.21707 38.3843L4.35715 37.227L5.41712 36.6484C5.77459 36.4598 6.11277 36.2648 6.46381 36.0569C6.67862 35.9437 6.88633 35.8234 7.09398 35.7031C7.23215 35.6231 7.37072 35.5428 7.51092 35.465C7.68643 35.3674 7.86367 35.2748 8.0409 35.1821C8.21807 35.0894 8.39543 34.9967 8.57089 34.8992C8.67234 34.8443 8.77381 34.7897 8.87522 34.7351C9.48202 34.4085 10.087 34.0828 10.6775 33.7093C9.98352 33.9881 9.32196 34.3104 8.66325 34.6313C8.60007 34.6621 8.53632 34.6932 8.47316 34.7239L7.9271 34.9969C7.74238 35.0736 7.56408 35.1649 7.3939 35.2699C7.11845 35.4202 6.85445 35.5781 6.5872 35.738C6.50779 35.7855 6.42759 35.8335 6.34722 35.8811C6.27368 35.9239 6.20097 35.966 6.12881 36.0079L6.12556 36.0098C5.84795 36.1708 5.57769 36.3275 5.30011 36.4919L4.27143 37.1164C3.72969 37.4537 3.18795 37.7869 2.65266 38.1162L2.65181 38.1167C2.51873 38.1986 2.38604 38.2802 2.25385 38.3616C2.22934 38.376 2.21707 38.3843 2.21707 38.3843Z" fill="#B79947"/>
<path d="M10.6028 34.2519L10.624 34.2357L10.5948 34.2575C10.257 34.494 9.92845 34.7398 9.59914 34.9862C9.39363 35.14 9.18771 35.294 8.97915 35.4461L7.92177 36.2597L6.60538 37.2457C6.50711 37.316 6.40848 37.3863 6.30983 37.4565L6.30868 37.4573C6.11639 37.5942 5.92402 37.7312 5.73409 37.8691C5.19956 38.2572 4.66544 38.6519 4.16067 39.0768L4.14799 39.0863L4.15794 39.0791C4.14797 39.0875 4.13801 39.0959 4.12806 39.1044C4.70755 38.7336 5.25318 38.3504 5.79967 37.9471C6.0723 37.7459 6.34163 37.5415 6.61089 37.3371C6.88121 37.1319 7.15193 36.9265 7.42541 36.7247L9.03144 35.4907C9.56222 35.0893 10.1058 34.6747 10.6184 34.241C10.6132 34.2447 10.608 34.2483 10.6028 34.2519Z" fill="#B79947"/>
<path d="M25.0138 34.3673C25.0266 34.3021 25.0789 34.2695 25.43 34.3021C25.6507 34.3226 26.612 34.2351 27.4455 34.1593C27.9374 34.1145 28.385 34.0738 28.6095 34.0617C29.2207 34.0162 31.3727 34.0484 32.4199 34.2695C33.467 34.4907 34.5265 34.7509 35.04 34.8807C35.5543 35.0239 35.7163 35.0753 35.6966 35.1405C35.6838 35.2056 35.568 35.2691 35.5016 35.2511C35.4841 35.2476 35.3473 35.2072 35.1465 35.1478C34.603 34.9872 33.591 34.6882 33.2068 34.6082C32.6805 34.4984 30.8593 34.2048 29.8636 34.2224C29.6383 34.2256 29.4459 34.2265 29.2724 34.2273C28.7299 34.2299 28.3725 34.2316 27.7767 34.3004C26.9897 34.3981 25.6893 34.528 25.2992 34.4761C24.9762 34.4381 24.9796 34.4319 25.0008 34.3927C25.0049 34.385 25.0097 34.3762 25.0129 34.3656L25.0138 34.3673Z" fill="#B79947"/>
<path d="M7.78288 38.7876L7.78355 38.7885C7.97497 38.6315 8.1616 38.4704 8.35188 38.3062C8.47859 38.1968 8.60694 38.086 8.73937 37.9741C8.89149 37.8384 9.03862 37.6976 9.18568 37.5569C9.3344 37.4146 9.48327 37.2721 9.63689 37.1353C9.83011 36.9632 10.0285 36.7983 10.2255 36.6346C10.3398 36.5395 10.4544 36.4443 10.5666 36.3488C10.6186 36.3014 10.6732 36.2541 10.7284 36.2062C10.8252 36.1224 10.9242 36.0366 11.0153 35.9455C11.0364 35.9244 11.0575 35.9019 11.0792 35.8789C11.1239 35.8313 11.1706 35.7815 11.2232 35.7376C11.2519 35.7003 11.2832 35.6707 11.3147 35.6408C11.3443 35.6127 11.3742 35.5843 11.4024 35.5492L11.4304 35.5241C11.4285 35.5252 11.4266 35.5262 11.4247 35.5273C11.4215 35.5292 11.4182 35.531 11.4149 35.533C11.4204 35.5256 11.4258 35.518 11.4311 35.51C11.3517 35.5205 11.2857 35.5666 11.2256 35.6086C11.2023 35.6248 11.18 35.6405 11.1581 35.6531C11.0642 35.7002 10.9769 35.7593 10.8983 35.8289C10.7411 35.9591 10.5912 36.0981 10.4496 36.2451C10.3264 36.371 10.2043 36.4995 10.0824 36.6278C9.92136 36.7974 9.7606 36.9666 9.59789 37.1293C9.46917 37.2584 9.32407 37.3886 9.19182 37.5072C9.17744 37.5201 9.16317 37.5329 9.14913 37.5455L8.68108 37.9484C8.37591 38.2215 8.07031 38.5009 7.78435 38.7864L7.78288 38.7876Z" fill="#B79947"/>
<path d="M11.6666 36.1916L11.672 36.1863C11.4444 36.3749 11.2352 36.5833 11.0209 36.7976L10.9262 36.8903L10.0637 37.7045C9.95305 37.8004 9.84397 37.8963 9.73972 38.0003L9.45692 38.2773L9.11655 38.5986C9.13714 38.5826 9.16148 38.5628 9.18917 38.5395L9.11566 38.6115C9.29724 38.4758 9.46006 38.334 9.62672 38.1889C9.68109 38.1416 9.73604 38.0937 9.79201 38.0457C9.93919 37.9071 10.0751 37.7684 10.211 37.6296C10.2789 37.5603 10.3468 37.491 10.4161 37.4217L11.059 36.8105C11.2743 36.6171 11.4772 36.4104 11.6666 36.1916Z" fill="#B79947"/>
<path d="M9.35611 42.058L9.37521 42.0205C9.51764 41.663 9.70234 41.3246 9.88353 40.9926C9.9073 40.9491 9.93135 40.905 9.95489 40.8616C9.97848 40.8217 10.0019 40.7817 10.025 40.7417L10.8892 39.0412C10.9108 38.9952 10.9325 38.9497 10.9538 38.9048C11.0222 38.7611 11.0878 38.6231 11.1439 38.4884C11.1804 38.4104 11.2142 38.3342 11.2473 38.2594C11.3025 38.1349 11.3559 38.0144 11.4169 37.8969C11.4387 37.857 11.4597 37.8173 11.4807 37.7779C11.5655 37.6181 11.6479 37.4627 11.7679 37.3114C11.7679 37.5519 11.7036 37.7602 11.6256 37.9681C11.5496 38.1761 11.4629 38.3801 11.3659 38.5793C11.2682 38.7743 11.1576 38.9826 11.047 39.1712C11.0113 39.2321 10.9735 39.2937 10.9354 39.3558C10.8558 39.4857 10.775 39.6175 10.7088 39.7498L10.0522 40.9071C10.0049 40.9872 9.95795 41.0673 9.91102 41.1475C9.73192 41.4532 9.5535 41.7577 9.36297 42.0515C9.36665 42.042 9.37037 42.0326 9.37411 42.0232C9.36799 42.035 9.36199 42.0466 9.35611 42.058Z" fill="#B79947"/>
<path d="M13.5053 44.574C13.4411 43.4947 14.084 42.643 14.084 42.643C13.9707 42.9543 13.8424 43.4064 13.7194 43.8398C13.6445 44.1034 13.5717 44.3601 13.5053 44.574Z" fill="#B79947"/>
<path d="M14.279 46.9494C14.4676 45.8114 14.6952 43.4968 14.6952 43.4968C14.6136 45.3745 14.5639 45.6064 14.3944 46.3988C14.361 46.5549 14.3229 46.7328 14.279 46.9494Z" fill="#B79947"/>
<path d="M18.9417 47.1222C18.9497 47.0986 18.9539 47.0861 18.9539 47.0861V47.0839C18.9499 47.0966 18.9458 47.1094 18.9417 47.1222Z" fill="#B79947"/>
<path d="M18.9417 47.1222C18.83 47.4536 17.9904 49.9673 17.972 50.701C18.0076 50.5627 18.0489 50.3998 18.0948 50.2188C18.3142 49.3537 18.6379 48.0776 18.9417 47.1222Z" fill="#B79947"/>
<path d="M21.2038 42.4682C21.2038 42.4682 22.7644 45.0429 23.935 47.2404C23.6182 46.1346 22.8896 44.1063 21.2038 42.4682Z" fill="#B79947"/>
<path d="M25.3967 46.2584C26.2536 47.7729 27.0263 49.3336 27.7113 50.9333C27.5814 49.8279 27.2299 47.936 25.3967 46.2584Z" fill="#B79947"/>
<path d="M20.2551 33.9825C20.1771 33.9696 20.0472 34.0476 20.0798 34.0798L20.0781 34.0811C20.1754 34.2045 20.7347 34.5298 20.8256 34.5363C20.8903 34.5491 21.0527 34.4707 21.0334 34.4385C21.0274 34.4284 21.009 34.4054 20.9857 34.3761C20.935 34.3124 20.8607 34.2192 20.8384 34.1655C20.8714 34.1985 21.0664 34.1526 21.0793 34.1201C21.0888 34.096 21.0556 34.0007 21.0325 33.9344C21.0244 33.9111 21.0175 33.8914 21.0142 33.8796C20.9843 33.8714 20.953 33.8701 20.9226 33.8758C20.8921 33.8814 20.8634 33.8939 20.8384 33.9122C20.8194 33.928 20.8038 33.9476 20.7927 33.9697C20.7815 33.9919 20.7751 34.016 20.7737 34.0408C20.764 34.0248 20.7531 34.0096 20.7411 33.9953C20.7218 33.9825 20.6095 33.9628 20.5787 33.9953C20.5728 34.0016 20.5675 34.0083 20.5623 34.015C20.5401 34.0432 20.5184 34.0709 20.4501 34.0605C20.4067 34.0539 20.377 34.0369 20.3478 34.0201C20.3202 34.0043 20.293 33.9887 20.2551 33.9825Z" fill="#62593C"/>
<path fill-rule="evenodd" clip-rule="evenodd" d="M21.2825 32.1943C21.2372 32.2588 20.9462 32.9004 20.9314 33.0005C20.9193 32.9681 20.8961 32.94 20.8663 32.9225C20.8209 32.9096 20.6713 32.9225 20.6713 33.0005C20.6713 33.0785 20.7998 33.5149 20.9443 33.742C20.9788 33.7903 21.011 33.8368 21.0414 33.8806C21.1539 34.0433 21.2408 34.1689 21.3279 34.2101C21.3626 34.2259 21.402 34.228 21.4382 34.2159C21.4744 34.2038 21.5047 34.1784 21.5229 34.1449C21.5358 34.1124 21.5684 33.8719 21.5555 33.3061C21.5426 32.7403 21.5229 32.1943 21.4904 32.1617C21.4578 32.1291 21.3279 32.1296 21.2825 32.1943Z" fill="#62593C"/>
<path d="M21.5228 35.3609C21.5292 35.3297 21.5221 35.3105 21.5164 35.2954C21.5104 35.2789 21.5061 35.2673 21.5228 35.2504C21.5549 35.2178 21.7311 35.1531 21.7637 35.1852C21.7717 35.1934 21.7697 35.2165 21.7671 35.2479C21.7655 35.2672 21.7637 35.2897 21.7637 35.3138C21.7637 35.3772 21.7637 35.4424 21.7311 35.4891C21.6857 35.5542 21.5558 35.5868 21.4907 35.5675C21.4255 35.5482 21.4126 35.4569 21.4126 35.4389C21.4448 35.4261 21.5228 35.3935 21.5228 35.3609Z" fill="#62593C"/>
<path d="M22.6329 34.6589C22.6329 34.6263 22.7435 34.5611 22.8087 34.5611C22.8856 34.5611 22.9017 34.61 22.9116 34.6401C22.9143 34.6481 22.9165 34.6547 22.9192 34.6589C22.9293 34.6629 22.9362 34.6631 22.9419 34.6633C22.9545 34.6637 22.9615 34.6639 22.984 34.7043C23.0165 34.763 23.0624 34.8667 23.0294 34.9319C22.9964 34.997 22.8669 35.042 22.8348 35.0292C22.7894 34.9966 22.6462 34.7043 22.6329 34.6589Z" fill="#62593C"/>
<path d="M20.1179 35.2926C20.4067 35.1867 20.5406 35.0421 20.5406 35.0421C20.521 34.9722 20.4818 34.9093 20.4277 34.861C20.3735 34.8126 20.3067 34.7807 20.235 34.7691C20.0726 34.7044 19.9101 34.7695 19.767 34.9774C19.6271 35.1805 19.7171 35.3091 19.7637 35.3757L19.767 35.3803C19.8086 35.3742 19.8484 35.367 19.8865 35.3589C19.8889 35.3803 19.9051 35.4156 19.9687 35.4634C19.9961 35.4854 20.0287 35.5064 20.0625 35.528C20.1484 35.5833 20.2417 35.6432 20.2743 35.7364C20.2952 35.7961 20.3065 35.838 20.3145 35.8677C20.3239 35.9026 20.3288 35.9208 20.3394 35.9315C20.3523 35.9443 20.5799 35.9315 20.6905 35.8663C20.711 35.8542 20.7349 35.8407 20.7602 35.8264C20.8708 35.7639 21.0069 35.6869 20.9961 35.652L20.9974 35.6533C20.9974 35.6207 20.6463 35.3803 20.2756 35.3018C20.2385 35.2945 20.2182 35.3061 20.1984 35.3174C20.1833 35.326 20.1686 35.3344 20.147 35.3344C20.1345 35.3295 20.125 35.3121 20.1179 35.2926Z" fill="#62593C"/>
<path d="M15.5484 35.1723C15.4185 36.876 15.7888 37.2271 15.7888 37.2271C16.2183 36.5379 16.0164 35.2177 16.0164 35.2177C15.8626 35.1852 15.7056 35.17 15.5484 35.1723Z" fill="#62593C"/>
<path d="M18.8094 37.6755L18.6809 37.7406H18.6796C18.6796 37.7406 18.7897 37.8251 19.0628 37.8186C19.2711 37.8383 19.3229 37.6755 19.3358 37.5782C19.3555 37.4809 19.2578 37.2074 19.0499 37.1748C18.8416 37.1611 18.8094 37.6755 18.8094 37.6755Z" fill="#62593C"/>
<path d="M18.1028 35.5559C18.1028 35.5559 18.2314 35.5105 18.3887 35.6665C18.4148 35.6665 18.4586 35.6638 18.5134 35.6605C18.7289 35.6473 19.1135 35.6238 19.2536 35.7119C19.4293 35.8225 19.4812 35.9198 19.4812 35.9198C19.4812 35.9198 18.8246 36.063 18.4667 35.9198C18.1028 35.7964 18.1028 35.5559 18.1028 35.5559Z" fill="#62593C"/>
<path d="M17.7123 36.9734C17.7123 36.9734 17.777 36.525 18.2129 36.5053C18.6612 36.4727 18.7461 36.9082 18.7461 36.9082L18.4859 37.1684C18.4859 37.162 18.2909 36.8889 17.7144 36.9734H17.7123Z" fill="#62593C"/>
<path d="M20.3536 36.3295C20.3536 36.3295 20.126 36.1864 19.9048 36.2841C19.697 36.3818 19.7098 36.7654 19.7098 36.7654C19.7566 36.7838 19.8071 36.7904 19.857 36.7847C19.9069 36.779 19.9547 36.7612 19.9961 36.7329C20.1393 36.6356 20.321 36.4727 20.3536 36.3295Z" fill="#62593C"/>
<path d="M20.6998 36.7125C20.7335 36.7384 20.7746 36.7699 20.7819 36.8434L20.7832 36.8417C20.7925 36.8789 20.7954 36.9294 20.7983 36.9826C20.8058 37.1152 20.8141 37.2643 20.9264 37.2643C21.0837 37.2643 21.2251 36.993 21.2123 36.894C21.1994 36.795 21.0824 36.7119 21.0044 36.6664C20.9774 36.6493 20.9523 36.6291 20.9284 36.6098C20.8816 36.572 20.8392 36.5378 20.7961 36.5378C20.7633 36.5376 20.7315 36.5484 20.7056 36.5685C20.6797 36.5885 20.6613 36.6167 20.6533 36.6484C20.6533 36.6768 20.6745 36.6931 20.6998 36.7125Z" fill="#62593C"/>
<path d="M21.796 36.6677C21.7767 36.7457 22.0369 36.6677 22.0369 36.6677C22.0459 36.6768 22.0498 36.698 22.0548 36.7247C22.0678 36.7938 22.0876 36.8997 22.2186 36.9279C22.3751 36.9472 22.5701 36.8366 22.5701 36.7847C22.5595 36.7145 22.5326 36.6477 22.4917 36.5897C22.4777 36.5669 22.4771 36.554 22.4766 36.543C22.476 36.5288 22.4755 36.5176 22.4462 36.492C22.3944 36.4465 22.2186 36.5245 22.2186 36.5245C22.1915 36.5019 22.1567 36.4902 22.1214 36.492C22.0595 36.4976 22.0018 36.5255 21.9589 36.5704C21.8745 36.5704 21.8153 36.5897 21.796 36.6677Z" fill="#62593C"/>
<path d="M23.5649 36.4727C23.6297 36.4204 23.5516 36.375 23.5516 36.375C23.5516 36.375 23.6948 36.375 23.7141 36.3295C23.76 36.2644 23.6948 36.2189 23.6168 36.2322C23.5319 36.2451 23.2268 36.2777 23.1487 36.2777C23.1175 36.2775 23.0866 36.2845 23.0584 36.298C23.0302 36.3115 23.0054 36.3312 22.9859 36.3557C22.8886 36.3882 22.7261 36.5185 22.7261 36.5833C22.7261 36.6304 22.8192 36.6262 22.9452 36.6204C22.9921 36.6182 23.0436 36.6158 23.0965 36.6158C23.2919 36.6013 23.5195 36.5181 23.5649 36.4727Z" fill="#62593C"/>
<path d="M23.7925 34.5752C23.9027 34.5752 24.0004 34.3673 24.0004 34.3673V34.3686C24.0651 34.4222 24.1303 34.3883 24.1821 34.3365C24.2293 34.3035 24.3579 34.1607 24.3579 34.0956C24.3579 34.0304 24.2606 33.9983 24.15 33.9983C24.0549 34.0009 23.9633 34.0352 23.8898 34.0956C23.7925 34.081 23.6819 34.159 23.6819 34.2242C23.6687 34.3022 23.7471 34.3022 23.7792 34.3022C23.7861 34.319 23.7598 34.3586 23.7328 34.3991C23.7076 34.4368 23.6819 34.4753 23.6819 34.4972C23.6819 34.5298 23.6819 34.5623 23.7925 34.5752Z" fill="#62593C"/>
<path d="M22.3892 38.2879C22.3892 38.2232 22.5178 38.2099 22.5178 38.2099L22.5191 38.2124C22.5191 38.2124 22.5384 38.1786 22.4801 38.1267C22.4779 38.1245 22.4758 38.1225 22.4738 38.1205C22.4464 38.0938 22.4421 38.0897 22.5453 38.029C22.6558 37.9638 22.6884 38.029 22.6884 38.029C22.732 38.0046 22.7817 37.9933 22.8316 37.9964C22.9289 37.9964 22.994 38.0487 23.0266 38.1593C23.0266 38.2227 22.9614 38.2557 22.8834 38.2879C22.8134 38.3285 22.7361 38.3551 22.6558 38.3659C22.5792 38.3659 22.5626 38.326 22.5529 38.3024C22.5502 38.296 22.548 38.2907 22.5453 38.2879C22.5198 38.2952 22.4937 38.2997 22.4672 38.3012C22.4214 38.3205 22.3892 38.3204 22.3892 38.2879Z" fill="#62593C"/>
<path d="M21.9911 38.8082C21.9456 38.7885 21.7832 38.8537 21.7832 38.8862V38.8875C21.7832 38.9011 21.7968 38.9228 21.8111 38.9457C21.8311 38.9776 21.8527 39.012 21.8415 39.0307C21.8415 39.0374 21.8216 39.0456 21.802 39.0537C21.7826 39.0618 21.7635 39.0697 21.7635 39.0761C21.7635 39.0941 21.8736 39.2047 21.9388 39.2047C22.0039 39.2047 22.1664 39.1267 22.1664 39.0941C22.1664 39.068 22.0365 38.8211 21.9911 38.8082Z" fill="#62593C"/>
<path d="M21.3033 37.9048C21.2934 37.9188 21.2853 37.9303 21.2688 37.9368C21.2165 37.9694 21.1248 38.0406 21.0922 38.1057C21.0597 38.1709 21.0922 38.3012 21.1248 38.314C21.1574 38.3269 21.3786 38.3269 21.541 38.2814C21.7034 38.2163 21.7489 38.1186 21.7489 38.0406C21.7489 38.0038 21.7344 37.9699 21.7191 37.9341C21.7019 37.8941 21.6837 37.8517 21.6837 37.8001C21.6983 37.7675 21.6332 37.7547 21.5551 37.7675C21.5321 37.7716 21.5102 37.7807 21.491 37.7943C21.4719 37.8079 21.456 37.8255 21.4446 37.846C21.4284 37.8405 21.4111 37.8388 21.3942 37.8411C21.3773 37.8433 21.3611 37.8494 21.3468 37.8588C21.3244 37.8749 21.313 37.891 21.3033 37.9048Z" fill="#62593C"/>
<path d="M20.4312 37.7407C20.4312 37.7407 20.2233 37.9031 20.171 37.9815C20.1574 37.9978 20.1329 38.0281 20.1016 38.0667C19.9828 38.2136 19.7671 38.4801 19.6901 38.5469C19.7224 38.4899 19.7592 38.4356 19.8002 38.3844C19.6717 38.4667 19.5753 38.5906 19.5272 38.7355C19.454 38.9616 19.9025 39.0899 20.2372 39.1857C20.2589 39.1919 20.2802 39.198 20.3009 39.204C20.6386 39.3017 20.7693 39.3325 20.7693 39.3325C20.645 39.1457 20.5382 38.9476 20.4505 38.7411C20.4183 38.6646 20.39 38.6052 20.367 38.557C20.2981 38.4122 20.2766 38.3671 20.3399 38.2597C20.3636 38.2076 20.3916 38.1616 20.4176 38.1189C20.4632 38.044 20.5027 37.979 20.5027 37.9087C20.4637 37.8058 20.4312 37.7407 20.4312 37.7407Z" fill="#62593C"/>
<path opacity="0.8" fill-rule="evenodd" clip-rule="evenodd" d="M56.5005 23.6621C52.4552 13.2156 42.455 11.2803 42.455 11.2803H13.9243L14.0343 21.9209H19.7163V45.6816H13.9238V56.303H41.6653C48.3511 56.303 53.7105 49.5843 53.7105 49.5843C62.2929 37.4034 56.5 23.6621 56.5 23.6621H56.5005ZM41.8142 42.4257C41.8142 42.4257 39.6382 45.5651 37.2706 45.5651H32.5346L32.4224 21.9469H38.5003C38.5003 21.9469 41.3163 22.5357 43.2836 28.1084C43.2836 28.1084 45.8918 36.0871 41.8142 42.4257Z" fill="white"/>
</svg>
