<svg width="39.000000" height="39.000000" viewBox="0 0 39 39" fill="none" xmlns="http://www.w3.org/2000/svg" xmlns:xlink="http://www.w3.org/1999/xlink">
	<desc>
			Created with Pixso.
	</desc>
	<defs>
		<linearGradient x1="2.676472" y1="1.030495" x2="36.323540" y2="34.402447" id="paint_linear_33_2822_0" gradientUnits="userSpaceOnUse">
			<stop stop-color="#ACC4FB" stop-opacity="0.200000"/>
			<stop offset="0.316666" stop-color="#65769E" stop-opacity="0.200000"/>
			<stop offset="1.000000" stop-color="#384259" stop-opacity="0.200000"/>
		</linearGradient>
	</defs>
	<path id="Coin" d="M38.42 24.2C35.81 34.64 25.24 41.02 14.78 38.41C4.34 35.8 -2.02 25.23 0.58 14.79C3.18 4.35 13.75 -2.03 24.18 0.58C34.65 3.15 41.01 13.75 38.42 24.2Z" fill="#ECEFF0" fill-opacity="0" fill-rule="nonzero"/>
	<path id="Coin" d="M38.42 24.2C35.81 34.64 25.24 41.02 14.78 38.41C4.34 35.8 -2.02 25.23 0.58 14.79C3.18 4.35 13.75 -2.03 24.18 0.58C34.65 3.15 41.01 13.75 38.42 24.2Z" fill="url(#paint_linear_33_2822_0)" fill-opacity="1.000000" fill-rule="nonzero"/>
	<path id="Ethereum" d="M19.52 23.49C19.45 23.51 19.42 23.46 19.37 23.43C17.27 22.2 15.16 20.96 13.06 19.73C13.04 19.72 13.02 19.71 13 19.7L13 19.67L13.03 19.65C13.09 19.64 13.14 19.62 13.19 19.6L18.16 17.36C18.6 17.16 19.04 16.96 19.48 16.76L19.51 16.76C19.51 16.83 19.51 16.88 19.51 16.94C19.52 19.13 19.52 21.31 19.52 23.49Z" fill="#343535" fill-opacity="1.000000" fill-rule="nonzero"/>
	<path id="Ethereum" d="M19.52 16.77L19.49 16.77C19.49 16.7 19.49 16.64 19.49 16.57C19.49 14.12 19.49 11.67 19.49 9.22C19.49 9.15 19.49 9.09 19.51 9.03L19.52 9.03C19.78 9.41 20.01 9.81 20.25 10.2C22.14 13.32 24.03 16.44 25.92 19.55C25.94 19.59 25.96 19.62 25.97 19.65C25.92 19.64 25.87 19.62 25.81 19.61C25.47 19.45 25.12 19.29 24.78 19.13C24.24 18.89 23.7 18.64 23.16 18.4L20.56 17.23C20.22 17.07 19.87 16.92 19.52 16.77Z" fill="#2F3030" fill-opacity="1.000000" fill-rule="nonzero"/>
	<path id="Ethereum" d="M19.51 9.02C19.49 9.09 19.49 9.15 19.5 9.21C19.5 11.67 19.5 14.12 19.5 16.57C19.5 16.63 19.49 16.7 19.49 16.76C19.05 16.96 18.6 17.16 18.16 17.36L13.2 19.6C13.14 19.62 13.09 19.64 13.04 19.65C13.18 19.36 13.37 19.09 13.54 18.8C15.51 15.55 17.48 12.3 19.46 9.05C19.47 9.03 19.48 9.02 19.5 9L19.51 9.02Z" fill="#828384" fill-opacity="1.000000" fill-rule="nonzero"/>
	<path id="Ethereum" d="M19.52 16.77C19.87 16.92 20.22 17.07 20.56 17.23L23.16 18.4C23.7 18.64 24.24 18.89 24.78 19.13C25.12 19.29 25.47 19.45 25.82 19.6C25.87 19.62 25.92 19.64 25.97 19.65C26.04 19.73 25.94 19.73 25.91 19.75C25.38 20.07 24.83 20.38 24.29 20.7C22.74 21.61 21.19 22.52 19.64 23.43C19.6 23.46 19.56 23.47 19.52 23.49C19.52 21.31 19.52 19.13 19.52 16.94C19.52 16.88 19.52 16.83 19.52 16.77Z" fill="#131313" fill-opacity="1.000000" fill-rule="nonzero"/>
	<path id="Ethereum" d="M19.49 24.73L23.56 22.36C24.33 21.9 25.11 21.45 25.88 20.99L25.95 20.95C25.96 21.02 25.92 21.05 25.89 21.09C24.12 23.56 22.35 26.04 20.58 28.52C20.24 28.98 19.91 29.46 19.57 29.92C19.55 29.95 19.53 30.06 19.47 29.94C19.51 29.9 19.49 29.85 19.49 29.81C19.5 28.12 19.5 26.43 19.49 24.73Z" fill="#2F3030" fill-opacity="1.000000" fill-rule="nonzero"/>
	<path id="Ethereum" d="M19.49 24.73C19.49 26.43 19.49 28.12 19.49 29.81C19.49 29.85 19.51 29.9 19.47 29.94C19.38 29.88 19.34 29.79 19.28 29.71C17.23 26.84 15.18 23.97 13.12 21.09C13.1 21.06 13.07 21.02 13.05 20.98C13.1 20.95 13.13 20.99 13.16 21.01C15.24 22.23 17.31 23.44 19.39 24.66C19.43 24.69 19.46 24.71 19.49 24.73Z" fill="#828384" fill-opacity="1.000000" fill-rule="nonzero"/>
	<path id="Ethereum" d="M19.51 9.02L19.49 9C19.52 8.98 19.52 9.01 19.52 9.02L19.51 9.02Z" fill="#393939" fill-opacity="1.000000" fill-rule="nonzero"/>
</svg>
