<svg width="39.000000" height="39.000000" viewBox="0 0 39 39" fill="none" xmlns="http://www.w3.org/2000/svg" xmlns:xlink="http://www.w3.org/1999/xlink">
	<desc>
			Created with Pixso.
	</desc>
	<defs>
		<linearGradient x1="2.676472" y1="1.030495" x2="36.323540" y2="34.402447" id="paint_linear_33_2831_0" gradientUnits="userSpaceOnUse">
			<stop stop-color="#ACC4FB" stop-opacity="0.200000"/>
			<stop offset="0.316666" stop-color="#65769E" stop-opacity="0.200000"/>
			<stop offset="1.000000" stop-color="#384259" stop-opacity="0.200000"/>
		</linearGradient>
	</defs>
	<path id="Coin" d="M38.42 24.2C35.81 34.64 25.24 41.02 14.78 38.41C4.34 35.8 -2.02 25.23 0.58 14.79C3.18 4.35 13.75 -2.03 24.18 0.58C34.65 3.15 41.01 13.75 38.42 24.2Z" fill="#345D9D" fill-opacity="0" fill-rule="nonzero"/>
	<path id="Coin" d="M38.42 24.2C35.81 34.64 25.24 41.02 14.78 38.41C4.34 35.8 -2.02 25.23 0.58 14.79C3.18 4.35 13.75 -2.03 24.18 0.58C34.65 3.15 41.01 13.75 38.42 24.2Z" fill="url(#paint_linear_33_2831_0)" fill-opacity="1.000000" fill-rule="nonzero"/>
	<path id="Litecoin" d="M18.01 25.65L19.43 20.55L21.64 19.88L22.1 18.19L19.92 18.9L22.23 10.52L22.23 10.39C22.23 10.34 22.22 10.28 22.2 10.23C22.18 10.19 22.15 10.14 22.11 10.1C22.08 10.07 22.03 10.04 21.99 10.02C21.94 10 21.89 9.99 21.84 10L18.9 10C18.79 9.99 18.68 10.03 18.59 10.1C18.5 10.17 18.44 10.27 18.41 10.38L15.67 20.3L13.49 21.01L13 22.63L15.17 21.92L13.23 28.99L24.84 28.99C24.95 29 25.06 28.96 25.15 28.89C25.24 28.82 25.31 28.72 25.34 28.61L26 26.18L26 26.05C25.99 25.99 25.98 25.94 25.96 25.89C25.94 25.84 25.91 25.8 25.87 25.76C25.84 25.73 25.79 25.7 25.75 25.68C25.7 25.66 25.65 25.65 25.6 25.65L18.01 25.65Z" fill="#345D9D" fill-opacity="1.000000" fill-rule="nonzero"/>
</svg>
