<svg width="39.000000" height="39.000000" viewBox="0 0 39 39" fill="none" xmlns="http://www.w3.org/2000/svg" xmlns:xlink="http://www.w3.org/1999/xlink">
	<desc>
			Created with Pixso.
	</desc>
	<defs>
		<linearGradient x1="2.676472" y1="1.030495" x2="36.323540" y2="34.402447" id="paint_linear_33_2828_0" gradientUnits="userSpaceOnUse">
			<stop stop-color="#ACC4FB" stop-opacity="0.200000"/>
			<stop offset="0.316666" stop-color="#65769E" stop-opacity="0.200000"/>
			<stop offset="1.000000" stop-color="#384259" stop-opacity="0.200000"/>
		</linearGradient>
	</defs>
	<path id="Coin" d="M38.42 24.2C35.81 34.64 25.24 41.02 14.78 38.41C4.34 35.8 -2.02 25.23 0.58 14.79C3.18 4.35 13.75 -2.03 24.18 0.58C34.65 3.15 41.01 13.75 38.42 24.2Z" fill="#F6F8FC" fill-opacity="0" fill-rule="nonzero"/>
	<path id="Coin" d="M38.42 24.2C35.81 34.64 25.24 41.02 14.78 38.41C4.34 35.8 -2.02 25.23 0.58 14.79C3.18 4.35 13.75 -2.03 24.18 0.58C34.65 3.15 41.01 13.75 38.42 24.2Z" fill="url(#paint_linear_33_2828_0)" fill-opacity="1.000000" fill-rule="nonzero"/>
	<path id="Tether" d="M13 12L26.25 12C26.57 12 26.86 12.16 27.02 12.42L30.88 18.78C31.08 19.11 31.02 19.53 30.73 19.79L20.11 29.75C19.76 30.08 19.21 30.08 18.87 29.75L8.26 19.81C7.97 19.53 7.91 19.1 8.13 18.77L12.25 12.39C12.41 12.15 12.7 12 13 12ZM24.54 14.84L24.54 16.62L20.77 16.62L20.77 17.86C23.42 17.99 25.41 18.54 25.42 19.19L25.42 20.55C25.41 21.2 23.42 21.74 20.77 21.87L20.77 24.91L18.26 24.91L18.26 21.87C15.61 21.74 13.62 21.2 13.61 20.55L13.61 19.19C13.62 18.54 15.61 17.99 18.26 17.86L18.26 16.62L14.49 16.62L14.49 14.84L24.54 14.84ZM19.51 20.94C22.34 20.94 24.71 20.48 25.29 19.87C24.8 19.35 23.02 18.94 20.77 18.82L20.77 20.12C20.36 20.14 19.94 20.15 19.51 20.15C19.08 20.15 18.67 20.14 18.26 20.12L18.26 18.82C16.01 18.94 14.23 19.35 13.74 19.87C14.32 20.48 16.69 20.94 19.51 20.94Z" fill="#009393" fill-opacity="1.000000" fill-rule="evenodd"/>
</svg>
