<svg width="90" height="90" viewBox="0 0 90 90" fill="none" xmlns="http://www.w3.org/2000/svg">
<path d="M83.8461 54.6511C78.5086 76.0665 56.8183 89.1436 35.3635 83.8028C13.9479 78.449 0.8919 56.7586 6.22944 35.3431C11.567 13.9276 33.2442 0.850533 54.6467 6.19131C76.1146 11.4666 89.1706 33.2225 83.8461 54.6511Z" fill="#FF060A"/>
<path d="M68.8742 39.563C66.5305 37.3989 63.2884 34.0943 60.6478 31.7506L60.4916 31.6412C60.2316 31.4324 59.9385 31.2687 59.6244 31.1568C53.2573 29.9693 23.625 24.4304 23.0469 24.5007C22.8849 24.5234 22.73 24.5821 22.5937 24.6725L22.4453 24.7897C22.2625 24.9753 22.1237 25.1996 22.0391 25.446L22 25.5475V26.1022V26.1881C25.3359 35.4771 38.5075 65.9064 41.1013 73.0469C41.2575 73.5313 41.5544 74.4531 42.109 74.5H42.234C42.5309 74.5 43.7965 72.8282 43.7965 72.8282C43.7965 72.8282 66.4212 45.391 68.7102 42.4692C69.0065 42.1093 69.2681 41.7221 69.4914 41.3129C69.5484 40.9928 69.5215 40.6633 69.4134 40.3566C69.3052 40.05 69.1195 39.7765 68.8742 39.563ZM49.6011 42.7582L59.2572 34.7505L64.9212 39.9692L49.6011 42.7582ZM45.8512 42.2348L29.2264 28.61L56.1244 33.5709L45.8512 42.2348ZM47.3512 45.8051L64.3665 43.0629L44.9137 66.5001L47.3512 45.8051ZM26.9687 29.9693L44.4606 44.8129L41.9294 66.5157L26.9687 29.9693Z" fill="white"/>
</svg>
