<svg width="84.000000" height="84.000000" viewBox="0 0 84 84" fill="none" xmlns="http://www.w3.org/2000/svg" xmlns:xlink="http://www.w3.org/1999/xlink">
	<desc>
			Created with Pixso.
	</desc>
	<defs>
		<filter id="filter_33_2647_dd" x="0.000000" y="0.000000" width="84.000000" height="84.000000" filterUnits="userSpaceOnUse" color-interpolation-filters="sRGB">
			<feFlood flood-opacity="0" result="BackgroundImageFix"/>
			<feGaussianBlur in="BackgroundImage" stdDeviation="25.9267"/>
			<feComposite in2="SourceAlpha" operator="in" result="effect_backgroundBlur_1"/>
			<feBlend mode="normal" in="SourceGraphic" in2="effect_backgroundBlur_1" result="shape"/>
		</filter>
		<linearGradient x1="4.723461" y1="46.061260" x2="44.037102" y2="5.933365" id="paint_linear_33_2645_0" gradientUnits="userSpaceOnUse">
			<stop stop-color="#C1A875"/>
			<stop offset="1.000000" stop-color="#000000"/>
		</linearGradient>
		<linearGradient x1="42.000000" y1="0.000000" x2="42.000000" y2="54.052174" id="paint_linear_33_2647_0" gradientUnits="userSpaceOnUse">
			<stop stop-color="#C1A875"/>
			<stop offset="1.000000" stop-color="#C1A875" stop-opacity="0.000000"/>
		</linearGradient>
		<filter id="filter_33_2649_dd" x="23.117676" y="26.520020" width="38.366394" height="36.538818" filterUnits="userSpaceOnUse" color-interpolation-filters="sRGB">
			<feFlood flood-opacity="0" result="BackgroundImageFix"/>
			<feColorMatrix in="SourceAlpha" type="matrix" values="0 0 0 0 0 0 0 0 0 0 0 0 0 0 0 0 0 0 127 0" result="hardAlpha"/>
			<feOffset dx="0" dy="3"/>
			<feGaussianBlur stdDeviation="3"/>
			<feComposite in2="hardAlpha" operator="out" k2="-1" k3="1"/>
			<feColorMatrix type="matrix" values="0 0 0 0 1 0 0 0 0 1 0 0 0 0 1 0 0 0 0.2 0"/>
			<feBlend mode="normal" in2="BackgroundImageFix" result="effect_dropShadow_1"/>
			<feBlend mode="normal" in="SourceGraphic" in2="effect_dropShadow_1" result="shape"/>
			<feColorMatrix in="SourceAlpha" type="matrix" values="0 0 0 0 0 0 0 0 0 0 0 0 0 0 0 0 0 0 127 0" result="hardAlpha"/>
			<feOffset dx="0" dy="0"/>
			<feGaussianBlur stdDeviation="0.82963"/>
			<feComposite in2="hardAlpha" operator="arithmetic" k2="-1" k3="1"/>
			<feColorMatrix type="matrix" values="0 0 0 0 1 0 0 0 0 1 0 0 0 0 1 0 0 0 1 0"/>
			<feBlend mode="normal" in2="shape" result="effect_innerShadow_2"/>
		</filter>
		<linearGradient x1="38.384262" y1="41.063599" x2="46.609158" y2="51.058804" id="paint_linear_33_2650_0" gradientUnits="userSpaceOnUse">
			<stop stop-color="#FFFFFF"/>
			<stop offset="1.000000" stop-color="#C1A875"/>
		</linearGradient>
		<linearGradient x1="42.381176" y1="33.230621" x2="46.599072" y2="34.610023" id="paint_linear_33_2651_0" gradientUnits="userSpaceOnUse">
			<stop stop-color="#FFFFFF"/>
			<stop offset="1.000000" stop-color="#C1A875"/>
		</linearGradient>
	</defs>
	<g filter="url(#filter_33_2647_dd)">
		<circle id="Ellipse 2" cx="42.000000" cy="42.000000" r="42.000000" fill="#000000" fill-opacity="0.050000"/>
		<circle id="Ellipse 2" cx="42.000000" cy="42.000000" r="41.500000" stroke="url(#paint_linear_33_2647_0)" stroke-opacity="1.000000" stroke-width="1.000000"/>
	</g>
	<circle id="Ellipse 3" cx="42.000031" cy="42.000000" r="33.234783" fill="#000000" fill-opacity="0.300000"/>
	<g filter="url(#filter_33_2649_dd)">
		<path id="Vector" d="M34.98 35.91C33.4 35.91 32.11 37.2 32.11 38.78L32.11 48.18C32.11 49.77 33.4 51.05 34.98 51.05L49.61 51.05C51.19 51.05 52.48 49.77 52.48 48.18L52.48 38.78C52.48 37.2 51.19 35.91 49.61 35.91L34.98 35.91ZM47 42.18C46.27 42.18 45.69 42.76 45.69 43.48C45.69 44.2 46.27 44.79 47 44.79C47.72 44.79 48.3 44.2 48.3 43.48C48.3 42.76 47.72 42.18 47 42.18Z" fill="#000000" fill-opacity="1.000000" fill-rule="evenodd"/>
		<path id="Vector" d="M34.98 35.91C33.4 35.91 32.11 37.2 32.11 38.78L32.11 48.18C32.11 49.77 33.4 51.05 34.98 51.05L49.61 51.05C51.19 51.05 52.48 49.77 52.48 48.18L52.48 38.78C52.48 37.2 51.19 35.91 49.61 35.91L34.98 35.91ZM47 42.18C46.27 42.18 45.69 42.76 45.69 43.48C45.69 44.2 46.27 44.79 47 44.79C47.72 44.79 48.3 44.2 48.3 43.48C48.3 42.76 47.72 42.18 47 42.18Z" fill="url(#paint_linear_33_2650_0)" fill-opacity="1.000000" fill-rule="evenodd"/>
		<path id="Vector" d="M46.98 32.59C48.31 32.23 49.61 33.23 49.61 34.61L39.16 34.61L46.98 32.59Z" fill="#000000" fill-opacity="1.000000" fill-rule="nonzero"/>
		<path id="Vector" d="M46.98 32.59C48.31 32.23 49.61 33.23 49.61 34.61L39.16 34.61L46.98 32.59Z" fill="url(#paint_linear_33_2651_0)" fill-opacity="1.000000" fill-rule="nonzero"/>
	</g>
</svg>
