<svg width="106.000000" height="106.000000" viewBox="0 0 106 106" fill="none" xmlns="http://www.w3.org/2000/svg" xmlns:xlink="http://www.w3.org/1999/xlink">
	<desc>
			Created with Pixso.
	</desc>
	<defs>
		<filter id="filter_33_2754_dd" x="6.627441" y="6.627441" width="92.745117" height="92.745117" filterUnits="userSpaceOnUse" color-interpolation-filters="sRGB">
			<feFlood flood-opacity="0" result="BackgroundImageFix"/>
			<feGaussianBlur in="BackgroundImage" stdDeviation="25.9267"/>
			<feComposite in2="SourceAlpha" operator="in" result="effect_backgroundBlur_1"/>
			<feBlend mode="normal" in="SourceGraphic" in2="effect_backgroundBlur_1" result="shape"/>
		</filter>
		<filter id="filter_33_2756_dd" x="36.933350" y="35.516602" width="32.133301" height="38.362549" filterUnits="userSpaceOnUse" color-interpolation-filters="sRGB">
			<feFlood flood-opacity="0" result="BackgroundImageFix"/>
			<feColorMatrix in="SourceAlpha" type="matrix" values="0 0 0 0 0 0 0 0 0 0 0 0 0 0 0 0 0 0 127 0" result="hardAlpha"/>
			<feOffset dx="0" dy="3"/>
			<feGaussianBlur stdDeviation="3"/>
			<feComposite in2="hardAlpha" operator="out" k2="-1" k3="1"/>
			<feColorMatrix type="matrix" values="0 0 0 0 1 0 0 0 0 1 0 0 0 0 1 0 0 0 0.2 0"/>
			<feBlend mode="normal" in2="BackgroundImageFix" result="effect_dropShadow_1"/>
			<feBlend mode="normal" in="SourceGraphic" in2="effect_dropShadow_1" result="shape"/>
			<feColorMatrix in="SourceAlpha" type="matrix" values="0 0 0 0 0 0 0 0 0 0 0 0 0 0 0 0 0 0 127 0" result="hardAlpha"/>
			<feOffset dx="0" dy="0"/>
			<feGaussianBlur stdDeviation="0.82963"/>
			<feComposite in2="hardAlpha" operator="arithmetic" k2="-1" k3="1"/>
			<feColorMatrix type="matrix" values="0 0 0 0 1 0 0 0 0 1 0 0 0 0 1 0 0 0 1 0"/>
			<feBlend mode="normal" in2="shape" result="effect_innerShadow_2"/>
		</filter>
		<linearGradient x1="4.352684" y1="56.954357" x2="45.694393" y2="14.756363" id="paint_linear_33_2752_0" gradientUnits="userSpaceOnUse">
			<stop stop-color="#C1A875"/>
			<stop offset="1.000000" stop-color="#000000"/>
		</linearGradient>
		<linearGradient x1="70.608192" y1="57.345123" x2="38.834511" y2="89.118805" id="paint_linear_33_2754_0" gradientUnits="userSpaceOnUse">
			<stop stop-color="#C1A875"/>
			<stop offset="1.000000" stop-color="#C1A875" stop-opacity="0.000000"/>
		</linearGradient>
		<linearGradient x1="50.282066" y1="49.325272" x2="55.989754" y2="64.483269" id="paint_linear_33_2756_0" gradientUnits="userSpaceOnUse">
			<stop stop-color="#FFFFFF"/>
			<stop offset="1.000000" stop-color="#C1A875"/>
		</linearGradient>
	</defs>
	<g filter="url(#filter_33_2754_dd)">
		<rect id="Rectangle 5" y="53.000000" rx="16.000000" width="74.953316" height="74.953316" transform="rotate(-45 0.000000 53.000000)" fill="#000000" fill-opacity="0.050000"/>
		<rect id="Rectangle 5" x="0.707153" y="53.000000" rx="16.000000" width="73.953316" height="73.953316" transform="rotate(-45 0.707153 53.000000)" stroke="url(#paint_linear_33_2754_0)" stroke-opacity="1.000000" stroke-width="1.000000"/>
	</g>
	<rect id="Rectangle 6" x="13.057983" y="53.000000" rx="10.000000" width="56.486549" height="56.486549" transform="rotate(-45 13.057983 53.000000)" fill="#000000" fill-opacity="0.300000"/>
	<g filter="url(#filter_33_2756_dd)">
		<path id="icon" d="M58.99 48.4L55.68 48.4C55.07 48.4 54.6 47.85 54.69 47.25L55.38 42.85C55.4 42.68 55.4 42.52 55.36 42.36C55.31 42.19 55.24 42.05 55.14 41.92C55.04 41.79 54.91 41.69 54.77 41.62C54.63 41.55 54.48 41.51 54.32 41.51L48.79 41.51C48.54 41.51 48.29 41.61 48.1 41.78C47.9 41.96 47.77 42.2 47.73 42.47L45.94 53.95C45.92 54.12 45.93 54.29 45.97 54.45C46.01 54.61 46.08 54.76 46.18 54.89C46.28 55.01 46.41 55.11 46.55 55.18C46.69 55.26 46.85 55.29 47 55.29L50.29 55.29C50.85 55.29 51.29 55.74 51.29 56.29L51.29 60.87C51.29 61.89 52.63 62.26 53.15 61.39L59.89 50.17C60 50 60.05 49.8 60.06 49.59C60.07 49.38 60.02 49.18 59.93 49C59.84 48.82 59.7 48.67 59.54 48.56C59.37 48.46 59.18 48.4 58.99 48.4Z" fill="url(#paint_linear_33_2756_0)" fill-opacity="1.000000" fill-rule="nonzero"/>
	</g>
</svg>
