<svg width="192.000000" height="266.000000" viewBox="0 0 192 266" fill="none" xmlns="http://www.w3.org/2000/svg" xmlns:xlink="http://www.w3.org/1999/xlink">
	<desc>
			Created with Pixso.
	</desc>
	<defs>
		<filter id="filter_33_2491_dd" x="696.000000" y="-2909.000000" width="0.000000" height="0.000000" filterUnits="userSpaceOnUse" color-interpolation-filters="sRGB">
			<feFlood flood-opacity="0" result="BackgroundImageFix"/>
			<feBlend mode="normal" in="SourceGraphic" in2="BackgroundImageFix" result="shape"/>
			<feGaussianBlur stdDeviation="24.6582" result="effect_layerBlur_1"/>
		</filter>
		<linearGradient x1="94.887619" y1="195.499435" x2="94.887627" y2="335.999695" id="paint_linear_33_2454_0" gradientUnits="userSpaceOnUse">
			<stop offset="0.064009" stop-color="#FFFFFF" stop-opacity="0.000000"/>
			<stop offset="0.258526" stop-color="#FFFFFF" stop-opacity="0.800000"/>
			<stop offset="0.486011" stop-color="#FFFFFF" stop-opacity="0.000000"/>
			<stop offset="1.000000" stop-color="#FFFFFF" stop-opacity="0.000000"/>
		</linearGradient>
		<linearGradient x1="-14.500017" y1="225.999527" x2="201.500076" y2="225.999527" id="paint_linear_33_2454_1" gradientUnits="userSpaceOnUse">
			<stop stop-color="#202430"/>
			<stop offset="0.525820" stop-color="#202430" stop-opacity="0.000000"/>
			<stop offset="1.000000" stop-color="#202430"/>
		</linearGradient>
		<radialGradient gradientTransform="translate(213.938 126.978) rotate(-150.409) scale(306.983 306.992)" cx="0.000000" cy="0.000000" r="1.000000" id="paint_radial_33_2491_0" gradientUnits="userSpaceOnUse">
			<stop offset="0.409332" stop-color="#B8FD50"/>
			<stop offset="1.000000" stop-color="#000000" stop-opacity="0.000000"/>
			<stop offset="1.000000" stop-color="#2D2E32" stop-opacity="0.000000"/>
		</radialGradient>
		<linearGradient x1="147.346344" y1="-8.062660" x2="179.659302" y2="94.111374" id="paint_linear_33_2538_0" gradientUnits="userSpaceOnUse">
			<stop stop-color="#C1A875"/>
			<stop offset="1.000000" stop-color="#FFFFFF" stop-opacity="0.000000"/>
		</linearGradient>
		<linearGradient x1="63.553482" y1="-10.482384" x2="10.543251" y2="125.862175" id="paint_linear_33_2539_0" gradientUnits="userSpaceOnUse">
			<stop stop-color="#C1A875"/>
			<stop offset="1.000000" stop-color="#FFFFFF" stop-opacity="0.000000"/>
		</linearGradient>
	</defs>
	<mask id="mask33_2452" mask-type="alpha" maskUnits="userSpaceOnUse" x="0.000000" y="0.000000" width="192.000000" height="266.000000">
		<rect id="Rectangle 68" rx="30.000000" width="192.000000" height="266.000000" fill="#D9D9D9" fill-opacity="1.000000"/>
	</mask>
	<g mask="url(#mask33_2452)">
		<path id="Union" d="M141.289 185.847C141.294 185.846 141.3 185.846 141.305 185.847L164.515 185.847C164.52 185.847 164.525 185.847 164.53 185.847L187.741 185.847C187.745 185.847 187.75 185.847 187.754 185.847L210.965 185.847C210.969 185.847 210.973 185.847 210.977 185.847L234.191 185.847C234.195 185.847 234.198 185.847 234.202 185.847L257.417 185.847C257.42 185.847 257.424 185.847 257.427 185.847L280.643 185.847C280.646 185.847 280.649 185.847 280.652 185.847L303.867 185.847C303.869 185.847 303.872 185.847 303.875 185.847L321 185.847C321.049 185.847 321.087 185.885 321.087 185.935C321.087 185.984 321.049 186.022 321 186.022L321 186.022L304.668 186.022L314.723 188.26L321 188.26C321.049 188.26 321.087 188.298 321.087 188.347C321.087 188.396 321.049 188.435 321 188.435L315.509 188.435L321.019 189.661C321.06 189.67 321.087 189.705 321.087 189.746C321.087 189.752 321.087 189.759 321.085 189.765C321.074 189.813 321.029 189.842 320.981 189.832L314.704 188.435L290.995 188.435L300.985 190.936L321 190.936C321.049 190.936 321.087 190.974 321.087 191.023C321.087 191.072 321.049 191.111 321 191.111L301.684 191.111L312.908 193.921L321 193.921C321.049 193.921 321.087 193.959 321.087 194.008C321.087 194.057 321.049 194.096 321 194.096L313.607 194.096L321.021 195.952C321.061 195.962 321.088 195.997 321.088 196.036C321.088 196.043 321.087 196.051 321.085 196.058C321.073 196.106 321.026 196.134 320.979 196.122L312.887 194.096L286.26 194.096L297.359 197.272L321 197.272C321.049 197.272 321.087 197.311 321.087 197.36C321.087 197.409 321.049 197.447 321 197.447L297.971 197.447L310.604 201.062L321 201.062C321.049 201.062 321.087 201.101 321.087 201.15C321.087 201.199 321.049 201.238 321 201.238L311.216 201.238L321.024 204.044C321.063 204.056 321.088 204.09 321.088 204.128C321.088 204.136 321.087 204.144 321.084 204.153C321.071 204.2 321.023 204.226 320.976 204.213L310.579 201.238L280.308 201.238L292.732 205.385L321 205.385C321.049 205.385 321.087 205.424 321.087 205.473C321.087 205.522 321.049 205.561 321 205.561L293.256 205.561L307.625 210.358L321 210.358C321.049 210.358 321.087 210.396 321.087 210.446C321.087 210.494 321.049 210.533 321 210.533L308.149 210.533L321.028 214.833C321.065 214.845 321.088 214.878 321.088 214.915C321.088 214.924 321.086 214.934 321.083 214.943C321.067 214.99 321.019 215.014 320.972 214.999L307.597 210.533L272.604 210.533L286.599 216.14L321 216.14C321.049 216.14 321.087 216.178 321.087 216.227C321.087 216.276 321.049 216.315 321 216.315L287.036 216.315L303.586 222.946L321 222.946C321.049 222.946 321.087 222.984 321.087 223.033C321.087 223.082 321.049 223.121 321 223.121L304.023 223.121L321.033 229.935C321.067 229.949 321.088 229.981 321.088 230.016C321.088 230.027 321.086 230.038 321.081 230.049C321.063 230.095 321.013 230.116 320.967 230.098L303.552 223.121L262.187 223.121L278.071 231.076L321 231.076C321.049 231.076 321.087 231.115 321.087 231.164C321.087 231.213 321.049 231.251 321 231.251L278.42 231.251L297.803 240.96L321 240.96C321.049 240.96 321.087 240.998 321.087 241.047C321.087 241.096 321.049 241.135 321 241.135L298.152 241.135L321.039 252.598C321.07 252.614 321.088 252.644 321.088 252.676C321.088 252.689 321.085 252.703 321.078 252.716C321.056 252.759 321.005 252.777 320.961 252.755L297.761 241.135L247.325 241.135L265.433 253.229L321 253.229C321.049 253.229 321.087 253.268 321.087 253.317C321.087 253.366 321.049 253.405 321 253.405L265.695 253.405L288.847 268.868L321 268.868C321.049 268.868 321.087 268.906 321.087 268.956C321.087 269.005 321.049 269.043 321 269.043L289.109 269.043L319.712 289.484L321 289.484C321.049 289.484 321.087 289.522 321.087 289.571C321.087 289.62 321.049 289.659 321 289.659L319.975 289.659L321.049 290.376C321.074 290.393 321.088 290.42 321.088 290.448C321.088 290.465 321.083 290.482 321.073 290.498C321.045 290.538 320.992 290.549 320.951 290.522L319.659 289.659L244.922 289.659L273.108 317.905L321 317.905C321.049 317.905 321.087 317.944 321.087 317.993C321.087 318.042 321.049 318.08 321 318.08L273.282 318.08L320.572 365.471L320.577 365.476C320.587 365.487 320.595 365.499 320.599 365.514C320.601 365.522 320.602 365.53 320.602 365.538C320.602 365.543 320.602 365.547 320.601 365.552C320.595 365.591 320.565 365.621 320.525 365.625C320.522 365.626 320.518 365.626 320.515 365.626L320.511 365.626L-131.125 365.626L-131.128 365.626C-131.134 365.626 -131.14 365.625 -131.146 365.624C-131.172 365.619 -131.194 365.602 -131.206 365.579C-131.213 365.566 -131.216 365.552 -131.216 365.538C-131.216 365.516 -131.208 365.494 -131.19 365.476L-83.8151 318.08L-131.224 318.08C-131.273 318.08 -131.312 318.042 -131.312 317.993C-131.312 317.944 -131.273 317.905 -131.224 317.905L-83.6401 317.905L-55.406 289.659L-130.143 289.659L-131.176 290.348C-131.217 290.375 -131.27 290.365 -131.297 290.324C-131.308 290.309 -131.313 290.292 -131.313 290.275C-131.313 290.247 -131.299 290.219 -131.273 290.202L-131.273 290.202L-130.458 289.659L-131.224 289.659C-131.273 289.659 -131.312 289.62 -131.312 289.571C-131.312 289.522 -131.273 289.484 -131.224 289.484L-130.196 289.484L-99.5573 269.043L-131.224 269.043C-131.273 269.043 -131.312 269.005 -131.312 268.956C-131.312 268.907 -131.273 268.868 -131.224 268.868L-99.2949 268.868L-76.1161 253.405L-131.224 253.405C-131.273 253.405 -131.312 253.366 -131.312 253.317C-131.312 253.268 -131.273 253.229 -131.224 253.229L-75.8537 253.229L-57.7249 241.135L-108.161 241.135L-131.185 252.657C-131.229 252.678 -131.281 252.661 -131.302 252.617C-131.309 252.605 -131.312 252.591 -131.312 252.578C-131.312 252.546 -131.294 252.516 -131.263 252.5L-131.263 252.5L-108.553 241.135L-131.224 241.135C-131.273 241.135 -131.312 241.096 -131.312 241.047C-131.312 240.998 -131.273 240.96 -131.224 240.96L-108.203 240.96L-88.8032 231.251L-131.224 231.251C-131.273 231.251 -131.312 231.213 -131.312 231.164C-131.312 231.115 -131.273 231.076 -131.224 231.076L-88.4533 231.076L-72.5555 223.121L-113.918 223.121L-131.192 230.037C-131.237 230.055 -131.287 230.034 -131.305 229.988C-131.31 229.977 -131.312 229.966 -131.312 229.955C-131.312 229.92 -131.291 229.888 -131.257 229.875L-114.389 223.121L-131.224 223.121C-131.273 223.121 -131.312 223.082 -131.312 223.033C-131.312 222.984 -131.273 222.946 -131.224 222.946L-113.951 222.946L-97.3903 216.315L-131.224 216.315C-131.273 216.315 -131.312 216.276 -131.312 216.227C-131.312 216.178 -131.273 216.14 -131.224 216.14L-96.9531 216.14L-82.95 210.533L-117.946 210.533L-131.197 214.955C-131.244 214.97 -131.292 214.946 -131.308 214.899C-131.311 214.89 -131.312 214.88 -131.312 214.871C-131.312 214.834 -131.29 214.801 -131.253 214.789L-118.499 210.533L-131.224 210.533C-131.273 210.533 -131.312 210.495 -131.312 210.446C-131.312 210.396 -131.273 210.358 -131.224 210.358L-117.974 210.358L-103.596 205.561L-131.224 205.561C-131.273 205.561 -131.312 205.522 -131.312 205.473C-131.312 205.424 -131.273 205.385 -131.224 205.385L-103.072 205.385L-90.6404 201.238L-120.913 201.238L-131.201 204.18C-131.248 204.193 -131.295 204.167 -131.309 204.12C-131.311 204.112 -131.312 204.103 -131.312 204.095C-131.312 204.057 -131.288 204.023 -131.249 204.011L-121.55 201.238L-131.224 201.238C-131.273 201.238 -131.312 201.199 -131.312 201.15C-131.312 201.101 -131.273 201.062 -131.224 201.062L-120.938 201.062L-108.298 197.447L-131.224 197.447C-131.273 197.447 -131.312 197.409 -131.312 197.36C-131.312 197.311 -131.273 197.272 -131.224 197.272L-107.685 197.272L-96.58 194.096L-123.204 194.096L-131.204 196.098C-131.251 196.11 -131.298 196.082 -131.31 196.034C-131.312 196.027 -131.313 196.02 -131.313 196.012C-131.313 195.973 -131.286 195.938 -131.246 195.928L-123.925 194.096L-131.224 194.096C-131.273 194.096 -131.312 194.057 -131.312 194.008C-131.312 193.959 -131.273 193.921 -131.224 193.921L-123.225 193.921L-111.997 191.111L-131.224 191.111C-131.273 191.111 -131.312 191.072 -131.312 191.023C-131.312 190.974 -131.273 190.936 -131.224 190.936L-111.297 190.936L-101.304 188.435L-125.012 188.435L-131.206 189.813C-131.254 189.823 -131.3 189.794 -131.31 189.746C-131.312 189.74 -131.313 189.733 -131.313 189.727C-131.313 189.686 -131.285 189.651 -131.244 189.642L-125.819 188.435L-131.224 188.435C-131.273 188.435 -131.312 188.396 -131.312 188.347C-131.312 188.298 -131.273 188.26 -131.224 188.26L-125.032 188.26L-114.974 186.022L-131.224 186.022C-131.273 186.022 -131.312 185.984 -131.312 185.935C-131.312 185.885 -131.273 185.847 -131.224 185.847L-114.181 185.847C-114.179 185.847 -114.176 185.847 -114.173 185.847L-90.9562 185.847C-90.9531 185.847 -90.9501 185.847 -90.9472 185.847L-67.7309 185.847C-67.7276 185.847 -67.7244 185.847 -67.7211 185.847L-44.506 185.847C-44.5023 185.847 -44.4986 185.847 -44.4949 185.847L-21.2831 185.847C-21.2791 185.847 -21.2751 185.847 -21.2711 185.847L1.94165 185.847C1.94617 185.847 1.95062 185.847 1.95508 185.847L25.1665 185.847C25.1715 185.847 25.1765 185.847 25.1813 185.847L48.3888 185.847C48.394 185.846 48.3993 185.846 48.4045 185.847L71.615 185.847C71.6194 185.847 71.6239 185.847 71.6284 185.847L118.067 185.847C118.072 185.847 118.076 185.847 118.081 185.847L141.289 185.847ZM141.508 186.022L143.741 188.26L167.846 188.26L164.496 186.022L141.508 186.022ZM143.915 188.435L146.411 190.936L171.853 190.936L168.108 188.435L143.915 188.435ZM146.586 191.111L149.39 193.921L176.322 193.921L172.115 191.111L146.586 191.111ZM149.564 194.096L152.734 197.272L181.339 197.272L176.584 194.096L149.564 194.096ZM152.908 197.447L156.516 201.062L187.014 201.062L181.601 197.447L152.908 197.447ZM156.691 201.238L160.83 205.385L193.487 205.385L187.276 201.238L156.691 201.238ZM161.004 205.561L165.792 210.358L200.931 210.358L193.749 205.561L161.004 205.561ZM165.966 210.533L171.561 216.14L209.588 216.14L201.193 210.533L165.966 210.533ZM171.735 216.315L178.352 222.946L219.777 222.946L209.85 216.315L171.735 216.315ZM178.527 223.121L186.465 231.076L231.951 231.076L220.039 223.121L178.527 223.121ZM186.64 231.251L196.328 240.96L246.748 240.96L232.213 231.251L186.64 231.251ZM196.502 241.135L208.571 253.229L265.118 253.229L247.01 241.135L196.502 241.135ZM208.745 253.405L224.176 268.868L288.532 268.868L265.38 253.405L208.745 253.405ZM224.351 269.043L244.747 289.484L319.397 289.484L288.794 269.043L224.351 269.043ZM320.304 365.451L273.035 318.08L184.045 318.08L207.659 365.451L320.304 365.451ZM272.86 317.905L244.675 289.659L169.877 289.659L183.958 317.905L272.86 317.905ZM244.5 289.484L224.103 269.043L159.6 269.043L169.79 289.484L244.5 289.484ZM223.929 268.868L208.498 253.405L151.805 253.405L159.513 268.868L223.929 268.868ZM208.324 253.229L196.255 241.135L145.688 241.135L151.717 253.229L208.324 253.229ZM196.08 240.96L186.393 231.251L140.761 231.251L145.601 240.96L196.08 240.96ZM186.218 231.076L178.279 223.121L136.708 223.121L140.674 231.076L186.218 231.076ZM178.105 222.946L171.488 216.315L133.316 216.315L136.621 222.946L178.105 222.946ZM171.313 216.14L165.719 210.533L130.433 210.533L133.228 216.14L171.313 216.14ZM165.544 210.358L160.757 205.561L127.955 205.561L130.346 210.358L165.544 210.358ZM160.582 205.385L156.443 201.238L125.8 201.238L127.867 205.385L160.582 205.385ZM156.269 201.062L152.661 197.447L123.91 197.447L125.712 201.062L156.269 201.062ZM152.486 197.272L149.317 194.096L122.24 194.096L123.823 197.272L152.486 197.272ZM149.142 193.921L146.338 191.111L120.752 191.111L122.152 193.921L149.142 193.921ZM146.164 190.936L143.668 188.435L119.418 188.435L120.664 190.936L146.164 190.936ZM143.493 188.26L141.261 186.022L118.215 186.022L119.33 188.26L143.493 188.26ZM48.4329 186.022L46.1963 188.26L70.3613 188.26L71.4806 186.022L48.4329 186.022ZM46.0213 188.435L43.5215 190.936L69.0227 190.936L70.2737 188.435L46.0213 188.435ZM43.3465 191.111L40.5377 193.921L67.5295 193.921L68.9352 191.111L43.3465 191.111ZM40.3627 194.096L37.1878 197.272L65.8531 197.272L67.442 194.096L40.3627 194.096ZM37.0128 197.447L33.3991 201.062L63.9572 201.062L65.7656 197.447L37.0128 197.447ZM33.2241 201.238L29.0779 205.385L61.7947 205.385L63.8696 201.238L33.2241 201.238ZM28.903 205.561L24.1077 210.358L59.3074 210.358L61.7071 205.561L28.903 205.561ZM23.9327 210.533L18.3285 216.14L56.4153 216.14L59.2198 210.533L23.9327 210.533ZM18.1535 216.315L11.5256 222.946L53.0109 222.946L56.3277 216.315L18.1535 216.315ZM11.3506 223.121L3.39825 231.076L48.9437 231.076L52.9233 223.121L11.3506 223.121ZM3.22327 231.251L-6.48071 240.96L43.9999 240.96L48.8561 231.251L3.22327 231.251ZM-6.6557 241.135L-18.745 253.229L37.8624 253.229L43.9123 241.135L-6.6557 241.135ZM-18.92 253.405L-34.3769 268.868L30.0397 268.868L37.7748 253.405L-18.92 253.405ZM-34.5519 269.043L-54.9835 289.484L19.7274 289.484L29.9521 269.043L-34.5519 269.043ZM-55.1584 289.659L-83.3925 317.905L5.5105 317.905L19.6398 289.659L-55.1584 289.659ZM-83.5675 318.08L-130.917 365.451L-18.2726 365.451L5.42291 318.08L-83.5675 318.08ZM-55.231 289.484L-34.7994 269.043L-99.2418 269.043L-129.88 289.484L-55.231 289.484ZM-34.6244 268.868L-19.1675 253.405L-75.8007 253.405L-98.9794 268.868L-34.6244 268.868ZM-18.9926 253.229L-6.9032 241.135L-57.4094 241.135L-75.5382 253.229L-18.9926 253.229ZM-6.72827 240.96L2.97571 231.251L-42.5952 231.251L-57.147 240.96L-6.72827 240.96ZM3.15076 231.076L11.103 223.121L-30.4077 223.121L-42.3328 231.076L3.15076 231.076ZM11.278 222.946L17.906 216.315L-20.2062 216.315L-30.1453 222.946L11.278 222.946ZM18.0809 216.14L23.6852 210.533L-11.5398 210.533L-19.9438 216.14L18.0809 216.14ZM23.8602 210.358L28.6555 205.561L-4.08655 205.561L-11.2774 210.358L23.8602 210.358ZM28.8304 205.385L32.9766 201.238L2.39337 201.238L-3.82416 205.385L28.8304 205.385ZM33.1516 201.062L36.7653 197.447L8.07477 197.447L2.65576 201.062L33.1516 201.062ZM36.9403 197.272L40.1152 194.096L13.0981 194.096L8.33716 197.272L36.9403 197.272ZM40.2902 193.921L43.099 191.111L17.5726 191.111L13.3606 193.921L40.2902 193.921ZM43.2739 190.936L45.7738 188.435L21.5837 188.435L17.835 190.936L43.2739 190.936ZM45.9488 188.26L48.1854 186.022L25.2001 186.022L21.8461 188.26L45.9488 188.26ZM164.811 186.022L168.161 188.26L192.195 188.26L187.727 186.022L164.811 186.022ZM168.423 188.435L172.168 190.936L197.538 190.936L192.544 188.435L168.423 188.435ZM172.43 191.111L176.637 193.921L203.497 193.921L197.887 191.111L172.43 191.111ZM176.899 194.096L181.655 197.272L210.188 197.272L203.847 194.096L176.899 194.096ZM181.917 197.447L187.329 201.062L217.756 201.062L210.538 197.447L181.917 197.447ZM187.592 201.238L193.802 205.385L226.387 205.385L218.105 201.238L187.592 201.238ZM194.064 205.561L201.246 210.358L236.315 210.358L226.737 205.561L194.064 205.561ZM201.509 210.533L209.903 216.14L247.858 216.14L236.664 210.533L201.509 210.533ZM210.165 216.315L220.093 222.946L261.446 222.946L248.207 216.315L210.165 216.315ZM220.355 223.121L232.266 231.076L277.68 231.076L261.796 223.121L220.355 223.121ZM232.528 231.251L247.063 240.96L297.412 240.96L278.029 231.251L232.528 231.251ZM-57.4625 240.96L-42.9106 231.251L-88.412 231.251L-107.812 240.96L-57.4625 240.96ZM-42.6482 231.076L-30.7231 223.121L-72.1644 223.121L-88.0621 231.076L-42.6482 231.076ZM-30.4608 222.946L-20.5216 216.315L-58.5643 216.315L-71.8146 222.946L-30.4608 222.946ZM-20.2592 216.14L-11.8553 210.533L-47.0109 210.533L-58.2145 216.14L-20.2592 216.14ZM-11.5929 210.358L-4.40204 205.561L-37.0747 205.561L-46.6611 210.358L-11.5929 210.358ZM-4.13959 205.385L2.07788 201.238L-28.436 201.238L-36.7249 205.385L-4.13959 205.385ZM2.34033 201.062L7.75934 197.447L-20.8619 197.447L-28.0862 201.062L2.34033 201.062ZM8.02173 197.272L12.7827 194.096L-14.165 194.096L-20.5121 197.272L8.02173 197.272ZM13.0451 193.921L17.2571 191.111L-8.20007 191.111L-13.8152 193.921L13.0451 193.921ZM17.5195 190.936L21.2682 188.435L-2.85272 188.435L-7.85022 190.936L17.5195 190.936ZM21.5306 188.26L24.8846 186.022L1.96844 186.022L-2.50287 188.26L21.5306 188.26ZM188.118 186.022L192.586 188.26L216.54 188.26L210.955 186.022L188.118 186.022ZM192.935 188.435L197.928 190.936L223.219 190.936L216.977 188.435L192.935 188.435ZM198.278 191.111L203.888 193.921L230.67 193.921L223.656 191.111L198.278 191.111ZM204.238 194.096L210.579 197.272L239.035 197.272L231.107 194.096L204.238 194.096ZM210.929 197.447L218.147 201.062L248.495 201.062L239.472 197.447L210.929 197.447ZM218.496 201.238L226.778 205.385L259.286 205.385L248.932 201.238L218.496 201.238ZM227.127 205.561L236.706 210.358L271.697 210.358L259.723 205.561L227.127 205.561ZM237.055 210.533L248.249 216.14L286.128 216.14L272.134 210.533L237.055 210.533ZM248.598 216.315L261.837 222.946L303.115 222.946L286.565 216.315L248.598 216.315ZM-72.2057 222.946L-58.9556 216.315L-96.9193 216.315L-113.48 222.946L-72.2057 222.946ZM-58.6057 216.14L-47.4021 210.533L-82.4789 210.533L-96.4821 216.14L-58.6057 216.14ZM-47.0522 210.358L-37.4659 205.561L-70.0599 205.561L-82.0417 210.358L-47.0522 210.358ZM-37.116 205.385L-28.8273 201.238L-59.2628 201.238L-69.6227 205.385L-37.116 205.385ZM-28.4774 201.062L-21.2531 197.447L-49.796 197.447L-58.8255 201.062L-28.4774 201.062ZM-20.9033 197.272L-14.5563 194.096L-41.4258 194.096L-49.3588 197.272L-20.9033 197.272ZM-14.2064 193.921L-8.59125 191.111L-33.9703 191.111L-40.9885 193.921L-14.2064 193.921ZM-8.24139 190.936L-3.2439 188.435L-27.2867 188.435L-33.533 190.936L-8.24139 190.936ZM-2.89404 188.26L1.57727 186.022L-21.2609 186.022L-26.8495 188.26L-2.89404 188.26ZM207.463 365.451L183.849 318.08L94.8209 318.08L94.78 365.451L207.463 365.451ZM183.762 317.905L169.681 289.659L94.8456 289.659L94.8211 317.905L183.762 317.905ZM169.594 289.484L159.405 269.043L94.8634 269.043L94.8457 289.484L169.594 289.484ZM159.317 268.868L151.609 253.405L94.877 253.405L94.8635 268.868L159.317 268.868ZM151.522 253.229L145.493 241.135L94.8876 241.135L94.8771 253.229L151.522 253.229ZM145.405 240.96L140.566 231.251L94.8961 231.251L94.8877 240.96L145.405 240.96ZM140.479 231.076L136.513 223.121L94.9031 223.121L94.8962 231.076L140.479 231.076ZM136.425 222.946L133.12 216.315L94.9091 216.315L94.9033 222.946L136.425 222.946ZM133.033 216.14L130.238 210.533L94.9141 210.533L94.9092 216.14L133.033 216.14ZM130.151 210.358L127.759 205.561L94.9183 205.561L94.9142 210.358L130.151 210.358ZM127.672 205.385L125.604 201.238L94.9221 201.238L94.9185 205.385L127.672 205.385ZM125.517 201.062L123.715 197.447L94.9254 197.447L94.9222 201.062L125.517 201.062ZM123.627 197.272L122.044 194.096L94.9283 194.096L94.9255 197.272L123.627 197.272ZM121.957 193.921L120.556 191.111L94.9308 191.111L94.9284 193.921L121.957 193.921ZM120.469 190.936L119.222 188.435L94.9332 188.435L94.931 190.936L120.469 190.936ZM119.135 188.26L118.019 186.022L94.9352 186.022L94.9333 188.26L119.135 188.26ZM71.6763 186.022L70.5571 188.26L94.7582 188.26L94.7602 186.022L71.6763 186.022ZM70.4695 188.435L69.2185 190.936L94.7559 190.936L94.7581 188.435L70.4695 188.435ZM69.1309 191.111L67.7253 193.921L94.7534 193.921L94.7557 191.111L69.1309 191.111ZM67.6377 194.096L66.0489 197.272L94.7504 197.272L94.7532 194.096L67.6377 194.096ZM65.9613 197.447L64.1529 201.062L94.7472 201.062L94.7503 197.447L65.9613 197.447ZM64.0653 201.238L61.9904 205.385L94.7434 205.385L94.747 201.238L64.0653 201.238ZM61.9028 205.561L59.5032 210.358L94.7391 210.358L94.7433 205.561L61.9028 205.561ZM59.4156 210.533L56.611 216.14L94.7341 216.14L94.739 210.533L59.4156 210.533ZM56.5234 216.315L53.2066 222.946L94.7282 222.946L94.7339 216.315L56.5234 216.315ZM53.119 223.121L49.1394 231.076L94.7212 231.076L94.7281 223.121L53.119 223.121ZM49.0518 231.251L44.1956 240.96L94.7126 240.96L94.721 231.251L49.0518 231.251ZM44.108 241.135L38.0581 253.229L94.702 253.229L94.7125 241.135L44.108 241.135ZM37.9706 253.405L30.2354 268.868L94.6885 268.868L94.7018 253.405L37.9706 253.405ZM30.1478 269.043L19.9232 289.484L94.6707 289.484L94.6884 269.043L30.1478 269.043ZM19.8356 289.659L5.70624 317.905L94.646 317.905L94.6705 289.659L19.8356 289.659ZM5.61865 318.08L-18.0768 365.451L94.6049 365.451L94.6459 318.08L5.61865 318.08ZM211.426 186.022L217.011 188.26L240.885 188.26L234.183 186.022L211.426 186.022ZM217.447 188.435L223.69 190.936L248.9 190.936L241.409 188.435L217.447 188.435ZM224.127 191.111L231.141 193.921L257.841 193.921L249.424 191.111L224.127 191.111ZM231.577 194.096L239.505 197.272L267.878 197.272L258.365 194.096L231.577 194.096ZM239.942 197.447L248.966 201.062L279.231 201.062L268.403 197.447L239.942 197.447ZM249.403 201.238L259.756 205.385L292.179 205.385L279.755 201.238L249.403 201.238ZM260.193 205.561L272.168 210.358L307.072 210.358L292.704 205.561L260.193 205.561ZM-82.5127 210.358L-70.5309 205.561L-103.043 205.561L-117.421 210.358L-82.5127 210.358ZM-70.0937 205.385L-59.7338 201.238L-90.0873 201.238L-102.519 205.385L-70.0937 205.385ZM-59.2965 201.062L-50.267 197.447L-78.7277 197.447L-89.5626 201.062L-59.2965 201.062ZM-49.8298 197.272L-41.8968 194.096L-68.6838 194.096L-78.203 197.272L-49.8298 197.272ZM-41.4595 193.921L-34.4413 191.111L-59.7375 191.111L-68.1591 193.921L-41.4595 193.921ZM-34.004 190.936L-27.7578 188.435L-51.7177 188.435L-59.2129 190.936L-34.004 190.936ZM-27.3205 188.26L-21.7319 186.022L-44.4869 186.022L-51.193 188.26L-27.3205 188.26ZM-90.1157 201.062L-79.2808 197.447L-107.661 197.447L-120.301 201.062L-90.1157 201.062ZM-78.7561 197.272L-69.2369 194.096L-95.9434 194.096L-107.049 197.272L-78.7561 197.272ZM-68.7123 193.921L-60.2906 191.111L-85.5063 191.111L-95.3312 193.921L-68.7123 193.921ZM-59.766 190.936L-52.2708 188.435L-76.1501 188.435L-84.8942 190.936L-59.766 190.936ZM-51.7461 188.26L-45.04 186.022L-67.7145 186.022L-75.538 188.26L-51.7461 188.26ZM234.736 186.022L241.438 188.26L265.23 188.26L257.41 186.022L234.736 186.022ZM241.962 188.435L249.453 190.936L274.581 190.936L265.841 188.435L241.962 188.435ZM249.977 191.111L258.393 193.921L285.012 193.921L275.192 191.111L249.977 191.111ZM258.918 194.096L268.431 197.272L296.723 197.272L285.623 194.096L258.918 194.096ZM268.956 197.447L279.784 201.062L309.968 201.062L297.334 197.447L268.956 197.447ZM258.047 186.022L265.866 188.26L289.575 188.26L280.638 186.022L258.047 186.022ZM266.478 188.435L275.217 190.936L300.264 190.936L290.274 188.435L266.478 188.435ZM275.829 191.111L285.648 193.921L312.187 193.921L300.963 191.111L275.829 191.111ZM-95.9679 193.921L-86.143 191.111L-111.275 191.111L-122.504 193.921L-95.9679 193.921ZM-85.5309 190.936L-76.7867 188.435L-100.582 188.435L-110.576 190.936L-85.5309 190.936ZM-76.1746 188.26L-68.3511 186.022L-90.9416 186.022L-99.8829 188.26L-76.1746 188.26ZM281.358 186.022L290.296 188.26L313.917 188.26L303.862 186.022L281.358 186.022ZM-100.604 188.26L-91.6627 186.022L-114.168 186.022L-124.226 188.26L-100.604 188.26Z" clip-rule="evenodd" fill="url(#paint_linear_33_2454_0)" fill-opacity="0.700000" fill-rule="evenodd"/>
		<path id="Union" d="M141.289 185.847C141.294 185.846 141.3 185.846 141.305 185.847L164.515 185.847C164.52 185.847 164.525 185.847 164.53 185.847L187.741 185.847C187.745 185.847 187.75 185.847 187.754 185.847L210.965 185.847C210.969 185.847 210.973 185.847 210.977 185.847L234.191 185.847C234.195 185.847 234.198 185.847 234.202 185.847L257.417 185.847C257.42 185.847 257.424 185.847 257.427 185.847L280.643 185.847C280.646 185.847 280.649 185.847 280.652 185.847L303.867 185.847C303.869 185.847 303.872 185.847 303.875 185.847L321 185.847C321.049 185.847 321.087 185.885 321.087 185.935C321.087 185.984 321.049 186.022 321 186.022L321 186.022L304.668 186.022L314.723 188.26L321 188.26C321.049 188.26 321.087 188.298 321.087 188.347C321.087 188.396 321.049 188.435 321 188.435L315.509 188.435L321.019 189.661C321.06 189.67 321.087 189.705 321.087 189.746C321.087 189.752 321.087 189.759 321.085 189.765C321.074 189.813 321.029 189.842 320.981 189.832L314.704 188.435L290.995 188.435L300.985 190.936L321 190.936C321.049 190.936 321.087 190.974 321.087 191.023C321.087 191.072 321.049 191.111 321 191.111L301.684 191.111L312.908 193.921L321 193.921C321.049 193.921 321.087 193.959 321.087 194.008C321.087 194.057 321.049 194.096 321 194.096L313.607 194.096L321.021 195.952C321.061 195.962 321.088 195.997 321.088 196.036C321.088 196.043 321.087 196.051 321.085 196.058C321.073 196.106 321.026 196.134 320.979 196.122L312.887 194.096L286.26 194.096L297.359 197.272L321 197.272C321.049 197.272 321.087 197.311 321.087 197.36C321.087 197.409 321.049 197.447 321 197.447L297.971 197.447L310.604 201.062L321 201.062C321.049 201.062 321.087 201.101 321.087 201.15C321.087 201.199 321.049 201.238 321 201.238L311.216 201.238L321.024 204.044C321.063 204.056 321.088 204.09 321.088 204.128C321.088 204.136 321.087 204.144 321.084 204.153C321.071 204.2 321.023 204.226 320.976 204.213L310.579 201.238L280.308 201.238L292.732 205.385L321 205.385C321.049 205.385 321.087 205.424 321.087 205.473C321.087 205.522 321.049 205.561 321 205.561L293.256 205.561L307.625 210.358L321 210.358C321.049 210.358 321.087 210.396 321.087 210.446C321.087 210.494 321.049 210.533 321 210.533L308.149 210.533L321.028 214.833C321.065 214.845 321.088 214.878 321.088 214.915C321.088 214.924 321.086 214.934 321.083 214.943C321.067 214.99 321.019 215.014 320.972 214.999L307.597 210.533L272.604 210.533L286.599 216.14L321 216.14C321.049 216.14 321.087 216.178 321.087 216.227C321.087 216.276 321.049 216.315 321 216.315L287.036 216.315L303.586 222.946L321 222.946C321.049 222.946 321.087 222.984 321.087 223.033C321.087 223.082 321.049 223.121 321 223.121L304.023 223.121L321.033 229.935C321.067 229.949 321.088 229.981 321.088 230.016C321.088 230.027 321.086 230.038 321.081 230.049C321.063 230.095 321.013 230.116 320.967 230.098L303.552 223.121L262.187 223.121L278.071 231.076L321 231.076C321.049 231.076 321.087 231.115 321.087 231.164C321.087 231.213 321.049 231.251 321 231.251L278.42 231.251L297.803 240.96L321 240.96C321.049 240.96 321.087 240.998 321.087 241.047C321.087 241.096 321.049 241.135 321 241.135L298.152 241.135L321.039 252.598C321.07 252.614 321.088 252.644 321.088 252.676C321.088 252.689 321.085 252.703 321.078 252.716C321.056 252.759 321.005 252.777 320.961 252.755L297.761 241.135L247.325 241.135L265.433 253.229L321 253.229C321.049 253.229 321.087 253.268 321.087 253.317C321.087 253.366 321.049 253.405 321 253.405L265.695 253.405L288.847 268.868L321 268.868C321.049 268.868 321.087 268.906 321.087 268.956C321.087 269.005 321.049 269.043 321 269.043L289.109 269.043L319.712 289.484L321 289.484C321.049 289.484 321.087 289.522 321.087 289.571C321.087 289.62 321.049 289.659 321 289.659L319.975 289.659L321.049 290.376C321.074 290.393 321.088 290.42 321.088 290.448C321.088 290.465 321.083 290.482 321.073 290.498C321.045 290.538 320.992 290.549 320.951 290.522L319.659 289.659L244.922 289.659L273.108 317.905L321 317.905C321.049 317.905 321.087 317.944 321.087 317.993C321.087 318.042 321.049 318.08 321 318.08L273.282 318.08L320.572 365.471L320.577 365.476C320.587 365.487 320.595 365.499 320.599 365.514C320.601 365.522 320.602 365.53 320.602 365.538C320.602 365.543 320.602 365.547 320.601 365.552C320.595 365.591 320.565 365.621 320.525 365.625C320.522 365.626 320.518 365.626 320.515 365.626L320.511 365.626L-131.125 365.626L-131.128 365.626C-131.134 365.626 -131.14 365.625 -131.146 365.624C-131.172 365.619 -131.194 365.602 -131.206 365.579C-131.213 365.566 -131.216 365.552 -131.216 365.538C-131.216 365.516 -131.208 365.494 -131.19 365.476L-83.8151 318.08L-131.224 318.08C-131.273 318.08 -131.312 318.042 -131.312 317.993C-131.312 317.944 -131.273 317.905 -131.224 317.905L-83.6401 317.905L-55.406 289.659L-130.143 289.659L-131.176 290.348C-131.217 290.375 -131.27 290.365 -131.297 290.324C-131.308 290.309 -131.313 290.292 -131.313 290.275C-131.313 290.247 -131.299 290.219 -131.273 290.202L-131.273 290.202L-130.458 289.659L-131.224 289.659C-131.273 289.659 -131.312 289.62 -131.312 289.571C-131.312 289.522 -131.273 289.484 -131.224 289.484L-130.196 289.484L-99.5573 269.043L-131.224 269.043C-131.273 269.043 -131.312 269.005 -131.312 268.956C-131.312 268.907 -131.273 268.868 -131.224 268.868L-99.2949 268.868L-76.1161 253.405L-131.224 253.405C-131.273 253.405 -131.312 253.366 -131.312 253.317C-131.312 253.268 -131.273 253.229 -131.224 253.229L-75.8537 253.229L-57.7249 241.135L-108.161 241.135L-131.185 252.657C-131.229 252.678 -131.281 252.661 -131.302 252.617C-131.309 252.605 -131.312 252.591 -131.312 252.578C-131.312 252.546 -131.294 252.516 -131.263 252.5L-131.263 252.5L-108.553 241.135L-131.224 241.135C-131.273 241.135 -131.312 241.096 -131.312 241.047C-131.312 240.998 -131.273 240.96 -131.224 240.96L-108.203 240.96L-88.8032 231.251L-131.224 231.251C-131.273 231.251 -131.312 231.213 -131.312 231.164C-131.312 231.115 -131.273 231.076 -131.224 231.076L-88.4533 231.076L-72.5555 223.121L-113.918 223.121L-131.192 230.037C-131.237 230.055 -131.287 230.034 -131.305 229.988C-131.31 229.977 -131.312 229.966 -131.312 229.955C-131.312 229.92 -131.291 229.888 -131.257 229.875L-114.389 223.121L-131.224 223.121C-131.273 223.121 -131.312 223.082 -131.312 223.033C-131.312 222.984 -131.273 222.946 -131.224 222.946L-113.951 222.946L-97.3903 216.315L-131.224 216.315C-131.273 216.315 -131.312 216.276 -131.312 216.227C-131.312 216.178 -131.273 216.14 -131.224 216.14L-96.9531 216.14L-82.95 210.533L-117.946 210.533L-131.197 214.955C-131.244 214.97 -131.292 214.946 -131.308 214.899C-131.311 214.89 -131.312 214.88 -131.312 214.871C-131.312 214.834 -131.29 214.801 -131.253 214.789L-118.499 210.533L-131.224 210.533C-131.273 210.533 -131.312 210.495 -131.312 210.446C-131.312 210.396 -131.273 210.358 -131.224 210.358L-117.974 210.358L-103.596 205.561L-131.224 205.561C-131.273 205.561 -131.312 205.522 -131.312 205.473C-131.312 205.424 -131.273 205.385 -131.224 205.385L-103.072 205.385L-90.6404 201.238L-120.913 201.238L-131.201 204.18C-131.248 204.193 -131.295 204.167 -131.309 204.12C-131.311 204.112 -131.312 204.103 -131.312 204.095C-131.312 204.057 -131.288 204.023 -131.249 204.011L-121.55 201.238L-131.224 201.238C-131.273 201.238 -131.312 201.199 -131.312 201.15C-131.312 201.101 -131.273 201.062 -131.224 201.062L-120.938 201.062L-108.298 197.447L-131.224 197.447C-131.273 197.447 -131.312 197.409 -131.312 197.36C-131.312 197.311 -131.273 197.272 -131.224 197.272L-107.685 197.272L-96.58 194.096L-123.204 194.096L-131.204 196.098C-131.251 196.11 -131.298 196.082 -131.31 196.034C-131.312 196.027 -131.313 196.02 -131.313 196.012C-131.313 195.973 -131.286 195.938 -131.246 195.928L-123.925 194.096L-131.224 194.096C-131.273 194.096 -131.312 194.057 -131.312 194.008C-131.312 193.959 -131.273 193.921 -131.224 193.921L-123.225 193.921L-111.997 191.111L-131.224 191.111C-131.273 191.111 -131.312 191.072 -131.312 191.023C-131.312 190.974 -131.273 190.936 -131.224 190.936L-111.297 190.936L-101.304 188.435L-125.012 188.435L-131.206 189.813C-131.254 189.823 -131.3 189.794 -131.31 189.746C-131.312 189.74 -131.313 189.733 -131.313 189.727C-131.313 189.686 -131.285 189.651 -131.244 189.642L-125.819 188.435L-131.224 188.435C-131.273 188.435 -131.312 188.396 -131.312 188.347C-131.312 188.298 -131.273 188.26 -131.224 188.26L-125.032 188.26L-114.974 186.022L-131.224 186.022C-131.273 186.022 -131.312 185.984 -131.312 185.935C-131.312 185.885 -131.273 185.847 -131.224 185.847L-114.181 185.847C-114.179 185.847 -114.176 185.847 -114.173 185.847L-90.9562 185.847C-90.9531 185.847 -90.9501 185.847 -90.9472 185.847L-67.7309 185.847C-67.7276 185.847 -67.7244 185.847 -67.7211 185.847L-44.506 185.847C-44.5023 185.847 -44.4986 185.847 -44.4949 185.847L-21.2831 185.847C-21.2791 185.847 -21.2751 185.847 -21.2711 185.847L1.94165 185.847C1.94617 185.847 1.95062 185.847 1.95508 185.847L25.1665 185.847C25.1715 185.847 25.1765 185.847 25.1813 185.847L48.3888 185.847C48.394 185.846 48.3993 185.846 48.4045 185.847L71.615 185.847C71.6194 185.847 71.6239 185.847 71.6284 185.847L118.067 185.847C118.072 185.847 118.076 185.847 118.081 185.847L141.289 185.847ZM141.508 186.022L143.741 188.26L167.846 188.26L164.496 186.022L141.508 186.022ZM143.915 188.435L146.411 190.936L171.853 190.936L168.108 188.435L143.915 188.435ZM146.586 191.111L149.39 193.921L176.322 193.921L172.115 191.111L146.586 191.111ZM149.564 194.096L152.734 197.272L181.339 197.272L176.584 194.096L149.564 194.096ZM152.908 197.447L156.516 201.062L187.014 201.062L181.601 197.447L152.908 197.447ZM156.691 201.238L160.83 205.385L193.487 205.385L187.276 201.238L156.691 201.238ZM161.004 205.561L165.792 210.358L200.931 210.358L193.749 205.561L161.004 205.561ZM165.966 210.533L171.561 216.14L209.588 216.14L201.193 210.533L165.966 210.533ZM171.735 216.315L178.352 222.946L219.777 222.946L209.85 216.315L171.735 216.315ZM178.527 223.121L186.465 231.076L231.951 231.076L220.039 223.121L178.527 223.121ZM186.64 231.251L196.328 240.96L246.748 240.96L232.213 231.251L186.64 231.251ZM196.502 241.135L208.571 253.229L265.118 253.229L247.01 241.135L196.502 241.135ZM208.745 253.405L224.176 268.868L288.532 268.868L265.38 253.405L208.745 253.405ZM224.351 269.043L244.747 289.484L319.397 289.484L288.794 269.043L224.351 269.043ZM320.304 365.451L273.035 318.08L184.045 318.08L207.659 365.451L320.304 365.451ZM272.86 317.905L244.675 289.659L169.877 289.659L183.958 317.905L272.86 317.905ZM244.5 289.484L224.103 269.043L159.6 269.043L169.79 289.484L244.5 289.484ZM223.929 268.868L208.498 253.405L151.805 253.405L159.513 268.868L223.929 268.868ZM208.324 253.229L196.255 241.135L145.688 241.135L151.717 253.229L208.324 253.229ZM196.08 240.96L186.393 231.251L140.761 231.251L145.601 240.96L196.08 240.96ZM186.218 231.076L178.279 223.121L136.708 223.121L140.674 231.076L186.218 231.076ZM178.105 222.946L171.488 216.315L133.316 216.315L136.621 222.946L178.105 222.946ZM171.313 216.14L165.719 210.533L130.433 210.533L133.228 216.14L171.313 216.14ZM165.544 210.358L160.757 205.561L127.955 205.561L130.346 210.358L165.544 210.358ZM160.582 205.385L156.443 201.238L125.8 201.238L127.867 205.385L160.582 205.385ZM156.269 201.062L152.661 197.447L123.91 197.447L125.712 201.062L156.269 201.062ZM152.486 197.272L149.317 194.096L122.24 194.096L123.823 197.272L152.486 197.272ZM149.142 193.921L146.338 191.111L120.752 191.111L122.152 193.921L149.142 193.921ZM146.164 190.936L143.668 188.435L119.418 188.435L120.664 190.936L146.164 190.936ZM143.493 188.26L141.261 186.022L118.215 186.022L119.33 188.26L143.493 188.26ZM48.4329 186.022L46.1963 188.26L70.3613 188.26L71.4806 186.022L48.4329 186.022ZM46.0213 188.435L43.5215 190.936L69.0227 190.936L70.2737 188.435L46.0213 188.435ZM43.3465 191.111L40.5377 193.921L67.5295 193.921L68.9352 191.111L43.3465 191.111ZM40.3627 194.096L37.1878 197.272L65.8531 197.272L67.442 194.096L40.3627 194.096ZM37.0128 197.447L33.3991 201.062L63.9572 201.062L65.7656 197.447L37.0128 197.447ZM33.2241 201.238L29.0779 205.385L61.7947 205.385L63.8696 201.238L33.2241 201.238ZM28.903 205.561L24.1077 210.358L59.3074 210.358L61.7071 205.561L28.903 205.561ZM23.9327 210.533L18.3285 216.14L56.4153 216.14L59.2198 210.533L23.9327 210.533ZM18.1535 216.315L11.5256 222.946L53.0109 222.946L56.3277 216.315L18.1535 216.315ZM11.3506 223.121L3.39825 231.076L48.9437 231.076L52.9233 223.121L11.3506 223.121ZM3.22327 231.251L-6.48071 240.96L43.9999 240.96L48.8561 231.251L3.22327 231.251ZM-6.6557 241.135L-18.745 253.229L37.8624 253.229L43.9123 241.135L-6.6557 241.135ZM-18.92 253.405L-34.3769 268.868L30.0397 268.868L37.7748 253.405L-18.92 253.405ZM-34.5519 269.043L-54.9835 289.484L19.7274 289.484L29.9521 269.043L-34.5519 269.043ZM-55.1584 289.659L-83.3925 317.905L5.5105 317.905L19.6398 289.659L-55.1584 289.659ZM-83.5675 318.08L-130.917 365.451L-18.2726 365.451L5.42291 318.08L-83.5675 318.08ZM-55.231 289.484L-34.7994 269.043L-99.2418 269.043L-129.88 289.484L-55.231 289.484ZM-34.6244 268.868L-19.1675 253.405L-75.8007 253.405L-98.9794 268.868L-34.6244 268.868ZM-18.9926 253.229L-6.9032 241.135L-57.4094 241.135L-75.5382 253.229L-18.9926 253.229ZM-6.72827 240.96L2.97571 231.251L-42.5952 231.251L-57.147 240.96L-6.72827 240.96ZM3.15076 231.076L11.103 223.121L-30.4077 223.121L-42.3328 231.076L3.15076 231.076ZM11.278 222.946L17.906 216.315L-20.2062 216.315L-30.1453 222.946L11.278 222.946ZM18.0809 216.14L23.6852 210.533L-11.5398 210.533L-19.9438 216.14L18.0809 216.14ZM23.8602 210.358L28.6555 205.561L-4.08655 205.561L-11.2774 210.358L23.8602 210.358ZM28.8304 205.385L32.9766 201.238L2.39337 201.238L-3.82416 205.385L28.8304 205.385ZM33.1516 201.062L36.7653 197.447L8.07477 197.447L2.65576 201.062L33.1516 201.062ZM36.9403 197.272L40.1152 194.096L13.0981 194.096L8.33716 197.272L36.9403 197.272ZM40.2902 193.921L43.099 191.111L17.5726 191.111L13.3606 193.921L40.2902 193.921ZM43.2739 190.936L45.7738 188.435L21.5837 188.435L17.835 190.936L43.2739 190.936ZM45.9488 188.26L48.1854 186.022L25.2001 186.022L21.8461 188.26L45.9488 188.26ZM164.811 186.022L168.161 188.26L192.195 188.26L187.727 186.022L164.811 186.022ZM168.423 188.435L172.168 190.936L197.538 190.936L192.544 188.435L168.423 188.435ZM172.43 191.111L176.637 193.921L203.497 193.921L197.887 191.111L172.43 191.111ZM176.899 194.096L181.655 197.272L210.188 197.272L203.847 194.096L176.899 194.096ZM181.917 197.447L187.329 201.062L217.756 201.062L210.538 197.447L181.917 197.447ZM187.592 201.238L193.802 205.385L226.387 205.385L218.105 201.238L187.592 201.238ZM194.064 205.561L201.246 210.358L236.315 210.358L226.737 205.561L194.064 205.561ZM201.509 210.533L209.903 216.14L247.858 216.14L236.664 210.533L201.509 210.533ZM210.165 216.315L220.093 222.946L261.446 222.946L248.207 216.315L210.165 216.315ZM220.355 223.121L232.266 231.076L277.68 231.076L261.796 223.121L220.355 223.121ZM232.528 231.251L247.063 240.96L297.412 240.96L278.029 231.251L232.528 231.251ZM-57.4625 240.96L-42.9106 231.251L-88.412 231.251L-107.812 240.96L-57.4625 240.96ZM-42.6482 231.076L-30.7231 223.121L-72.1644 223.121L-88.0621 231.076L-42.6482 231.076ZM-30.4608 222.946L-20.5216 216.315L-58.5643 216.315L-71.8146 222.946L-30.4608 222.946ZM-20.2592 216.14L-11.8553 210.533L-47.0109 210.533L-58.2145 216.14L-20.2592 216.14ZM-11.5929 210.358L-4.40204 205.561L-37.0747 205.561L-46.6611 210.358L-11.5929 210.358ZM-4.13959 205.385L2.07788 201.238L-28.436 201.238L-36.7249 205.385L-4.13959 205.385ZM2.34033 201.062L7.75934 197.447L-20.8619 197.447L-28.0862 201.062L2.34033 201.062ZM8.02173 197.272L12.7827 194.096L-14.165 194.096L-20.5121 197.272L8.02173 197.272ZM13.0451 193.921L17.2571 191.111L-8.20007 191.111L-13.8152 193.921L13.0451 193.921ZM17.5195 190.936L21.2682 188.435L-2.85272 188.435L-7.85022 190.936L17.5195 190.936ZM21.5306 188.26L24.8846 186.022L1.96844 186.022L-2.50287 188.26L21.5306 188.26ZM188.118 186.022L192.586 188.26L216.54 188.26L210.955 186.022L188.118 186.022ZM192.935 188.435L197.928 190.936L223.219 190.936L216.977 188.435L192.935 188.435ZM198.278 191.111L203.888 193.921L230.67 193.921L223.656 191.111L198.278 191.111ZM204.238 194.096L210.579 197.272L239.035 197.272L231.107 194.096L204.238 194.096ZM210.929 197.447L218.147 201.062L248.495 201.062L239.472 197.447L210.929 197.447ZM218.496 201.238L226.778 205.385L259.286 205.385L248.932 201.238L218.496 201.238ZM227.127 205.561L236.706 210.358L271.697 210.358L259.723 205.561L227.127 205.561ZM237.055 210.533L248.249 216.14L286.128 216.14L272.134 210.533L237.055 210.533ZM248.598 216.315L261.837 222.946L303.115 222.946L286.565 216.315L248.598 216.315ZM-72.2057 222.946L-58.9556 216.315L-96.9193 216.315L-113.48 222.946L-72.2057 222.946ZM-58.6057 216.14L-47.4021 210.533L-82.4789 210.533L-96.4821 216.14L-58.6057 216.14ZM-47.0522 210.358L-37.4659 205.561L-70.0599 205.561L-82.0417 210.358L-47.0522 210.358ZM-37.116 205.385L-28.8273 201.238L-59.2628 201.238L-69.6227 205.385L-37.116 205.385ZM-28.4774 201.062L-21.2531 197.447L-49.796 197.447L-58.8255 201.062L-28.4774 201.062ZM-20.9033 197.272L-14.5563 194.096L-41.4258 194.096L-49.3588 197.272L-20.9033 197.272ZM-14.2064 193.921L-8.59125 191.111L-33.9703 191.111L-40.9885 193.921L-14.2064 193.921ZM-8.24139 190.936L-3.2439 188.435L-27.2867 188.435L-33.533 190.936L-8.24139 190.936ZM-2.89404 188.26L1.57727 186.022L-21.2609 186.022L-26.8495 188.26L-2.89404 188.26ZM207.463 365.451L183.849 318.08L94.8209 318.08L94.78 365.451L207.463 365.451ZM183.762 317.905L169.681 289.659L94.8456 289.659L94.8211 317.905L183.762 317.905ZM169.594 289.484L159.405 269.043L94.8634 269.043L94.8457 289.484L169.594 289.484ZM159.317 268.868L151.609 253.405L94.877 253.405L94.8635 268.868L159.317 268.868ZM151.522 253.229L145.493 241.135L94.8876 241.135L94.8771 253.229L151.522 253.229ZM145.405 240.96L140.566 231.251L94.8961 231.251L94.8877 240.96L145.405 240.96ZM140.479 231.076L136.513 223.121L94.9031 223.121L94.8962 231.076L140.479 231.076ZM136.425 222.946L133.12 216.315L94.9091 216.315L94.9033 222.946L136.425 222.946ZM133.033 216.14L130.238 210.533L94.9141 210.533L94.9092 216.14L133.033 216.14ZM130.151 210.358L127.759 205.561L94.9183 205.561L94.9142 210.358L130.151 210.358ZM127.672 205.385L125.604 201.238L94.9221 201.238L94.9185 205.385L127.672 205.385ZM125.517 201.062L123.715 197.447L94.9254 197.447L94.9222 201.062L125.517 201.062ZM123.627 197.272L122.044 194.096L94.9283 194.096L94.9255 197.272L123.627 197.272ZM121.957 193.921L120.556 191.111L94.9308 191.111L94.9284 193.921L121.957 193.921ZM120.469 190.936L119.222 188.435L94.9332 188.435L94.931 190.936L120.469 190.936ZM119.135 188.26L118.019 186.022L94.9352 186.022L94.9333 188.26L119.135 188.26ZM71.6763 186.022L70.5571 188.26L94.7582 188.26L94.7602 186.022L71.6763 186.022ZM70.4695 188.435L69.2185 190.936L94.7559 190.936L94.7581 188.435L70.4695 188.435ZM69.1309 191.111L67.7253 193.921L94.7534 193.921L94.7557 191.111L69.1309 191.111ZM67.6377 194.096L66.0489 197.272L94.7504 197.272L94.7532 194.096L67.6377 194.096ZM65.9613 197.447L64.1529 201.062L94.7472 201.062L94.7503 197.447L65.9613 197.447ZM64.0653 201.238L61.9904 205.385L94.7434 205.385L94.747 201.238L64.0653 201.238ZM61.9028 205.561L59.5032 210.358L94.7391 210.358L94.7433 205.561L61.9028 205.561ZM59.4156 210.533L56.611 216.14L94.7341 216.14L94.739 210.533L59.4156 210.533ZM56.5234 216.315L53.2066 222.946L94.7282 222.946L94.7339 216.315L56.5234 216.315ZM53.119 223.121L49.1394 231.076L94.7212 231.076L94.7281 223.121L53.119 223.121ZM49.0518 231.251L44.1956 240.96L94.7126 240.96L94.721 231.251L49.0518 231.251ZM44.108 241.135L38.0581 253.229L94.702 253.229L94.7125 241.135L44.108 241.135ZM37.9706 253.405L30.2354 268.868L94.6885 268.868L94.7018 253.405L37.9706 253.405ZM30.1478 269.043L19.9232 289.484L94.6707 289.484L94.6884 269.043L30.1478 269.043ZM19.8356 289.659L5.70624 317.905L94.646 317.905L94.6705 289.659L19.8356 289.659ZM5.61865 318.08L-18.0768 365.451L94.6049 365.451L94.6459 318.08L5.61865 318.08ZM211.426 186.022L217.011 188.26L240.885 188.26L234.183 186.022L211.426 186.022ZM217.447 188.435L223.69 190.936L248.9 190.936L241.409 188.435L217.447 188.435ZM224.127 191.111L231.141 193.921L257.841 193.921L249.424 191.111L224.127 191.111ZM231.577 194.096L239.505 197.272L267.878 197.272L258.365 194.096L231.577 194.096ZM239.942 197.447L248.966 201.062L279.231 201.062L268.403 197.447L239.942 197.447ZM249.403 201.238L259.756 205.385L292.179 205.385L279.755 201.238L249.403 201.238ZM260.193 205.561L272.168 210.358L307.072 210.358L292.704 205.561L260.193 205.561ZM-82.5127 210.358L-70.5309 205.561L-103.043 205.561L-117.421 210.358L-82.5127 210.358ZM-70.0937 205.385L-59.7338 201.238L-90.0873 201.238L-102.519 205.385L-70.0937 205.385ZM-59.2965 201.062L-50.267 197.447L-78.7277 197.447L-89.5626 201.062L-59.2965 201.062ZM-49.8298 197.272L-41.8968 194.096L-68.6838 194.096L-78.203 197.272L-49.8298 197.272ZM-41.4595 193.921L-34.4413 191.111L-59.7375 191.111L-68.1591 193.921L-41.4595 193.921ZM-34.004 190.936L-27.7578 188.435L-51.7177 188.435L-59.2129 190.936L-34.004 190.936ZM-27.3205 188.26L-21.7319 186.022L-44.4869 186.022L-51.193 188.26L-27.3205 188.26ZM-90.1157 201.062L-79.2808 197.447L-107.661 197.447L-120.301 201.062L-90.1157 201.062ZM-78.7561 197.272L-69.2369 194.096L-95.9434 194.096L-107.049 197.272L-78.7561 197.272ZM-68.7123 193.921L-60.2906 191.111L-85.5063 191.111L-95.3312 193.921L-68.7123 193.921ZM-59.766 190.936L-52.2708 188.435L-76.1501 188.435L-84.8942 190.936L-59.766 190.936ZM-51.7461 188.26L-45.04 186.022L-67.7145 186.022L-75.538 188.26L-51.7461 188.26ZM234.736 186.022L241.438 188.26L265.23 188.26L257.41 186.022L234.736 186.022ZM241.962 188.435L249.453 190.936L274.581 190.936L265.841 188.435L241.962 188.435ZM249.977 191.111L258.393 193.921L285.012 193.921L275.192 191.111L249.977 191.111ZM258.918 194.096L268.431 197.272L296.723 197.272L285.623 194.096L258.918 194.096ZM268.956 197.447L279.784 201.062L309.968 201.062L297.334 197.447L268.956 197.447ZM258.047 186.022L265.866 188.26L289.575 188.26L280.638 186.022L258.047 186.022ZM266.478 188.435L275.217 190.936L300.264 190.936L290.274 188.435L266.478 188.435ZM275.829 191.111L285.648 193.921L312.187 193.921L300.963 191.111L275.829 191.111ZM-95.9679 193.921L-86.143 191.111L-111.275 191.111L-122.504 193.921L-95.9679 193.921ZM-85.5309 190.936L-76.7867 188.435L-100.582 188.435L-110.576 190.936L-85.5309 190.936ZM-76.1746 188.26L-68.3511 186.022L-90.9416 186.022L-99.8829 188.26L-76.1746 188.26ZM281.358 186.022L290.296 188.26L313.917 188.26L303.862 186.022L281.358 186.022ZM-100.604 188.26L-91.6627 186.022L-114.168 186.022L-124.226 188.26L-100.604 188.26Z" clip-rule="evenodd" fill="url(#paint_linear_33_2454_1)" fill-opacity="1.000000" fill-rule="evenodd"/>
		<circle id="Ellipse" r="0.750058" transform="matrix(-1 -8.74228e-08 8.74228e-08 -1 104.75 37.75)" fill="#C1A875" fill-opacity="0.150000"/>
		<circle id="Ellipse" r="0.750058" transform="matrix(-1 -8.74228e-08 8.74228e-08 -1 128.75 31.75)" fill="#C1A875" fill-opacity="0.600000"/>
		<circle id="Ellipse" r="0.750058" transform="matrix(-1 -8.74228e-08 8.74228e-08 -1 22.7792 35.9424)" fill="#C1A875" fill-opacity="0.300000"/>
		<circle id="Ellipse" r="1.124933" transform="matrix(-1 -8.74228e-08 8.74228e-08 -1 10.6273 109.468)" fill="#C1A875" fill-opacity="0.300000"/>
		<circle id="Ellipse" r="1.124933" transform="matrix(-1 -8.74228e-08 8.74228e-08 -1 60.3151 123.148)" fill="#C1A875" fill-opacity="0.300000"/>
		<circle id="Ellipse" r="1.124933" transform="matrix(-1 -8.74228e-08 8.74228e-08 -1 79.1249 34.1248)" fill="#C1A875" fill-opacity="0.150000"/>
		<circle id="Ellipse" r="1.124933" transform="matrix(-1 -8.74228e-08 8.74228e-08 -1 29.1249 135.125)" fill="#C1A875" fill-opacity="0.100000"/>
		<circle id="Ellipse" r="1.124933" transform="matrix(-1 -8.74228e-08 8.74228e-08 -1 54.421 113.696)" fill="#C1A875" fill-opacity="0.150000"/>
		<circle id="Ellipse" r="1.124933" transform="matrix(-1 -8.74228e-08 8.74228e-08 -1 28.9877 61.3403)" fill="#C1A875" fill-opacity="0.100000"/>
		<circle id="Ellipse" r="1.124933" transform="matrix(-1 -8.74228e-08 8.74228e-08 -1 7.60333 46.4409)" fill="#C1A875" fill-opacity="0.300000"/>
		<circle id="Ellipse" r="1.124933" transform="matrix(-1 -8.74228e-08 8.74228e-08 -1 52.1249 13.1248)" fill="#C1A875" fill-opacity="0.700000"/>
		<circle id="Ellipse" r="0.374874" transform="matrix(-1 -8.74228e-08 8.74228e-08 -1 168.375 152.375)" fill="#C1A875" fill-opacity="0.150000"/>
		<circle id="Ellipse" r="0.374874" transform="matrix(-1 -8.74228e-08 8.74228e-08 -1 134.293 135.352)" fill="#C1A875" fill-opacity="0.300000"/>
		<circle id="Ellipse" r="0.374874" transform="matrix(-1 -8.74228e-08 8.74228e-08 -1 171.208 106.003)" fill="#C1A875" fill-opacity="0.100000"/>
		<circle id="Ellipse" r="0.374874" transform="matrix(-1 -8.74228e-08 8.74228e-08 -1 82.758 72.592)" fill="#C1A875" fill-opacity="0.300000"/>
		<circle id="Ellipse" r="0.374874" transform="matrix(-1 -8.74228e-08 8.74228e-08 -1 165.115 123.613)" fill="#C1A875" fill-opacity="0.600000"/>
		<circle id="Ellipse" r="0.374874" transform="matrix(-1 -8.74228e-08 8.74228e-08 -1 57.8302 128.457)" fill="#C1A875" fill-opacity="0.100000"/>
		<circle id="Ellipse" r="0.374874" transform="matrix(-1 -8.74228e-08 8.74228e-08 -1 46.6118 26.1655)" fill="#C1A875" fill-opacity="0.150000"/>
		<circle id="Ellipse" r="0.374874" transform="matrix(-1 -8.74228e-08 8.74228e-08 -1 57.4145 89.7246)" fill="#C1A875" fill-opacity="0.100000"/>
		<circle id="Ellipse" r="0.374874" transform="matrix(-1 -8.74228e-08 8.74228e-08 -1 174.375 51.375)" fill="#C1A875" fill-opacity="0.300000"/>
		<circle id="Ellipse" r="0.374874" transform="matrix(-1 -8.74228e-08 8.74228e-08 -1 124.694 162.33)" fill="#C1A875" fill-opacity="0.300000"/>
		<circle id="Ellipse" r="0.374874" transform="matrix(-1 -8.74228e-08 8.74228e-08 -1 121.227 63.6172)" fill="#C1A875" fill-opacity="0.700000"/>
		<circle id="Ellipse" r="0.374874" transform="matrix(-1 -8.74228e-08 8.74228e-08 -1 186.375 78.375)" fill="#C1A875" fill-opacity="0.150000"/>
		<circle id="Ellipse" r="0.374874" transform="matrix(-1 -8.74228e-08 8.74228e-08 -1 12.3749 81.375)" fill="#C1A875" fill-opacity="0.100000"/>
		<circle id="Ellipse" r="0.374874" transform="matrix(-1 -8.74228e-08 8.74228e-08 -1 34.1752 103.641)" fill="#C1A875" fill-opacity="0.300000"/>
		<circle id="Ellipse" r="0.374874" transform="matrix(-1 -8.74228e-08 8.74228e-08 -1 154.817 14.0537)" fill="#C1A875" fill-opacity="0.100000"/>
		<circle id="Ellipse" r="0.374874" transform="matrix(-1 -8.74228e-08 8.74228e-08 -1 120.395 107.655)" fill="#C1A875" fill-opacity="0.150000"/>
		<circle id="Ellipse" r="0.374874" transform="matrix(-1 -8.74228e-08 8.74228e-08 -1 40.3749 36.375)" fill="#C1A875" fill-opacity="0.300000"/>
		<circle id="Ellipse" r="0.374874" transform="matrix(-1 -8.74228e-08 8.74228e-08 -1 120.371 56.2673)" fill="#C1A875" fill-opacity="0.100000"/>
		<circle id="Ellipse" r="0.374874" transform="matrix(-1 -8.74228e-08 8.74228e-08 -1 131.713 60.7842)" fill="#C1A875" fill-opacity="0.300000"/>
		<circle id="Ellipse" r="0.374874" transform="matrix(-1 -8.74228e-08 8.74228e-08 -1 10.3749 69.375)" fill="#C1A875" fill-opacity="0.150000"/>
		<circle id="Ellipse" r="0.374874" transform="matrix(-1 -8.74228e-08 8.74228e-08 -1 108.867 6.78638)" fill="#C1A875" fill-opacity="0.100000"/>
		<circle id="Ellipse" r="0.374874" transform="matrix(-1 -8.74228e-08 8.74228e-08 -1 103.464 32.6277)" fill="#C1A875" fill-opacity="0.100000"/>
		<circle id="Ellipse" r="0.374874" transform="matrix(-1 -8.74228e-08 8.74228e-08 -1 7.37488 148.375)" fill="#C1A875" fill-opacity="0.300000"/>
		<circle id="Ellipse" r="0.374874" transform="matrix(-1 -8.74228e-08 8.74228e-08 -1 32.0569 9.16211)" fill="#C1A875" fill-opacity="0.100000"/>
		<path id="Polygon" d="M184.75 28.5L185.4 27.37L184.1 27.37L184.75 28.5Z" fill="#C1A875" fill-opacity="0.600000" fill-rule="evenodd"/>
		<circle id="Ellipse" r="0.374874" transform="matrix(-1 -8.74228e-08 8.74228e-08 -1 53.3749 62.375)" fill="#C1A875" fill-opacity="0.100000"/>
		<path id="Polygon" d="M2.75 25.5L3.39 24.37L2.1 24.37L2.75 25.5Z" fill="#C1A875" fill-opacity="0.100000" fill-rule="evenodd"/>
		<path id="Star" d="M3.5 7.03L3.66 6.44L4.25 6.28L3.66 6.12L3.5 5.53L3.34 6.12L2.75 6.28L3.34 6.44L3.5 7.03Z" fill="#C1A875" fill-opacity="0.100000" fill-rule="evenodd"/>
		<path id="Star" d="M152.75 34.5L152.9 33.9L153.5 33.75L152.9 33.59L152.75 33L152.59 33.59L152 33.75L152.59 33.9L152.75 34.5Z" fill="#C1A875" fill-opacity="0.600000" fill-rule="evenodd"/>
		<path id="Star" d="M95.95 66.42L96.11 65.83L96.7 65.67L96.11 65.51L95.95 64.92L95.79 65.51L95.2 65.67L95.79 65.83L95.95 66.42Z" fill="#C1A875" fill-opacity="0.100000" fill-rule="evenodd"/>
		<path id="Star" d="M131.75 11.5L131.9 10.9L132.5 10.75L131.9 10.59L131.75 10L131.59 10.59L131 10.75L131.59 10.9L131.75 11.5Z" fill="#C1A875" fill-opacity="0.800000" fill-rule="evenodd"/>
		<path id="Star" d="M121.37 120.07L121.53 119.48L122.12 119.32L121.53 119.16L121.37 118.57L121.21 119.16L120.62 119.32L121.21 119.48L121.37 120.07Z" fill="#C1A875" fill-opacity="0.150000" fill-rule="evenodd"/>
		<path id="Star" d="M57.32 46.33L57.48 45.74L58.07 45.58L57.48 45.43L57.32 44.83L57.16 45.43L56.57 45.58L57.16 45.74L57.32 46.33Z" fill="#C1A875" fill-opacity="0.300000" fill-rule="evenodd"/>
		<circle id="Ellipse" r="0.374874" transform="matrix(-1 -8.74228e-08 8.74228e-08 -1 184.375 55.375)" fill="#C1A875" fill-opacity="0.300000"/>
		<path id="Line 3" d="M192.07 122.19C183.56 90.74 156.84 21.33 118 -4.69" stroke="url(#paint_linear_33_2538_0)" stroke-opacity="0.150000" stroke-width="2.000000"/>
		<path id="Line 1" d="M63.1 -7.9C62.86 17.09 45.08 79.36 -24.04 128.55" stroke="url(#paint_linear_33_2539_0)" stroke-opacity="0.150000" stroke-width="2.000000"/>
	</g>
</svg>
