<svg width="76.487854" height="85.750244" viewBox="0 0 76.4879 85.7502" fill="none" xmlns="http://www.w3.org/2000/svg" xmlns:xlink="http://www.w3.org/1999/xlink">
	<desc>
			Created with Pixso.
	</desc>
	<defs>
		<filter id="filter_33_2546_dd" x="0.000000" y="0.000000" width="76.487793" height="85.750244" filterUnits="userSpaceOnUse" color-interpolation-filters="sRGB">
			<feFlood flood-opacity="0" result="BackgroundImageFix"/>
			<feGaussianBlur in="BackgroundImage" stdDeviation="25.9259"/>
			<feComposite in2="SourceAlpha" operator="in" result="effect_backgroundBlur_1"/>
			<feBlend mode="normal" in="SourceGraphic" in2="effect_backgroundBlur_1" result="shape"/>
		</filter>
		<filter id="filter_33_2548_dd" x="19.602722" y="27.113770" width="37.282410" height="36.614746" filterUnits="userSpaceOnUse" color-interpolation-filters="sRGB">
			<feFlood flood-opacity="0" result="BackgroundImageFix"/>
			<feColorMatrix in="SourceAlpha" type="matrix" values="0 0 0 0 0 0 0 0 0 0 0 0 0 0 0 0 0 0 127 0" result="hardAlpha"/>
			<feOffset dx="0" dy="3"/>
			<feGaussianBlur stdDeviation="3"/>
			<feComposite in2="hardAlpha" operator="out" k2="-1" k3="1"/>
			<feColorMatrix type="matrix" values="0 0 0 0 1 0 0 0 0 1 0 0 0 0 1 0 0 0 0.2 0"/>
			<feBlend mode="normal" in2="BackgroundImageFix" result="effect_dropShadow_1"/>
			<feBlend mode="normal" in="SourceGraphic" in2="effect_dropShadow_1" result="shape"/>
			<feColorMatrix in="SourceAlpha" type="matrix" values="0 0 0 0 0 0 0 0 0 0 0 0 0 0 0 0 0 0 127 0" result="hardAlpha"/>
			<feOffset dx="0" dy="0"/>
			<feGaussianBlur stdDeviation="0.82963"/>
			<feComposite in2="hardAlpha" operator="arithmetic" k2="-1" k3="1"/>
			<feColorMatrix type="matrix" values="0 0 0 0 1 0 0 0 0 1 0 0 0 0 1 0 0 0 1 0"/>
			<feBlend mode="normal" in2="shape" result="effect_innerShadow_2"/>
		</filter>
		<linearGradient x1="38.243912" y1="0.000000" x2="38.243912" y2="63.739857" id="paint_linear_33_2546_0" gradientUnits="userSpaceOnUse">
			<stop stop-color="#C1A875"/>
			<stop offset="1.000000" stop-color="#C1A875" stop-opacity="0.000000"/>
		</linearGradient>
		<linearGradient x1="33.994598" y1="38.745331" x2="42.918179" y2="52.768105" id="paint_linear_33_2548_0" gradientUnits="userSpaceOnUse">
			<stop stop-color="#FFFFFF"/>
			<stop offset="1.000000" stop-color="#C1A875"/>
		</linearGradient>
	</defs>
	<g filter="url(#filter_33_2546_dd)">
		<path id="Vector" d="M38.24 85.75C27.63 84.24 17.92 78.96 10.89 70.86C3.87 62.77 0 52.42 0 41.7L0 26.52C-0.01 24.6 0.49 22.71 1.45 21.05C2.41 19.38 3.79 18 5.46 17.04L32.78 1.43C34.43 0.49 36.29 0 38.2 0C40.1 0 41.96 0.49 43.61 1.43L71.02 17.04C72.68 18 74.07 19.38 75.02 21.05C75.98 22.71 76.49 24.6 76.48 26.52L76.48 41.69C76.49 52.41 72.62 62.77 65.59 70.86C58.57 78.96 48.85 84.24 38.24 85.75Z" fill="#000000" fill-opacity="0.050000" fill-rule="nonzero"/>
		<path id="Vector" d="M38.24 85.75C27.63 84.24 17.92 78.96 10.89 70.86C3.87 62.77 0 52.42 0 41.7L0 26.52C-0.01 24.6 0.49 22.71 1.45 21.05C2.41 19.38 3.79 18 5.46 17.04L32.78 1.43C34.43 0.49 36.29 0 38.2 0C40.1 0 41.96 0.49 43.61 1.43L71.02 17.04C72.68 18 74.07 19.38 75.02 21.05C75.98 22.71 76.49 24.6 76.48 26.52L76.48 41.69C76.49 52.41 72.62 62.77 65.59 70.86C58.57 78.96 48.85 84.24 38.24 85.75ZM38.24 84.17Q30.43 83.03 23.92 79.49Q17.32 75.9 12.07 69.84Q6.81 63.79 4.18 56.75Q1.55 49.72 1.55 41.7L1.55 26.52Q1.55 25.25 1.87 24.07Q2.18 22.9 2.8 21.82Q3.43 20.73 4.29 19.87Q5.15 19.01 6.24 18.38L33.55 2.78Q34.63 2.17 35.79 1.86Q36.95 1.55 38.2 1.55Q39.44 1.55 40.6 1.86Q41.76 2.17 42.84 2.78L70.25 18.39Q71.31 19 72.14 19.83Q73.03 20.7 73.68 21.82Q74.3 22.91 74.62 24.09Q74.93 25.26 74.93 26.52L74.93 41.69Q74.93 49.71 72.3 56.75Q69.67 63.79 64.42 69.84Q59.16 75.9 52.56 79.49Q46.05 83.03 38.24 84.17Z" fill="url(#paint_linear_33_2546_0)" fill-opacity="1.000000" fill-rule="evenodd"/>
	</g>
	<path id="Vector" d="M38.24 73.43C30.67 72.36 23.75 68.59 18.73 62.83C13.71 57.06 10.94 49.68 10.92 42.04L10.92 29.25C10.92 28.45 11.13 27.67 11.54 26.97C11.94 26.28 12.52 25.71 13.22 25.31L35.98 12.3C36.67 11.9 37.45 11.7 38.24 11.7C39.03 11.7 39.81 11.9 40.5 12.3L63.26 25.31C63.96 25.71 64.54 26.28 64.94 26.97C65.34 27.67 65.55 28.45 65.56 29.25L65.56 41.97C65.55 49.63 62.79 57.02 57.77 62.8C52.75 68.58 45.82 72.36 38.24 73.43Z" fill="#000000" fill-opacity="0.400000" fill-rule="nonzero"/>
	<g filter="url(#filter_33_2548_dd)">
		<path id="icon" d="M39.36 33.81L41.37 37.92C41.55 38.29 41.9 38.55 42.3 38.61L46.82 39.27C47.83 39.42 48.24 40.67 47.51 41.39L44.23 44.62C43.94 44.91 43.8 45.32 43.87 45.72L44.64 50.27C44.82 51.29 43.74 52.06 42.83 51.58L38.82 49.44C38.46 49.25 38.02 49.25 37.65 49.44L33.65 51.58C32.73 52.06 31.66 51.29 31.83 50.27L32.61 45.72C32.67 45.32 32.54 44.91 32.25 44.62L28.97 41.39C28.24 40.67 28.65 39.42 29.66 39.27L34.18 38.61C34.58 38.55 34.93 38.29 35.11 37.92L37.12 33.81C37.58 32.88 38.9 32.88 39.36 33.81Z" fill="url(#paint_linear_33_2548_0)" fill-opacity="1.000000" fill-rule="nonzero"/>
	</g>
</svg>
