<svg width="192.000000" height="242.000000" viewBox="0 0 192 242" fill="none" xmlns="http://www.w3.org/2000/svg" xmlns:xlink="http://www.w3.org/1999/xlink">
	<desc>
			Created with Pixso.
	</desc>
	<defs>
		<filter id="filter_33_2393_dd" x="0.152069" y="0.000000" width="192.000000" height="242.000000" filterUnits="userSpaceOnUse" color-interpolation-filters="sRGB">
			<feFlood flood-opacity="0" result="BackgroundImageFix"/>
			<feGaussianBlur in="BackgroundImage" stdDeviation="3.23333"/>
			<feComposite in2="SourceAlpha" operator="in" result="effect_backgroundBlur_1"/>
			<feBlend mode="normal" in="SourceGraphic" in2="effect_backgroundBlur_1" result="shape"/>
			<feColorMatrix in="SourceAlpha" type="matrix" values="0 0 0 0 0 0 0 0 0 0 0 0 0 0 0 0 0 0 127 0" result="hardAlpha"/>
			<feOffset dx="0" dy="0"/>
			<feGaussianBlur stdDeviation="7.73333"/>
			<feComposite in2="hardAlpha" operator="arithmetic" k2="-1" k3="1"/>
			<feColorMatrix type="matrix" values="0 0 0 0 0.19216 0 0 0 0 0.22745 0 0 0 0 0.32941 0 0 0 1 0"/>
			<feBlend mode="normal" in2="shape" result="effect_innerShadow_2"/>
		</filter>
		<filter id="filter_33_2395_dd" x="0.152069" y="24.000000" width="192.000000" height="218.000000" filterUnits="userSpaceOnUse" color-interpolation-filters="sRGB">
			<feFlood flood-opacity="0" result="BackgroundImageFix"/>
			<feGaussianBlur in="BackgroundImage" stdDeviation="3.23333"/>
			<feComposite in2="SourceAlpha" operator="in" result="effect_backgroundBlur_1"/>
			<feBlend mode="normal" in="SourceGraphic" in2="effect_backgroundBlur_1" result="shape"/>
			<feColorMatrix in="SourceAlpha" type="matrix" values="0 0 0 0 0 0 0 0 0 0 0 0 0 0 0 0 0 0 127 0" result="hardAlpha"/>
			<feOffset dx="0" dy="0"/>
			<feGaussianBlur stdDeviation="7.73333"/>
			<feComposite in2="hardAlpha" operator="arithmetic" k2="-1" k3="1"/>
			<feColorMatrix type="matrix" values="0 0 0 0 0.19216 0 0 0 0 0.22745 0 0 0 0 0.32941 0 0 0 1 0"/>
			<feBlend mode="normal" in2="shape" result="effect_innerShadow_2"/>
		</filter>
		<filter id="filter_33_2398_dd" x="0.000000" y="24.000000" width="192.000000" height="218.000000" filterUnits="userSpaceOnUse" color-interpolation-filters="sRGB">
			<feFlood flood-opacity="0" result="BackgroundImageFix"/>
			<feGaussianBlur in="BackgroundImage" stdDeviation="3.23333"/>
			<feComposite in2="SourceAlpha" operator="in" result="effect_backgroundBlur_1"/>
			<feBlend mode="normal" in="SourceGraphic" in2="effect_backgroundBlur_1" result="shape"/>
			<feColorMatrix in="SourceAlpha" type="matrix" values="0 0 0 0 0 0 0 0 0 0 0 0 0 0 0 0 0 0 127 0" result="hardAlpha"/>
			<feOffset dx="0" dy="0"/>
			<feGaussianBlur stdDeviation="7.73333"/>
			<feComposite in2="hardAlpha" operator="arithmetic" k2="-1" k3="1"/>
			<feColorMatrix type="matrix" values="0 0 0 0 0.19216 0 0 0 0 0.22745 0 0 0 0 0.32941 0 0 0 1 0"/>
			<feBlend mode="normal" in2="shape" result="effect_innerShadow_2"/>
		</filter>
		<filter id="filter_33_2400_dd" x="12.000000" y="45.000000" width="54.000000" height="56.000000" filterUnits="userSpaceOnUse" color-interpolation-filters="sRGB">
			<feFlood flood-opacity="0" result="BackgroundImageFix"/>
			<feGaussianBlur in="BackgroundImage" stdDeviation="3.23333"/>
			<feComposite in2="SourceAlpha" operator="in" result="effect_backgroundBlur_1"/>
			<feBlend mode="normal" in="SourceGraphic" in2="effect_backgroundBlur_1" result="shape"/>
			<feColorMatrix in="SourceAlpha" type="matrix" values="0 0 0 0 0 0 0 0 0 0 0 0 0 0 0 0 0 0 127 0" result="hardAlpha"/>
			<feOffset dx="0" dy="0"/>
			<feGaussianBlur stdDeviation="7.73333"/>
			<feComposite in2="hardAlpha" operator="arithmetic" k2="-1" k3="1"/>
			<feColorMatrix type="matrix" values="0 0 0 0 0.19216 0 0 0 0 0.22745 0 0 0 0 0.32941 0 0 0 1 0"/>
			<feBlend mode="normal" in2="shape" result="effect_innerShadow_2"/>
		</filter>
		<filter id="filter_33_2401_dd" x="12.000000" y="104.000000" width="54.000000" height="56.000000" filterUnits="userSpaceOnUse" color-interpolation-filters="sRGB">
			<feFlood flood-opacity="0" result="BackgroundImageFix"/>
			<feGaussianBlur in="BackgroundImage" stdDeviation="3.23333"/>
			<feComposite in2="SourceAlpha" operator="in" result="effect_backgroundBlur_1"/>
			<feBlend mode="normal" in="SourceGraphic" in2="effect_backgroundBlur_1" result="shape"/>
			<feColorMatrix in="SourceAlpha" type="matrix" values="0 0 0 0 0 0 0 0 0 0 0 0 0 0 0 0 0 0 127 0" result="hardAlpha"/>
			<feOffset dx="0" dy="0"/>
			<feGaussianBlur stdDeviation="7.73333"/>
			<feComposite in2="hardAlpha" operator="arithmetic" k2="-1" k3="1"/>
			<feColorMatrix type="matrix" values="0 0 0 0 0.19216 0 0 0 0 0.22745 0 0 0 0 0.32941 0 0 0 1 0"/>
			<feBlend mode="normal" in2="shape" result="effect_innerShadow_2"/>
		</filter>
		<filter id="filter_33_2402_dd" x="12.000000" y="163.000000" width="54.000000" height="56.000000" filterUnits="userSpaceOnUse" color-interpolation-filters="sRGB">
			<feFlood flood-opacity="0" result="BackgroundImageFix"/>
			<feGaussianBlur in="BackgroundImage" stdDeviation="3.23333"/>
			<feComposite in2="SourceAlpha" operator="in" result="effect_backgroundBlur_1"/>
			<feBlend mode="normal" in="SourceGraphic" in2="effect_backgroundBlur_1" result="shape"/>
			<feColorMatrix in="SourceAlpha" type="matrix" values="0 0 0 0 0 0 0 0 0 0 0 0 0 0 0 0 0 0 127 0" result="hardAlpha"/>
			<feOffset dx="0" dy="0"/>
			<feGaussianBlur stdDeviation="7.73333"/>
			<feComposite in2="hardAlpha" operator="arithmetic" k2="-1" k3="1"/>
			<feColorMatrix type="matrix" values="0 0 0 0 0.19216 0 0 0 0 0.22745 0 0 0 0 0.32941 0 0 0 1 0"/>
			<feBlend mode="normal" in2="shape" result="effect_innerShadow_2"/>
		</filter>
		<filter id="filter_33_2403_dd" x="69.000000" y="45.000000" width="54.000000" height="56.000000" filterUnits="userSpaceOnUse" color-interpolation-filters="sRGB">
			<feFlood flood-opacity="0" result="BackgroundImageFix"/>
			<feGaussianBlur in="BackgroundImage" stdDeviation="3.23333"/>
			<feComposite in2="SourceAlpha" operator="in" result="effect_backgroundBlur_1"/>
			<feBlend mode="normal" in="SourceGraphic" in2="effect_backgroundBlur_1" result="shape"/>
			<feColorMatrix in="SourceAlpha" type="matrix" values="0 0 0 0 0 0 0 0 0 0 0 0 0 0 0 0 0 0 127 0" result="hardAlpha"/>
			<feOffset dx="0" dy="0"/>
			<feGaussianBlur stdDeviation="7.73333"/>
			<feComposite in2="hardAlpha" operator="arithmetic" k2="-1" k3="1"/>
			<feColorMatrix type="matrix" values="0 0 0 0 0.19216 0 0 0 0 0.22745 0 0 0 0 0.32941 0 0 0 1 0"/>
			<feBlend mode="normal" in2="shape" result="effect_innerShadow_2"/>
		</filter>
		<filter id="filter_33_2405_dd" x="69.000000" y="163.000000" width="54.000000" height="56.000000" filterUnits="userSpaceOnUse" color-interpolation-filters="sRGB">
			<feFlood flood-opacity="0" result="BackgroundImageFix"/>
			<feGaussianBlur in="BackgroundImage" stdDeviation="3.23333"/>
			<feComposite in2="SourceAlpha" operator="in" result="effect_backgroundBlur_1"/>
			<feBlend mode="normal" in="SourceGraphic" in2="effect_backgroundBlur_1" result="shape"/>
			<feColorMatrix in="SourceAlpha" type="matrix" values="0 0 0 0 0 0 0 0 0 0 0 0 0 0 0 0 0 0 127 0" result="hardAlpha"/>
			<feOffset dx="0" dy="0"/>
			<feGaussianBlur stdDeviation="7.73333"/>
			<feComposite in2="hardAlpha" operator="arithmetic" k2="-1" k3="1"/>
			<feColorMatrix type="matrix" values="0 0 0 0 0.19216 0 0 0 0 0.22745 0 0 0 0 0.32941 0 0 0 1 0"/>
			<feBlend mode="normal" in2="shape" result="effect_innerShadow_2"/>
		</filter>
		<filter id="filter_33_2406_dd" x="126.000000" y="45.000000" width="54.000000" height="56.000000" filterUnits="userSpaceOnUse" color-interpolation-filters="sRGB">
			<feFlood flood-opacity="0" result="BackgroundImageFix"/>
			<feGaussianBlur in="BackgroundImage" stdDeviation="3.23333"/>
			<feComposite in2="SourceAlpha" operator="in" result="effect_backgroundBlur_1"/>
			<feBlend mode="normal" in="SourceGraphic" in2="effect_backgroundBlur_1" result="shape"/>
			<feColorMatrix in="SourceAlpha" type="matrix" values="0 0 0 0 0 0 0 0 0 0 0 0 0 0 0 0 0 0 127 0" result="hardAlpha"/>
			<feOffset dx="0" dy="0"/>
			<feGaussianBlur stdDeviation="7.73333"/>
			<feComposite in2="hardAlpha" operator="arithmetic" k2="-1" k3="1"/>
			<feColorMatrix type="matrix" values="0 0 0 0 0.19216 0 0 0 0 0.22745 0 0 0 0 0.32941 0 0 0 1 0"/>
			<feBlend mode="normal" in2="shape" result="effect_innerShadow_2"/>
		</filter>
		<filter id="filter_33_2407_dd" x="126.000000" y="104.000000" width="54.000000" height="56.000000" filterUnits="userSpaceOnUse" color-interpolation-filters="sRGB">
			<feFlood flood-opacity="0" result="BackgroundImageFix"/>
			<feGaussianBlur in="BackgroundImage" stdDeviation="3.23333"/>
			<feComposite in2="SourceAlpha" operator="in" result="effect_backgroundBlur_1"/>
			<feBlend mode="normal" in="SourceGraphic" in2="effect_backgroundBlur_1" result="shape"/>
			<feColorMatrix in="SourceAlpha" type="matrix" values="0 0 0 0 0 0 0 0 0 0 0 0 0 0 0 0 0 0 127 0" result="hardAlpha"/>
			<feOffset dx="0" dy="0"/>
			<feGaussianBlur stdDeviation="7.73333"/>
			<feComposite in2="hardAlpha" operator="arithmetic" k2="-1" k3="1"/>
			<feColorMatrix type="matrix" values="0 0 0 0 0.19216 0 0 0 0 0.22745 0 0 0 0 0.32941 0 0 0 1 0"/>
			<feBlend mode="normal" in2="shape" result="effect_innerShadow_2"/>
		</filter>
		<filter id="filter_33_2408_dd" x="126.000000" y="163.000000" width="54.000000" height="56.000000" filterUnits="userSpaceOnUse" color-interpolation-filters="sRGB">
			<feFlood flood-opacity="0" result="BackgroundImageFix"/>
			<feGaussianBlur in="BackgroundImage" stdDeviation="3.23333"/>
			<feComposite in2="SourceAlpha" operator="in" result="effect_backgroundBlur_1"/>
			<feBlend mode="normal" in="SourceGraphic" in2="effect_backgroundBlur_1" result="shape"/>
			<feColorMatrix in="SourceAlpha" type="matrix" values="0 0 0 0 0 0 0 0 0 0 0 0 0 0 0 0 0 0 127 0" result="hardAlpha"/>
			<feOffset dx="0" dy="0"/>
			<feGaussianBlur stdDeviation="7.73333"/>
			<feComposite in2="hardAlpha" operator="arithmetic" k2="-1" k3="1"/>
			<feColorMatrix type="matrix" values="0 0 0 0 0.19216 0 0 0 0 0.22745 0 0 0 0 0.32941 0 0 0 1 0"/>
			<feBlend mode="normal" in2="shape" result="effect_innerShadow_2"/>
		</filter>
		<linearGradient x1="71.993958" y1="139.024567" x2="123.000015" y2="129.642120" id="paint_linear_33_2404_0" gradientUnits="userSpaceOnUse">
			<stop stop-color="#576265"/>
			<stop offset="0.172016" stop-color="#9EA1A1"/>
			<stop offset="0.457410" stop-color="#848B8A"/>
			<stop offset="0.553567" stop-color="#576265"/>
			<stop offset="0.823421" stop-color="#576265"/>
			<stop offset="0.925155" stop-color="#757A7B"/>
			<stop offset="1.000000" stop-color="#576265"/>
		</linearGradient>
		<linearGradient x1="90.556442" y1="132.000000" x2="76.893143" y2="104.000000" id="paint_linear_33_2404_1" gradientUnits="userSpaceOnUse">
			<stop stop-color="#FFFFFF" stop-opacity="0.000000"/>
			<stop offset="1.000000" stop-color="#FFFFFF"/>
		</linearGradient>
		<radialGradient gradientTransform="translate(96 133) rotate(90) scale(105 92)" cx="0.000000" cy="0.000000" r="1.000000" id="paint_radial_33_2424_0" gradientUnits="userSpaceOnUse">
			<stop offset="0.307859" stop-color="#0B0B10" stop-opacity="0.000000"/>
			<stop offset="1.000000" stop-color="#0B0B10"/>
		</radialGradient>
	</defs>
	<path id="Subtract" d="M131 0L61.3043 0C58.0397 0 54.9438 1.44995 52.8538 3.95801L39.4504 20.042C37.3605 22.55 34.2646 24 31 24L161.304 24C158.04 24 154.944 22.55 152.854 20.042L139.45 3.95801C137.361 1.44995 134.265 0 131 0Z" clip-rule="evenodd" fill="#12141D" fill-opacity="1.000000" fill-rule="evenodd"/>
	<path id="We Accept" d="M73.48 16L76.31 7.6L75.46 7.6L73 14.86L70.53 7.6L69.7 7.6L67.19 14.82L64.77 7.6L63.86 7.6L66.69 16L67.62 16L70.09 8.83L72.55 16L73.48 16ZM88.44 13.75L93.11 13.75L94.12 16L95.06 16L91.22 7.6L90.34 7.6L86.5 16L87.43 16L88.44 13.75ZM127.62 15.94Q127.97 15.83 128.22 15.61L127.92 15Q127.73 15.15 127.49 15.24Q127.39 15.27 127.3 15.29Q127.14 15.32 126.98 15.32Q126.51 15.32 126.24 15.09Q126.2 15.06 126.17 15.03Q125.89 14.74 125.89 14.17L125.89 10.4L127.81 10.4L127.81 9.68L125.89 9.68L125.89 8.3L125.04 8.3L125.04 9.68L123.91 9.68L123.91 10.4L125.04 10.4L125.04 14.22Q125.04 15.01 125.42 15.48Q125.47 15.53 125.51 15.58Q125.55 15.62 125.6 15.65Q126.07 16.05 126.88 16.05Q127.27 16.05 127.62 15.94L127.62 15.94ZM90.77 8.52L92.79 13.03L88.76 13.03L90.77 8.52ZM77.49 13.1L82.77 13.1L82.78 12.84Q82.78 11.92 82.4 11.21Q82.39 11.19 82.39 11.18Q82.16 10.75 81.82 10.44Q81.58 10.21 81.29 10.04Q81.15 9.96 80.99 9.89Q80.42 9.63 79.72 9.63Q79.05 9.63 78.48 9.87Q78.31 9.95 78.14 10.04Q77.87 10.2 77.65 10.41Q77.29 10.74 77.04 11.18Q77 11.25 76.97 11.32Q76.64 12 76.64 12.84Q76.64 13.61 76.93 14.24Q76.99 14.37 77.06 14.5Q77.25 14.83 77.51 15.1Q77.82 15.42 78.23 15.64Q78.24 15.65 78.25 15.65Q78.99 16.05 79.95 16.05Q80.71 16.05 81.34 15.79Q81.77 15.61 82.1 15.32Q82.25 15.18 82.39 15.02L81.91 14.47Q81.7 14.71 81.45 14.88Q81.26 15 81.06 15.09Q80.56 15.3 79.97 15.3Q79.18 15.3 78.6 14.95Q78.41 14.84 78.25 14.69Q78 14.47 77.83 14.2Q77.54 13.73 77.49 13.1ZM97.31 15.73Q97.99 16.05 98.83 16.05Q99.63 16.05 100.28 15.74Q100.62 15.57 100.88 15.32Q101.12 15.1 101.3 14.81L100.66 14.37Q100.45 14.7 100.15 14.91Q100.02 15 99.87 15.07Q99.79 15.11 99.7 15.14Q99.29 15.3 98.83 15.3Q98.26 15.3 97.79 15.09Q97.69 15.05 97.6 14.99Q97.36 14.86 97.16 14.68Q96.92 14.44 96.74 14.13Q96.44 13.57 96.44 12.84Q96.44 12.14 96.72 11.59Q96.73 11.57 96.74 11.56Q96.93 11.22 97.2 10.97Q97.38 10.81 97.6 10.69Q97.7 10.63 97.8 10.58Q98.27 10.38 98.83 10.38Q99.26 10.38 99.65 10.52Q99.76 10.56 99.87 10.61Q100.03 10.69 100.16 10.79Q100.45 11 100.66 11.32L101.3 10.88Q101.11 10.57 100.85 10.34Q100.6 10.11 100.29 9.95Q99.64 9.63 98.83 9.63Q98 9.63 97.32 9.96Q97.24 10 97.15 10.04Q96.79 10.24 96.5 10.52Q96.21 10.81 95.99 11.18Q95.93 11.29 95.88 11.41Q95.57 12.05 95.57 12.84Q95.57 13.59 95.85 14.22Q95.91 14.36 95.99 14.5Q96.22 14.89 96.53 15.19Q96.81 15.45 97.15 15.65Q97.23 15.69 97.31 15.73ZM103.95 15.73Q104.64 16.05 105.47 16.05Q106.28 16.05 106.93 15.74Q107.27 15.57 107.53 15.32Q107.77 15.1 107.95 14.81L107.31 14.37Q107.1 14.7 106.8 14.91Q106.67 15 106.52 15.07Q106.44 15.11 106.35 15.14Q105.94 15.3 105.47 15.3Q104.91 15.3 104.44 15.09Q104.34 15.05 104.24 14.99Q104 14.86 103.81 14.68Q103.56 14.44 103.39 14.13Q103.09 13.57 103.09 12.84Q103.09 12.14 103.37 11.59Q103.38 11.57 103.39 11.56Q103.58 11.22 103.84 10.97Q104.03 10.81 104.24 10.69Q104.34 10.63 104.45 10.58Q104.92 10.38 105.47 10.38Q105.91 10.38 106.3 10.52Q106.41 10.56 106.52 10.61Q106.67 10.69 106.81 10.79Q107.1 11 107.31 11.32L107.95 10.88Q107.76 10.57 107.5 10.34Q107.25 10.11 106.93 9.95Q106.29 9.63 105.47 9.63Q104.65 9.63 103.97 9.96Q103.88 10 103.8 10.04Q103.44 10.24 103.15 10.52Q102.86 10.81 102.64 11.18Q102.58 11.29 102.52 11.41Q102.22 12.05 102.22 12.84Q102.22 13.59 102.5 14.22Q102.56 14.36 102.64 14.5Q102.86 14.89 103.18 15.19Q103.45 15.45 103.8 15.65Q103.88 15.69 103.95 15.73ZM109.72 13.1L115 13.1L115.02 12.84Q115.02 11.92 114.63 11.21Q114.63 11.19 114.62 11.18Q114.39 10.75 114.05 10.44Q113.82 10.21 113.53 10.04Q113.38 9.96 113.23 9.89Q112.65 9.63 111.96 9.63Q111.29 9.63 110.72 9.87Q110.54 9.95 110.38 10.04Q110.11 10.2 109.88 10.41Q109.52 10.74 109.27 11.18Q109.24 11.25 109.2 11.32Q108.87 12 108.87 12.84Q108.87 13.61 109.16 14.24Q109.22 14.37 109.29 14.5Q109.48 14.83 109.74 15.1Q110.05 15.42 110.46 15.64Q110.47 15.65 110.49 15.65Q111.23 16.05 112.18 16.05Q112.94 16.05 113.57 15.79Q114 15.61 114.33 15.32Q114.48 15.18 114.62 15.02L114.14 14.47Q113.93 14.71 113.68 14.88Q113.49 15 113.29 15.09Q112.8 15.3 112.21 15.3Q111.42 15.3 110.83 14.95Q110.64 14.84 110.48 14.69Q110.23 14.47 110.06 14.2Q109.77 13.73 109.72 13.1ZM121.3 9.88Q120.71 9.63 120.01 9.63Q119.27 9.63 118.68 9.92Q118.63 9.95 118.59 9.97Q118.33 10.11 118.12 10.29Q117.8 10.56 117.57 10.93L117.57 9.68L116.76 9.68L116.76 18.32L117.61 18.32L117.61 14.81Q117.87 15.22 118.24 15.5Q118.42 15.63 118.62 15.74Q118.65 15.75 118.68 15.77Q119.28 16.05 120.01 16.05Q120.78 16.05 121.42 15.76Q121.52 15.71 121.62 15.65Q121.92 15.48 122.17 15.25Q122.51 14.94 122.74 14.52Q122.76 14.48 122.79 14.44Q123.15 13.73 123.15 12.84Q123.15 11.98 122.8 11.29Q122.77 11.23 122.74 11.17Q122.52 10.77 122.2 10.46Q121.94 10.22 121.61 10.04Q121.46 9.95 121.3 9.88ZM78.7 10.6Q79.15 10.37 79.72 10.37Q80.32 10.37 80.79 10.61Q81.05 10.75 81.26 10.95Q81.45 11.12 81.58 11.33Q81.91 11.81 81.97 12.47L77.49 12.47Q77.55 11.81 77.87 11.33Q78.01 11.12 78.19 10.95Q78.42 10.73 78.7 10.6ZM110.93 10.6Q111.38 10.37 111.96 10.37Q112.55 10.37 113.03 10.61Q113.28 10.75 113.5 10.95Q113.68 11.12 113.82 11.33Q114.14 11.81 114.2 12.47L109.72 12.47Q109.78 11.81 110.11 11.33Q110.24 11.12 110.43 10.95Q110.66 10.73 110.93 10.6ZM120.86 15.13Q120.43 15.3 119.95 15.3Q119.4 15.3 118.94 15.1Q118.84 15.05 118.74 14.99Q118.55 14.88 118.39 14.74Q118.1 14.49 117.9 14.13Q117.89 14.1 117.87 14.08Q117.59 13.53 117.59 12.84Q117.59 12.13 117.89 11.58Q117.9 11.57 117.9 11.56Q118.09 11.22 118.37 10.96Q118.54 10.81 118.74 10.69Q118.86 10.62 118.99 10.57Q119.43 10.38 119.95 10.38Q120.41 10.38 120.81 10.53Q120.99 10.6 121.15 10.69Q121.38 10.83 121.57 11.01Q121.82 11.25 121.99 11.56Q122 11.58 122.01 11.59Q122.3 12.14 122.3 12.84Q122.3 13.52 122.03 14.06Q122.01 14.09 121.99 14.13Q121.81 14.46 121.55 14.7Q121.37 14.87 121.15 14.99Q121 15.07 120.86 15.13Z" fill="#9EACBC" fill-opacity="1.000000" fill-rule="evenodd"/>
	<g filter="url(#filter_33_2398_dd)">
		<rect id="Rectangle 50" y="24.000000" rx="30.000000" width="192.000000" height="218.000000" fill="#0B0B10" fill-opacity="1.000000"/>
	</g>
	<g filter="url(#filter_33_2400_dd)">
		<rect id="Rectangle 51" x="12.000000" y="45.000000" rx="19.000000" width="54.000000" height="56.000000" fill="#0B0B10" fill-opacity="1.000000"/>
	</g>
	<g filter="url(#filter_33_2401_dd)">
		<rect id="Rectangle 54" x="12.000000" y="104.000000" rx="19.000000" width="54.000000" height="56.000000" fill="#0B0B10" fill-opacity="1.000000"/>
	</g>
	<g filter="url(#filter_33_2402_dd)">
		<rect id="Rectangle 57" x="12.000000" y="163.000000" rx="19.000000" width="54.000000" height="56.000000" fill="#0B0B10" fill-opacity="1.000000"/>
	</g>
	<g filter="url(#filter_33_2403_dd)">
		<rect id="Rectangle 52" x="69.000000" y="45.000000" rx="19.000000" width="54.000000" height="56.000000" fill="#0B0B10" fill-opacity="1.000000"/>
	</g>
	<rect id="Rectangle 55" x="69.000000" y="104.000000" rx="19.000000" width="54.000000" height="56.000000" fill="#DD9D4D" fill-opacity="1.000000"/>
	<rect id="Rectangle 55" x="69.000000" y="104.000000" rx="19.000000" width="54.000000" height="56.000000" fill="url(#paint_linear_33_2404_0)" fill-opacity="1.000000"/>
	<rect id="Rectangle 55" x="69.000000" y="104.000000" rx="19.000000" width="54.000000" height="56.000000" fill="url(#paint_linear_33_2404_1)" fill-opacity="1.000000"/>
	<rect id="Rectangle 55" x="69.000000" y="104.000000" rx="19.000000" width="54.000000" height="56.000000" fill="#C1A875" fill-opacity="1.000000"/>
	<g filter="url(#filter_33_2405_dd)">
		<rect id="Rectangle 58" x="69.000000" y="163.000000" rx="19.000000" width="54.000000" height="56.000000" fill="#0B0B10" fill-opacity="1.000000"/>
	</g>
	<g filter="url(#filter_33_2406_dd)">
		<rect id="Rectangle 53" x="126.000000" y="45.000000" rx="19.000000" width="54.000000" height="56.000000" fill="#0B0B10" fill-opacity="1.000000"/>
	</g>
	<g filter="url(#filter_33_2407_dd)">
		<rect id="Rectangle 56" x="126.000000" y="104.000000" rx="19.000000" width="54.000000" height="56.000000" fill="#0B0B10" fill-opacity="1.000000"/>
	</g>
	<g filter="url(#filter_33_2408_dd)">
		<rect id="Rectangle 59" x="126.000000" y="163.000000" rx="19.000000" width="54.000000" height="56.000000" fill="#0B0B10" fill-opacity="1.000000"/>
	</g>
	<path id="Litecoin" d="M94.01 78.65L95.43 73.55L97.64 72.88L98.1 71.19L95.92 71.9L98.23 63.52L98.23 63.39C98.23 63.34 98.22 63.28 98.2 63.23C98.18 63.19 98.15 63.14 98.11 63.1C98.08 63.07 98.03 63.04 97.99 63.02C97.94 63 97.89 62.99 97.84 63L94.9 63C94.79 62.99 94.68 63.03 94.59 63.1C94.5 63.17 94.44 63.27 94.41 63.38L91.67 73.3L89.49 74.01L89 75.63L91.17 74.92L89.23 81.99L100.84 81.99C100.95 82 101.06 81.96 101.15 81.89C101.24 81.82 101.31 81.72 101.34 81.61L102 79.18L102 79.05C101.99 78.99 101.98 78.94 101.96 78.89C101.94 78.84 101.91 78.8 101.87 78.76C101.84 78.73 101.79 78.7 101.75 78.68C101.7 78.66 101.65 78.65 101.6 78.65L94.01 78.65Z" fill="#345D9D" fill-opacity="1.000000" fill-rule="nonzero"/>
	<path id="Tether" d="M146 64L159.25 64C159.57 64 159.86 64.16 160.02 64.42L163.88 70.78C164.08 71.11 164.02 71.53 163.73 71.79L153.11 81.75C152.77 82.08 152.21 82.08 151.87 81.75L141.26 71.81C140.97 71.53 140.91 71.1 141.13 70.77L145.25 64.39C145.41 64.15 145.7 64 146 64ZM157.54 66.84L157.54 68.62L153.77 68.62L153.77 69.86C156.42 69.99 158.41 70.54 158.42 71.19L158.42 72.55C158.41 73.2 156.42 73.74 153.77 73.87L153.77 76.91L151.26 76.91L151.26 73.87C148.61 73.74 146.62 73.2 146.61 72.55L146.61 71.19C146.62 70.54 148.61 69.99 151.26 69.86L151.26 68.62L147.49 68.62L147.49 66.84L157.54 66.84ZM152.52 72.94C155.34 72.94 157.71 72.48 158.29 71.87C157.8 71.35 156.02 70.94 153.77 70.82L153.77 72.12C153.36 72.14 152.95 72.15 152.52 72.15C152.09 72.15 151.67 72.14 151.26 72.12L151.26 70.82C149.01 70.94 147.23 71.35 146.74 71.87C147.32 72.48 149.69 72.94 152.52 72.94Z" fill="#009393" fill-opacity="1.000000" fill-rule="evenodd"/>
	<path id="Tether" d="M89 182L102.25 182C102.57 182 102.86 182.16 103.02 182.42L106.88 188.78C107.08 189.11 107.02 189.53 106.73 189.79L96.11 199.75C95.76 200.08 95.21 200.08 94.87 199.75L84.26 189.81C83.97 189.53 83.91 189.11 84.13 188.77L88.25 182.4C88.41 182.15 88.7 182 89 182ZM100.54 184.84L100.54 186.62L96.77 186.62L96.77 187.86C99.42 187.99 101.41 188.54 101.42 189.19L101.42 190.55C101.41 191.2 99.42 191.74 96.77 191.87L96.77 194.91L94.26 194.91L94.26 191.87C91.61 191.74 89.62 191.2 89.61 190.55L89.61 189.19C89.62 188.54 91.61 187.99 94.26 187.86L94.26 186.62L90.49 186.62L90.49 184.84L100.54 184.84ZM95.51 190.94C98.34 190.94 100.71 190.48 101.29 189.87C100.8 189.35 99.02 188.94 96.77 188.82L96.77 190.12C96.36 190.14 95.94 190.15 95.51 190.15C95.08 190.15 94.67 190.14 94.26 190.12L94.26 188.82C92.01 188.94 90.23 189.35 89.74 189.87C90.32 190.48 92.69 190.94 95.51 190.94Z" fill="#009393" fill-opacity="1.000000" fill-rule="evenodd"/>
	<path id="Coin" d="M165.77 82.31C164.77 86.32 160.7 88.77 156.68 87.77C152.67 86.77 150.22 82.7 151.22 78.68C152.22 74.67 156.28 72.22 160.3 73.22C164.32 74.21 166.77 78.29 165.77 82.31Z" fill="#FF060A" fill-opacity="1.000000" fill-rule="evenodd"/>
	<path id="TRON" d="M162.97 79.48C162.53 79.07 161.92 78.45 161.42 78.01L161.39 77.99C161.34 77.95 161.29 77.92 161.23 77.9C160.04 77.68 154.48 76.64 154.37 76.65C154.34 76.66 154.31 76.67 154.29 76.68L154.26 76.71C154.23 76.74 154.2 76.78 154.18 76.83L154.18 76.85L154.18 76.95L154.18 76.97C154.8 78.71 157.27 84.42 157.76 85.75C157.79 85.85 157.84 86.02 157.95 86.03L157.97 86.03C158.03 86.03 158.26 85.71 158.26 85.71C158.26 85.71 162.5 80.57 162.93 80.02C162.99 79.95 163.04 79.88 163.08 79.8C163.09 79.74 163.09 79.68 163.07 79.62C163.05 79.57 163.01 79.52 162.97 79.48ZM159.35 80.08L161.16 78.57L162.22 79.55L159.35 80.08ZM158.65 79.98L155.53 77.42L160.57 78.35L158.65 79.98ZM158.93 80.65L162.12 80.13L158.47 84.53L158.93 80.65ZM155.11 77.68L158.39 80.46L157.91 84.53L155.11 77.68Z" fill="#FFFFFF" fill-opacity="1.000000" fill-rule="evenodd"/>
	<path id="BNB" d="M38.49 121L32.68 124.37L34.82 125.61L38.49 123.48L42.17 125.61L44.31 124.37L38.49 121ZM31.13 130.22L31.13 127.74L33.28 126.49L31.13 125.25L29 126.49L29 128.97L31.13 130.22ZM38.49 125.25L36.35 126.49L38.49 127.74L40.64 126.49L38.49 125.25ZM45.84 125.25L43.71 126.49L45.84 127.74L45.84 130.22L47.99 128.97L47.99 126.49L45.84 125.25ZM44.32 131.11L44.31 128.62L44.32 128.62L42.17 127.38L38.49 129.51L34.83 127.38L32.68 128.62L32.68 131.11L36.36 133.24L36.36 137.51L38.5 138.74L40.64 137.51L40.64 133.24L44.32 131.11ZM48 130.75L45.86 132L45.84 136.25L42.17 138.38L42.17 140.87L48 137.51L48 130.75ZM31.15 136.25L31.13 132L29 130.75L29 137.51L34.82 140.87L34.82 138.38L31.15 136.25ZM44.31 135.37L44.31 132.88L42.17 134.12L42.17 136.6L44.31 135.37ZM34.82 134.12L32.68 132.88L32.68 135.37L34.82 136.6L34.82 134.12ZM38.49 140.52L36.35 139.27L36.35 141.75L38.49 143L40.64 141.75L40.64 139.27L38.49 140.52Z" fill="#F0B90B" fill-opacity="1.000000" fill-rule="evenodd"/>
	<path id="Ethereum" d="M152.52 135.49C152.45 135.51 152.42 135.46 152.37 135.43C150.27 134.2 148.16 132.96 146.06 131.73C146.04 131.72 146.02 131.71 146 131.7L146 131.67L146.03 131.65C146.09 131.64 146.14 131.62 146.19 131.6L151.16 129.36C151.6 129.16 152.04 128.96 152.48 128.76L152.52 128.76C152.52 128.83 152.52 128.88 152.52 128.94C152.52 131.13 152.52 133.31 152.52 135.49Z" fill="#343535" fill-opacity="1.000000" fill-rule="nonzero"/>
	<path id="Ethereum" d="M152.52 128.77L152.49 128.77C152.49 128.7 152.49 128.64 152.49 128.57C152.49 126.12 152.49 123.67 152.49 121.22C152.49 121.15 152.49 121.09 152.51 121.03L152.52 121.03C152.78 121.41 153.01 121.81 153.25 122.2C155.14 125.32 157.03 128.44 158.92 131.56C158.94 131.59 158.96 131.62 158.97 131.65C158.92 131.64 158.87 131.63 158.82 131.61C158.47 131.45 158.12 131.29 157.78 131.13C157.24 130.89 156.7 130.64 156.16 130.4L153.56 129.23C153.22 129.07 152.87 128.92 152.52 128.77Z" fill="#2F3030" fill-opacity="1.000000" fill-rule="nonzero"/>
	<path id="Ethereum" d="M152.51 121.02C152.49 121.09 152.49 121.15 152.5 121.21C152.5 123.67 152.5 126.12 152.5 128.57C152.5 128.63 152.49 128.7 152.49 128.76C152.05 128.96 151.61 129.16 151.16 129.36L146.2 131.6C146.14 131.62 146.09 131.64 146.04 131.65C146.18 131.36 146.37 131.09 146.54 130.8C148.51 127.55 150.48 124.3 152.46 121.05C152.47 121.03 152.48 121.02 152.5 121L152.51 121.02Z" fill="#828384" fill-opacity="1.000000" fill-rule="nonzero"/>
	<path id="Ethereum" d="M152.52 128.77C152.87 128.92 153.22 129.07 153.56 129.23L156.16 130.4C156.7 130.64 157.24 130.89 157.78 131.13C158.12 131.29 158.47 131.45 158.82 131.6C158.87 131.62 158.92 131.64 158.97 131.65C159.04 131.73 158.94 131.73 158.92 131.75C158.38 132.07 157.83 132.38 157.29 132.7C155.74 133.61 154.19 134.52 152.64 135.43C152.6 135.46 152.56 135.47 152.52 135.49C152.52 133.31 152.52 131.13 152.52 128.94C152.52 128.88 152.52 128.83 152.52 128.77Z" fill="#131313" fill-opacity="1.000000" fill-rule="nonzero"/>
	<path id="Ethereum" d="M152.49 136.73L156.56 134.36C157.33 133.9 158.11 133.45 158.88 132.99L158.95 132.95C158.96 133.02 158.92 133.05 158.89 133.09C157.12 135.56 155.35 138.04 153.58 140.52C153.24 140.99 152.91 141.46 152.57 141.92C152.55 141.95 152.53 142.06 152.47 141.94C152.51 141.9 152.5 141.86 152.5 141.82C152.5 140.12 152.5 138.43 152.49 136.73Z" fill="#2F3030" fill-opacity="1.000000" fill-rule="nonzero"/>
	<path id="Ethereum" d="M152.49 136.73C152.49 138.43 152.49 140.12 152.49 141.81C152.49 141.86 152.51 141.9 152.47 141.94C152.38 141.88 152.34 141.79 152.28 141.71C150.23 138.84 148.18 135.97 146.13 133.1C146.1 133.06 146.08 133.02 146.05 132.98C146.1 132.95 146.13 132.99 146.16 133.01C148.24 134.23 150.31 135.44 152.39 136.66C152.43 136.69 152.46 136.71 152.49 136.73Z" fill="#828384" fill-opacity="1.000000" fill-rule="nonzero"/>
	<path id="Ethereum" d="M152.51 121.02L152.49 121C152.52 120.98 152.52 121.01 152.52 121.02L152.51 121.02Z" fill="#393939" fill-opacity="1.000000" fill-rule="nonzero"/>
	<g opacity="0.800000">
		<path id="Element" d="M162.14 186.5C160.32 181.86 155.82 181 155.82 181L143 181L143.05 185.72L145.6 185.72L145.6 196.28L143 196.28L143 201L155.47 201C158.47 201 160.88 198.01 160.88 198.01C164.74 192.6 162.14 186.5 162.14 186.5L162.14 186.5ZM155.53 194.83C155.53 194.83 154.56 196.23 153.49 196.23L151.36 196.23L151.31 185.73L154.04 185.73C154.04 185.73 155.31 186 156.19 188.47C156.19 188.47 157.37 192.02 155.53 194.83Z" fill="#BA9F33" fill-opacity="1.000000" fill-rule="evenodd"/>
	</g>
	<path id="Coin" d="M108.77 200.31C107.77 204.32 103.7 206.77 99.68 205.77C95.67 204.77 93.22 200.7 94.22 196.69C95.22 192.67 99.28 190.22 103.3 191.22C107.32 192.21 109.77 196.29 108.77 200.31Z" fill="#F0B90B" fill-opacity="1.000000" fill-rule="nonzero"/>
	<path id="BNB" d="M101.49 193.06L98.62 194.75L99.67 195.37L101.49 194.3L103.3 195.37L104.36 194.75L101.49 193.06ZM97.86 197.68L97.86 196.44L98.92 195.81L97.86 195.19L96.8 195.81L96.8 197.06L97.86 197.68ZM101.49 195.19L100.43 195.81L101.49 196.44L102.55 195.81L101.49 195.19ZM105.12 195.19L104.06 195.81L105.12 196.44L105.12 197.68L106.18 197.06L106.18 195.81L105.12 195.19ZM104.36 198.13L104.36 196.88L104.36 196.88L103.3 196.26L101.49 197.33L99.68 196.26L98.62 196.88L98.62 198.13L100.44 199.2L100.44 201.33L101.49 201.95L102.55 201.33L102.55 199.2L104.36 198.13ZM106.18 197.95L105.12 198.57L105.12 200.7L103.3 201.77L103.3 203.02L106.18 201.33L106.18 197.95ZM97.86 200.7L97.86 198.57L96.8 197.95L96.8 201.33L99.67 203.02L99.67 201.77L97.86 200.7ZM104.36 200.26L104.36 199.01L103.3 199.64L103.3 200.88L104.36 200.26ZM99.67 199.64L98.62 199.01L98.62 200.26L99.67 200.88L99.67 199.64ZM101.49 202.84L100.43 202.22L100.43 203.46L101.49 204.08L102.55 203.46L102.55 202.22L101.49 202.84Z" fill="#FFFFFF" fill-opacity="1.000000" fill-rule="evenodd"/>
	<path id="TRON" d="M48.72 186.32C47.74 185.41 46.37 184.03 45.26 183.04L45.2 182.99C45.09 182.91 44.96 182.84 44.83 182.79C42.15 182.29 29.68 179.97 29.44 180C29.37 180.01 29.3 180.03 29.24 180.07L29.18 180.12C29.11 180.2 29.05 180.29 29.01 180.39L29 180.44L29 180.67L29 180.7C30.4 184.61 35.94 197.39 37.03 200.39C37.1 200.59 37.22 200.98 37.46 201L37.51 201C37.64 201 38.17 200.29 38.17 200.29C38.17 200.29 47.69 188.77 48.65 187.54C48.78 187.39 48.89 187.23 48.98 187.06C49.01 186.92 49 186.78 48.95 186.66C48.9 186.53 48.83 186.41 48.72 186.32ZM40.61 187.66L44.68 184.3L47.06 186.49L40.61 187.66ZM39.03 187.44L32.04 181.72L43.36 183.81L39.03 187.44ZM39.66 188.94L46.83 187.79L38.64 197.64L39.66 188.94ZM31.09 182.29L38.45 188.53L37.38 197.64L31.09 182.29Z" fill="#FF060A" fill-opacity="1.000000" fill-rule="nonzero"/>
	<path id="Symbol" d="M45.96 70.35C46.25 68.13 44.65 66.98 42.46 66.2L43.14 63.2L41.4 62.76L40.74 65.69C40.28 65.58 39.82 65.46 39.36 65.37L40.02 62.43L38.27 62L37.59 64.99C37.22 64.9 36.84 64.83 36.47 64.74L34.08 64.13L33.64 66.07C33.64 66.07 34.94 66.37 34.89 66.4C35.59 66.58 35.72 67.06 35.7 67.43L34.93 70.85C34.98 70.87 35.04 70.87 35.11 70.92C35.04 70.9 35 70.9 34.93 70.87L33.88 75.65C33.79 75.88 33.57 76.21 33.09 76.09C33.11 76.11 31.82 75.77 31.82 75.77L31 77.87L33.25 78.42C33.67 78.53 34.09 78.63 34.48 78.75L33.8 81.77L35.53 82.21L36.21 79.21C36.7 79.35 37.16 79.47 37.6 79.58L36.92 82.56L38.65 83L39.33 79.97C42.29 80.53 44.5 80.27 45.4 77.43C46.12 75.17 45.33 73.88 43.75 73.02C44.91 72.75 45.75 71.96 45.96 70.35ZM42.06 76.23C41.56 78.49 37.92 77.31 36.76 77.01L37.65 73C38.84 73.3 42.59 73.85 42.06 76.23ZM42.54 70.35C42.08 72.4 39.06 71.41 38.07 71.16L38.91 67.51C39.87 67.76 43.03 68.2 42.54 70.35Z" fill="#F7931A" fill-opacity="1.000000" fill-rule="nonzero"/>
	<rect id="top BG" x="4.000000" y="28.000000" rx="30.000000" width="184.000000" height="210.000000" fill="url(#paint_radial_33_2424_0)" fill-opacity="1.000000"/>
	<path id="Vector" d="M111.01 123C111.99 123 112.73 123.24 113.23 123.74C113.74 124.23 114 124.96 114 125.91L114 128.72L112.65 128.72L112.65 125.91C112.65 125.37 112.49 124.95 112.19 124.67C111.89 124.38 111.45 124.23 110.87 124.23C110.48 124.23 110.11 124.32 109.79 124.51C109.46 124.69 109.22 124.94 109.06 125.25L109.06 128.72L107.71 128.72L107.71 123.13L108.97 123.13L109.01 123.74C109.53 123.26 110.19 123.01 111.01 123Z" fill="#0B0B10" fill-opacity="1.000000" fill-rule="nonzero"/>
	<path id="Vector" d="M106.34 126.37L101.19 126.37C101.24 126.77 101.43 127.08 101.76 127.3C102.1 127.51 102.54 127.62 103.09 127.62C103.61 127.62 104.03 127.55 104.35 127.4C104.67 127.25 104.85 127.04 104.89 126.79L106.34 126.79C106.26 127.45 105.94 127.96 105.37 128.32C104.81 128.68 104.05 128.86 103.09 128.86C102.41 128.86 101.82 128.74 101.32 128.52C100.83 128.29 100.45 127.96 100.18 127.54C99.91 127.12 99.77 126.62 99.77 126.05L99.77 125.82C99.77 125.25 99.91 124.75 100.18 124.32C100.45 123.89 100.83 123.57 101.33 123.34C101.83 123.11 102.42 123 103.09 123C104.11 123 104.91 123.24 105.48 123.74C106.05 124.23 106.34 124.91 106.34 125.78L106.34 126.37ZM103.08 124.23C102.59 124.23 102.18 124.32 101.86 124.5C101.54 124.68 101.33 124.93 101.23 125.25L104.88 125.25C104.79 124.93 104.59 124.68 104.27 124.5C103.96 124.32 103.56 124.23 103.08 124.23Z" fill="#0B0B10" fill-opacity="1.000000" fill-rule="nonzero"/>
	<path id="Vector" d="M99.25 123.13L99.25 123.32L96.53 128.72L94.78 128.72L92.05 123.32L92.05 123.13L93.45 123.13L95.65 127.54L97.84 123.13L99.25 123.13Z" fill="#0B0B10" fill-opacity="1.000000" fill-rule="nonzero"/>
	<path id="Vector" d="M91.53 126.37L86.37 126.37C86.43 126.77 86.62 127.08 86.95 127.3C87.28 127.51 87.73 127.62 88.28 127.62C88.8 127.62 89.22 127.55 89.54 127.4C89.86 127.25 90.04 127.04 90.08 126.79L91.53 126.79C91.45 127.45 91.13 127.96 90.56 128.32C90 128.68 89.24 128.86 88.28 128.86C87.6 128.86 87.01 128.74 86.51 128.52C86.01 128.29 85.63 127.96 85.36 127.54C85.09 127.12 84.96 126.62 84.96 126.05L84.96 125.82C84.96 125.25 85.09 124.75 85.36 124.32C85.63 123.89 86.02 123.57 86.52 123.34C87.02 123.11 87.61 123 88.28 123C89.3 123 90.09 123.24 90.66 123.74C91.24 124.23 91.53 124.91 91.53 125.78L91.53 126.37ZM88.27 124.23C87.78 124.23 87.37 124.32 87.05 124.5C86.72 124.68 86.52 124.93 86.42 125.25L90.07 125.25C89.98 124.93 89.77 124.68 89.46 124.5C89.15 124.32 88.75 124.23 88.27 124.23Z" fill="#0B0B10" fill-opacity="1.000000" fill-rule="nonzero"/>
	<path id="Vector" d="M80.66 128.86C79.63 128.86 78.82 128.7 78.24 128.37C77.66 128.04 77.37 127.59 77.37 127L77.37 126.93L78.72 126.93L78.72 127C78.72 127.23 78.88 127.39 79.19 127.5C79.51 127.59 80.01 127.64 80.7 127.64C81.86 127.64 82.44 127.46 82.44 127.09L82.44 127.03C82.44 126.89 82.36 126.79 82.19 126.72C82.03 126.66 81.72 126.6 81.28 126.55L79.91 126.42C79.1 126.35 78.5 126.18 78.13 125.93C77.75 125.66 77.57 125.3 77.57 124.83L77.57 124.71C77.57 124.17 77.83 123.76 78.37 123.46C78.92 123.15 79.68 123 80.65 123C81.66 123 82.43 123.16 82.98 123.48C83.53 123.8 83.81 124.26 83.81 124.85L83.81 124.93L82.46 124.93L82.46 124.85C82.46 124.62 82.31 124.46 82.01 124.37C81.72 124.26 81.25 124.21 80.61 124.21C80.08 124.21 79.67 124.25 79.38 124.33C79.1 124.41 78.96 124.53 78.96 124.68L78.96 124.75C78.96 124.89 79.03 125 79.18 125.07C79.33 125.14 79.58 125.19 79.92 125.23L81.32 125.36C82.2 125.45 82.84 125.62 83.24 125.88C83.63 126.14 83.83 126.52 83.83 127L83.83 127.12C83.83 127.66 83.55 128.09 82.99 128.39C82.43 128.7 81.65 128.86 80.66 128.86Z" fill="#0B0B10" fill-opacity="1.000000" fill-rule="nonzero"/>
	<path id="Vector" d="M116 135.64C116 136.39 115.77 137 115.32 137.47C114.87 137.94 114.22 138.24 113.37 138.37L115.94 141.29L115.94 141.67L113.13 141.67L110.39 138.44L108.94 138.44L108.94 141.67L106.45 141.67L106.45 132.45L112.37 132.45C113.49 132.45 114.38 132.72 115.03 133.27C115.67 133.81 116 134.55 116 135.5L116 135.64ZM113.46 135.49C113.46 134.91 113.08 134.61 112.31 134.61L108.94 134.61L108.94 136.51L112.31 136.51C112.69 136.51 112.97 136.44 113.17 136.29C113.37 136.14 113.46 135.92 113.46 135.63L113.46 135.49Z" fill="#0B0B10" fill-opacity="1.000000" fill-rule="nonzero"/>
	<path id="Vector" d="M105.37 141.29L105.37 141.67L102.91 141.67L102.19 139.97L97.89 139.97L97.17 141.67L94.71 141.67L94.71 141.29L98.67 132.45L101.42 132.45L105.37 141.29ZM101.32 137.88L100.04 134.83L98.76 137.88L101.32 137.88Z" fill="#0B0B10" fill-opacity="1.000000" fill-rule="nonzero"/>
	<path id="Vector" d="M86.22 134.67L86.22 132.45L95.54 132.45L95.54 134.67L92.12 134.67L92.12 141.67L89.63 141.67L89.63 134.67L86.22 134.67Z" fill="#0B0B10" fill-opacity="1.000000" fill-rule="nonzero"/>
	<path id="Vector" d="M81.01 141.86C79.48 141.86 78.32 141.57 77.51 141.01C76.71 140.45 76.32 139.63 76.32 138.57L76.32 138.42L78.75 138.42L78.75 138.57C78.75 138.95 78.95 139.25 79.35 139.45C79.76 139.65 80.34 139.75 81.11 139.75C82.48 139.75 83.16 139.49 83.16 138.97L83.16 138.88C83.16 138.69 83.07 138.54 82.88 138.44C82.69 138.33 82.39 138.24 81.97 138.17L79.48 137.79C78.47 137.63 77.71 137.35 77.2 136.93C76.71 136.52 76.46 135.96 76.46 135.26L76.46 135.12C76.46 134.22 76.84 133.52 77.61 133.03C78.39 132.52 79.48 132.27 80.89 132.27C82.37 132.27 83.5 132.54 84.29 133.08C85.09 133.62 85.48 134.39 85.48 135.4L85.48 135.51L83.07 135.51L83.07 135.4C83.07 134.72 82.34 134.38 80.89 134.38C80.25 134.38 79.77 134.44 79.44 134.56C79.11 134.67 78.95 134.84 78.95 135.06L78.95 135.16C78.95 135.32 79.03 135.45 79.2 135.54C79.38 135.63 79.67 135.7 80.08 135.77L82.57 136.15C83.63 136.31 84.41 136.6 84.92 137.03C85.44 137.45 85.69 138.03 85.69 138.76L85.69 138.9C85.69 139.84 85.28 140.57 84.46 141.08C83.64 141.6 82.49 141.86 81.01 141.86Z" fill="#0B0B10" fill-opacity="1.000000" fill-rule="nonzero"/>
</svg>
