<svg width="19.000000" height="19.000000" viewBox="0 0 19 19" fill="none" xmlns="http://www.w3.org/2000/svg" xmlns:xlink="http://www.w3.org/1999/xlink">
	<desc>
			Created with Pixso.
	</desc>
	<defs/>
	<path id="Coin" d="M18.71 11.79C17.45 16.87 12.29 19.98 7.2 18.71C2.11 17.44 -0.99 12.29 0.28 7.2C1.55 2.12 6.69 -0.99 11.78 0.28C16.88 1.53 19.98 6.7 18.71 11.79Z" fill="#F7931A" fill-opacity="1.000000" fill-rule="nonzero"/>
	<path id="Symbol" d="M13.99 8.25C14.16 6.98 13.2 6.32 11.88 5.87L12.29 4.16L11.25 3.91L10.85 5.58C10.58 5.52 10.3 5.45 10.02 5.4L10.42 3.72L9.36 3.47L8.95 5.18C8.73 5.13 8.5 5.09 8.28 5.04L6.84 4.69L6.58 5.8C6.58 5.8 7.36 5.97 7.33 5.99C7.75 6.09 7.83 6.37 7.82 6.58L7.35 8.53C7.38 8.55 7.42 8.55 7.46 8.57C7.42 8.56 7.39 8.56 7.35 8.55L6.72 11.28C6.67 11.41 6.53 11.6 6.24 11.53C6.26 11.54 5.48 11.35 5.48 11.35L4.98 12.55L6.34 12.86C6.6 12.93 6.85 12.98 7.08 13.05L6.67 14.78L7.72 15.03L8.13 13.32C8.42 13.39 8.69 13.46 8.96 13.53L8.55 15.23L9.59 15.48L10 13.75C11.78 14.07 13.12 13.92 13.66 12.3C14.09 11 13.61 10.27 12.66 9.78C13.36 9.62 13.86 9.17 13.99 8.25ZM11.65 11.61C11.34 12.9 9.15 12.23 8.45 12.06L8.99 9.76C9.71 9.94 11.96 10.25 11.65 11.61ZM11.94 8.25C11.66 9.42 9.84 8.86 9.24 8.71L9.75 6.63C10.33 6.77 12.23 7.02 11.94 8.25Z" fill="#FFFFFF" fill-opacity="1.000000" fill-rule="nonzero"/>
</svg>
