<svg width="519.948059" height="96.084717" viewBox="0 0 519.948 96.0847" fill="none" xmlns="http://www.w3.org/2000/svg" xmlns:xlink="http://www.w3.org/1999/xlink">
	<desc>
			Created with Pixso.
	</desc>
	<defs>
		<linearGradient x1="14.998901" y1="77.135254" x2="432.998901" y2="77.135254" id="paint_linear_33_2335_0" gradientUnits="userSpaceOnUse">
			<stop stop-color="#DD9E4D"/>
			<stop offset="0.456666" stop-color="#D42D20"/>
			<stop offset="1.000000" stop-color="#1C202B"/>
		</linearGradient>
		<linearGradient x1="38.174259" y1="82.278259" x2="432.998993" y2="75.408966" id="paint_linear_33_2335_1" gradientUnits="userSpaceOnUse">
			<stop stop-color="#576265"/>
			<stop offset="0.172016" stop-color="#9EA1A1"/>
			<stop offset="0.457410" stop-color="#848B8A"/>
			<stop offset="0.553567" stop-color="#576265"/>
			<stop offset="0.823421" stop-color="#576265"/>
			<stop offset="0.925155" stop-color="#757A7B"/>
			<stop offset="1.000000" stop-color="#576265"/>
		</linearGradient>
		<linearGradient x1="181.861801" y1="77.135201" x2="76.097687" y2="56.635170" id="paint_linear_33_2335_2" gradientUnits="userSpaceOnUse">
			<stop stop-color="#FFFFFF" stop-opacity="0.000000"/>
			<stop offset="1.000000" stop-color="#FFFFFF"/>
		</linearGradient>
	</defs>
	<rect id="Rectangle 47" x="14.998901" y="56.635254" rx="9.000000" width="418.000000" height="41.000000" transform="rotate(-7.94706 14.998901 56.635254)" fill="url(#paint_linear_33_2335_0)" fill-opacity="0"/>
	<rect id="Rectangle 47" x="14.998901" y="56.635254" rx="9.000000" width="418.000000" height="41.000000" transform="rotate(-7.94706 14.998901 56.635254)" fill="url(#paint_linear_33_2335_1)" fill-opacity="1.000000"/>
	<rect id="Rectangle 47" x="14.998901" y="56.635254" rx="9.000000" width="418.000000" height="41.000000" transform="rotate(-7.94706 14.998901 56.635254)" fill="url(#paint_linear_33_2335_2)" fill-opacity="1.000000"/>
	<rect id="Rectangle 47" x="14.998901" y="56.635254" rx="9.000000" width="418.000000" height="41.000000" transform="rotate(-7.94706 14.998901 56.635254)" fill="#C1A875" fill-opacity="1.000000"/>
	<path id="Daily Daily Daily Daily Daily Daily Daily" d="M10.73 75.46C9.49 74.64 7.79 74.39 5.64 74.7L7.15e-6 75.52L1.68 87.2L7.33 86.39Q10.56 85.92 12 84.24Q12.26 83.94 12.47 83.6Q13.39 82.04 13.06 79.72L13.03 79.49Q12.69 77.18 11.36 75.94Q11.07 75.67 10.73 75.46ZM27.62 83.46L27.58 83.12L20.59 72.54L18.13 72.9L14.43 85.02L14.48 85.36L16.74 85.03L17.56 82.18L23.76 81.29L25.36 83.78L27.62 83.46ZM31.68 82.87L29.99 71.18L27.76 71.51L29.45 83.19L31.68 82.87ZM36.68 80.11L35.28 70.42L33.05 70.74L34.74 82.43L45.23 80.91L44.94 78.92L36.68 80.11ZM54.59 67.98L54.54 67.64L52.05 68L48.85 73.59L44.21 69.13L41.71 69.49L41.76 69.83L48.05 75.85L48.71 80.41L50.94 80.09L50.28 75.53L54.59 67.98ZM86.83 64.46C85.59 63.65 83.89 63.4 81.74 63.71L76.09 64.52L77.78 76.21L83.43 75.39C85.58 75.08 87.13 74.37 88.1 73.25C89.08 72.11 89.43 70.6 89.16 68.73L89.12 68.5C88.85 66.62 88.09 65.28 86.83 64.46ZM103.72 72.46L103.67 72.12L96.69 61.55L94.23 61.9L90.52 74.02L90.57 74.36L92.84 74.03L93.66 71.19L99.86 70.29L101.46 72.79L103.72 72.46ZM107.77 71.88L106.09 60.19L103.86 60.51L105.55 72.2L107.77 71.88ZM112.77 69.12L111.37 59.43L109.15 59.75L110.84 71.43L121.33 69.92L121.04 67.92L112.77 69.12ZM130.69 56.98L130.64 56.64L128.14 57L124.95 62.59L120.31 58.14L117.81 58.5L117.86 58.83L124.15 64.86L124.81 69.42L127.04 69.09L126.38 64.53L130.69 56.98ZM162.93 53.47C161.68 52.66 159.99 52.4 157.84 52.71L152.19 53.53L153.88 65.22L159.52 64.4C161.67 64.09 163.23 63.37 164.2 62.25C165.17 61.12 165.53 59.61 165.25 57.73L165.22 57.5C164.95 55.63 164.19 54.28 162.93 53.47ZM179.82 61.47L179.77 61.13L172.79 50.55L170.33 50.91L166.62 63.03L166.67 63.37L168.93 63.04L169.76 60.19L175.96 59.3L177.56 61.8L179.82 61.47ZM183.87 60.88L182.18 49.2L179.96 49.52L181.64 61.2L183.87 60.88ZM188.87 58.12L187.47 48.43L185.24 48.75L186.93 60.44L197.43 58.92L197.14 56.93L188.87 58.12ZM206.78 45.99L206.74 45.65L204.24 46.01L201.05 51.6L196.4 47.14L193.91 47.5L193.96 47.84L200.25 53.86L200.91 58.42L203.13 58.1L202.47 53.54L206.78 45.99ZM239.03 42.48C237.78 41.66 236.08 41.41 233.93 41.72L228.29 42.54L229.97 54.22L235.62 53.41C237.77 53.1 239.33 52.38 240.29 51.26C241.27 50.12 241.62 48.62 241.35 46.74L241.32 46.51C241.05 44.63 240.28 43.29 239.03 42.48ZM255.91 50.47L255.87 50.14L248.88 39.56L246.42 39.92L242.72 52.04L242.77 52.37L245.03 52.05L245.85 49.2L252.05 48.3L253.65 50.8L255.91 50.47ZM259.97 49.89L258.28 38.2L256.05 38.52L257.74 50.21L259.97 49.89ZM264.97 47.13L263.57 37.44L261.34 37.76L263.03 49.45L273.52 47.93L273.23 45.94L264.97 47.13ZM282.88 34.99L282.83 34.66L280.34 35.02L277.14 40.61L272.5 36.15L270.01 36.51L270.05 36.85L276.34 42.87L277 47.43L279.23 47.11L278.57 42.55L282.88 34.99ZM315.12 31.48C313.88 30.67 312.18 30.42 310.03 30.73L304.38 31.54L306.07 43.23L311.72 42.41C313.87 42.1 315.43 41.39 316.39 40.26Q316.65 39.96 316.85 39.62Q317.78 38.06 317.45 35.75L317.41 35.52Q317.08 33.2 315.75 31.97Q315.46 31.7 315.12 31.48ZM332.01 39.48L331.96 39.14L324.98 28.57L322.52 28.92L318.81 41.04L318.86 41.38L321.13 41.05L321.95 38.21L328.15 37.31L329.75 39.81L332.01 39.48ZM336.06 38.9L334.38 27.21L332.15 27.53L333.84 39.22L336.06 38.9ZM341.06 36.14L339.66 26.44L337.44 26.77L339.13 38.45L349.62 36.94L349.33 34.94L341.06 36.14ZM358.98 24L358.93 23.66L356.43 24.02L353.24 29.61L348.6 25.15L346.1 25.51L346.15 25.85L352.44 31.87L353.1 36.43L355.33 36.11L354.67 31.55L358.98 24ZM398.35 19.46C397.11 18.64 395.41 18.39 393.26 18.7L387.61 19.52L389.3 31.2L394.95 30.39C397.1 30.08 398.65 29.36 399.62 28.24Q399.88 27.94 400.08 27.6Q401.01 26.04 400.68 23.72L400.64 23.49Q400.31 21.18 398.98 19.94Q398.69 19.67 398.35 19.46ZM415.24 27.46L415.19 27.12L408.21 16.54L405.75 16.9L402.04 29.02L402.09 29.36L404.36 29.03L405.18 26.18L411.38 25.29L412.98 27.78L415.24 27.46ZM419.29 26.87L417.61 15.18L415.38 15.51L417.07 27.19L419.29 26.87ZM424.29 24.11L422.89 14.42L420.67 14.74L422.36 26.43L432.85 24.91L432.56 22.92L424.29 24.11ZM442.21 11.98L442.16 11.64L439.66 12L436.47 17.59L431.83 13.13L429.33 13.49L429.38 13.83L435.67 19.85L436.33 24.41L438.56 24.09L437.9 19.53L442.21 11.98ZM474.45 8.46C473.2 7.65 471.51 7.4 469.36 7.71L463.71 8.52L465.4 20.21L471.04 19.39C473.19 19.08 474.75 18.37 475.72 17.25Q475.98 16.94 476.18 16.6Q477.11 15.04 476.77 12.73L476.74 12.5Q476.41 10.18 475.07 8.95Q474.78 8.68 474.45 8.46ZM491.34 16.46L491.29 16.12L484.3 5.55L481.85 5.9L478.14 18.02L478.19 18.36L480.45 18.04L481.28 15.19L487.48 14.29L489.08 16.79L491.34 16.46ZM495.39 15.88L493.7 4.19L491.48 4.51L493.16 16.2L495.39 15.88ZM500.39 13.12L498.99 3.43L496.76 3.75L498.45 15.44L508.95 13.92L508.66 11.92L500.39 13.12ZM518.3 0.98L518.26 0.64L515.76 1L512.57 6.59L507.92 2.14L505.43 2.5L505.48 2.84L511.77 8.86L512.43 13.42L514.65 13.09L513.99 8.53L518.3 0.98ZM10.14 83.02C9.52 83.73 8.49 84.18 7.04 84.39L3.62 84.89L2.51 77.19L5.91 76.7Q8.38 76.34 9.61 77.41Q10.53 78.21 10.76 79.8L10.8 80.08Q11.04 81.71 10.36 82.73Q10.26 82.88 10.14 83.02ZM86.23 72.02C85.62 72.73 84.59 73.19 83.14 73.4L79.72 73.89L78.61 66.2L82.01 65.71Q84.48 65.35 85.71 66.42Q86.63 67.22 86.86 68.81L86.9 69.09C87.08 70.34 86.86 71.32 86.23 72.02ZM162.33 61.03C161.72 61.74 160.69 62.2 159.24 62.41L155.82 62.9L154.7 55.2L158.11 54.71C160.98 54.3 162.6 55.33 162.96 57.81L163 58.1Q163.23 59.72 162.55 60.74Q162.45 60.89 162.33 61.03ZM238.43 50.04C237.81 50.74 236.78 51.2 235.33 51.41L231.91 51.91L230.8 44.21L234.2 43.72C237.08 43.3 238.69 44.34 239.05 46.82L239.09 47.1Q239.33 48.73 238.65 49.75Q238.55 49.9 238.43 50.04ZM314.52 39.04C313.91 39.75 312.88 40.21 311.43 40.42L308.01 40.91L306.9 33.22L310.3 32.72C313.17 32.31 314.79 33.34 315.15 35.82L315.19 36.11C315.37 37.36 315.15 38.33 314.52 39.04ZM397.75 27.02C397.14 27.73 396.11 28.18 394.66 28.39L391.24 28.89L390.13 21.19L393.53 20.7C396.4 20.28 398.02 21.32 398.38 23.8L398.42 24.09C398.6 25.33 398.38 26.31 397.75 27.02ZM473.85 16.03C473.24 16.73 472.21 17.19 470.76 17.4L467.34 17.89L466.22 10.2L469.63 9.71C472.5 9.29 474.12 10.32 474.48 12.81L474.52 13.09C474.7 14.34 474.47 15.32 473.85 16.03ZM19.69 74.96L22.55 79.42L18.2 80.05L19.69 74.96ZM95.78 63.97L98.65 68.43L94.3 69.06L95.78 63.97ZM171.88 52.98L174.74 57.44L170.4 58.06L171.88 52.98ZM247.98 41.98L250.84 46.44L246.49 47.07L247.98 41.98ZM324.07 30.99L326.94 35.45L322.59 36.08L324.07 30.99ZM407.3 18.96L410.17 23.43L405.82 24.05L407.3 18.96ZM483.4 7.97L486.26 12.43L481.92 13.06L483.4 7.97Z" fill="#FFFFFF" fill-opacity="1.000000" fill-rule="evenodd"/>
</svg>
