<svg width="402.957794" height="185.299805" viewBox="0 0 402.958 185.3" fill="none" xmlns="http://www.w3.org/2000/svg" xmlns:xlink="http://www.w3.org/1999/xlink">
	<desc>
			Created with Pixso.
	</desc>
	<defs>
		<linearGradient x1="1.299988" y1="89.499756" x2="430.299927" y2="89.499756" id="paint_linear_33_2387_0" gradientUnits="userSpaceOnUse">
			<stop stop-color="#FFFFFF"/>
			<stop offset="1.000000" stop-color="#4C5877"/>
		</linearGradient>
		<clipPath id="clip33_2388">
			<rect id="flash-solid 1" rx="0.000000" width="27.340612" height="27.340612" transform="translate(0.799988 5.680420) rotate(-10.532595)" fill="white" fill-opacity="0"/>
		</clipPath>
		<linearGradient x1="9.350075" y1="20.848722" x2="25.642067" y2="13.895473" id="paint_linear_33_2389_0" gradientUnits="userSpaceOnUse">
			<stop stop-color="#576265"/>
			<stop offset="0.172016" stop-color="#9EA1A1"/>
			<stop offset="0.457410" stop-color="#848B8A"/>
			<stop offset="0.553567" stop-color="#576265"/>
			<stop offset="0.823421" stop-color="#576265"/>
			<stop offset="0.925155" stop-color="#757A7B"/>
			<stop offset="1.000000" stop-color="#576265"/>
		</linearGradient>
		<linearGradient x1="15.007835" y1="16.858837" x2="8.350090" y2="6.385959" id="paint_linear_33_2389_1" gradientUnits="userSpaceOnUse">
			<stop stop-color="#FFFFFF" stop-opacity="0.000000"/>
			<stop offset="1.000000" stop-color="#FFFFFF"/>
		</linearGradient>
	</defs>
	<path id="Energy Trading" d="M81.19 18.79L84.1 12.29L29.2 12.29L-1.23e-5 77.89L54.9 77.89L57.8 71.39L10.8 71.39L21.1 48.29L66.1 48.29L68.9 41.79L24 41.79L34.3 18.79L81.19 18.79ZM133.76 31.89Q128.46 27.49 119.36 27.49C111.69 27.49 104.49 30.13 97.76 35.39L100.06 28.59L93.56 28.59L71.66 77.89L79.26 77.89L94.16 44.39Q98.78 39.78 104.33 37.12Q104.79 36.9 105.26 36.69Q110.39 34.34 115.65 33.97Q116.65 33.89 117.66 33.89C122.06 33.89 125.46 34.83 127.86 36.69C130.26 38.56 131.46 41.13 131.46 44.39C131.46 46.66 130.79 49.33 129.46 52.39L118.06 77.89L125.66 77.89L136.76 53.29C138.36 49.76 139.16 46.46 139.16 43.39C139.16 38.66 137.36 34.83 133.76 31.89ZM195.75 29.99Q189.95 27.49 182.65 27.49C175.25 27.49 169.02 29.13 163.95 32.39C158.95 35.66 155.05 40.63 152.25 47.29L151.25 49.39C149.92 52.66 149.25 55.69 149.25 58.49Q149.25 61.73 150.25 64.62Q151.04 66.91 152.45 68.99Q152.71 69.35 152.97 69.7Q156.2 73.9 161.65 76.39C165.59 78.13 170.12 78.99 175.25 78.99C182.12 78.99 187.82 77.59 192.35 74.79Q199.15 70.59 203.25 61.69L195.15 61.69Q193.29 65.46 190.34 67.93Q184.74 72.59 175.25 72.59Q169.65 72.59 165.35 70.79C162.55 69.53 160.35 67.83 158.75 65.69C157.22 63.56 156.45 61.13 156.45 58.39C156.45 57.46 156.55 56.56 156.75 55.69L205.55 55.69L206.65 52.89C207.59 50.63 208.05 48.43 208.05 46.29C208.05 42.83 206.95 39.66 204.75 36.79Q201.55 32.49 195.75 29.99ZM308.75 76.39L329.95 28.59L323.05 28.59L318.55 37.39C316.55 34.33 313.62 31.93 309.75 30.19C305.95 28.39 301.59 27.49 296.65 27.49C280.85 27.49 270.22 34.19 264.75 47.59L263.85 49.49C262.65 52.36 262.05 55.19 262.05 57.99C262.05 61.46 262.95 64.56 264.75 67.29C266.55 70.03 269.12 72.19 272.45 73.79C275.79 75.33 279.65 76.09 284.05 76.09C291.25 76.09 297.92 73.86 304.05 69.39L301.35 75.49C299.15 80.49 296.02 84.09 291.95 86.29C287.89 88.49 282.39 89.59 275.45 89.59C270.25 89.59 266.15 88.76 263.15 87.09C260.15 85.49 258.65 83.29 258.65 80.49C258.65 79.76 258.82 78.83 259.15 77.69L259.45 76.79L251.75 76.79L251.35 77.69C250.89 79.03 250.65 80.39 250.65 81.79C250.65 86.06 252.82 89.49 257.15 92.09C261.55 94.69 267.49 95.99 274.95 95.99C283.82 95.99 290.89 94.46 296.15 91.39C301.49 88.39 305.69 83.39 308.75 76.39ZM266.14 34.79L268.84 28.59L257.04 28.59C249.58 28.59 243.04 30.69 237.44 34.89L239.64 28.59L233.14 28.59L211.24 77.89L218.84 77.89L234.44 42.89C240.58 37.49 247.61 34.79 255.54 34.79L266.14 34.79ZM402.45 29.69L402.95 28.59L393.95 28.59L352.65 71.69L348.95 28.59L342.15 28.59L341.65 29.69L346.25 78.49L343.35 81.49C340.69 84.29 338.32 86.19 336.25 87.19Q333.25 88.69 328.75 88.69L319.95 88.69L317.15 94.89L327.45 94.89C330.65 94.89 333.35 94.59 335.55 93.99C337.82 93.39 339.99 92.33 342.05 90.79C344.19 89.26 346.72 86.99 349.65 83.99L402.45 29.69ZM168.25 37.29C171.85 35.03 176.49 33.89 182.15 33.89C185.75 33.89 188.95 34.46 191.75 35.59C194.55 36.73 196.72 38.26 198.25 40.19C199.79 42.13 200.55 44.29 200.55 46.69C200.55 47.23 200.42 48.16 200.15 49.49L159.05 49.49L159.55 48.29C161.82 43.23 164.72 39.56 168.25 37.29ZM307.95 60.69C301.42 66.69 294.12 69.69 286.05 69.69C280.99 69.69 277.02 68.56 274.15 66.29C271.29 64.03 269.85 61.03 269.85 57.29Q269.85 53.89 271.45 50.29L272.25 48.39C274.32 43.53 277.35 39.89 281.35 37.49C285.35 35.09 290.42 33.89 296.55 33.89C301.02 33.89 304.95 34.79 308.35 36.59Q313.13 39.07 315.2 42.98Q315.39 43.33 315.55 43.69L307.95 60.69ZM192.59 170.9L192.59 115.22L190.27 115.22L190.27 139.22C188.09 136.66 185.31 134.66 181.95 133.22Q181.3 132.93 180.64 132.68Q176.24 131.06 171.23 131.06C166.65 131.06 162.65 131.86 159.23 133.46C155.82 135 153.21 137.24 151.39 140.17C149.58 143.11 148.67 146.55 148.67 150.5L148.67 152.25C148.67 156.2 149.58 159.64 151.39 162.58C153.21 165.51 155.82 167.78 159.23 169.38C162.65 170.92 166.65 171.7 171.23 171.7C175.13 171.7 178.73 170.98 182.03 169.54C185.39 168.1 188.14 166.07 190.27 163.46L190.43 170.9L192.59 170.9ZM2.17 118.42L2.17 120.58L27.78 120.58L27.78 170.9L30.18 170.9L30.18 120.58L55.78 120.58L55.78 118.42L2.17 118.42ZM210.59 122.5C211.02 122.87 211.52 123.06 212.11 123.06C212.75 123.06 213.26 122.87 213.63 122.5Q213.98 122.14 214.14 121.72Q214.27 121.37 214.27 120.98Q214.27 120.33 213.98 119.86Q213.84 119.64 213.63 119.46Q213.45 119.25 213.22 119.11Q212.76 118.82 212.11 118.82Q211.71 118.82 211.36 118.95Q210.94 119.1 210.59 119.46Q210.38 119.64 210.24 119.86Q209.95 120.33 209.95 120.98Q209.95 121.37 210.08 121.72Q210.24 122.14 210.59 122.5ZM143.81 170.9L143.81 168.82L140.29 168.82C138.15 168.82 136.47 168.28 135.25 167.22C134.07 166.1 133.49 164.58 133.49 162.66L133.49 147.06C133.49 141.99 131.73 138.07 128.21 135.3Q122.93 131.06 113.41 131.06C109.51 131.06 106.05 131.67 103.01 132.89Q98.45 134.74 95.89 138.02C94.18 140.15 93.33 142.6 93.33 145.38L93.33 146.1L95.57 146.1L95.57 145.38Q95.57 143.62 96.12 142.07Q96.68 140.5 97.81 139.14C99.35 137.27 101.46 135.83 104.13 134.82C106.85 133.75 109.94 133.22 113.41 133.22C119.17 133.22 123.57 134.42 126.61 136.82C129.7 139.16 131.25 142.58 131.25 147.06L131.25 148.58L107.97 150.98C102.9 151.51 99.17 152.63 96.77 154.34C94.37 156.04 93.17 158.47 93.17 161.62C93.17 168.34 98.71 171.7 109.81 171.7C114.5 171.7 118.66 170.95 122.29 169.46C125.91 167.96 128.9 165.78 131.25 162.89L131.25 162.98C131.25 165.43 132.02 167.38 133.57 168.82C135.11 170.2 137.25 170.9 139.97 170.9L143.81 170.9ZM267.72 135.94C264.31 132.68 259.27 131.06 252.6 131.06C248.92 131.06 245.4 131.8 242.04 133.3C238.73 134.79 236.04 136.82 233.96 139.38L233.88 131.86L231.72 131.86L231.72 170.9L233.96 170.9L233.96 142.5C235.72 139.67 238.25 137.4 241.56 135.7C244.92 133.99 248.55 133.14 252.44 133.14C258.41 133.14 262.95 134.58 266.04 137.46C269.13 140.34 270.68 144.52 270.68 150.02L270.68 170.9L272.92 170.9L272.92 150.02C272.92 143.83 271.19 139.14 267.72 135.94ZM329.08 169.14L329.08 131.86L326.92 131.86L326.76 139.38C324.57 136.76 321.74 134.74 318.28 133.3C314.86 131.8 311.21 131.06 307.32 131.06C300.33 131.06 294.89 132.71 291 136.02C287.1 139.27 285.16 143.8 285.16 149.62L285.16 151.38C285.16 157.19 287.1 161.72 291 164.98C294.89 168.23 300.33 169.86 307.32 169.86C311.1 169.86 314.73 169.11 318.2 167.62Q323.48 165.38 326.76 161.62L326.76 169.22C326.76 173.59 325.02 177 321.56 179.46C318.14 181.96 313.37 183.22 307.24 183.22C303.34 183.22 299.9 182.71 296.92 181.7Q292.44 180.18 289.96 177.38C288.36 175.56 287.56 173.46 287.56 171.06L287.56 170.26L285.24 170.26L285.24 171.06C285.24 173.94 286.14 176.44 287.96 178.58C289.77 180.71 292.33 182.36 295.64 183.54C299 184.71 302.89 185.3 307.32 185.3C314.14 185.3 319.48 183.88 323.32 181.06C327.16 178.23 329.08 174.26 329.08 169.14ZM87.32 133.94L87.32 131.86L79.16 131.86C75.69 131.86 72.52 132.5 69.64 133.78C66.81 135 64.55 136.82 62.84 139.22L62.76 131.86L60.6 131.86L60.6 170.9L62.84 170.9L62.84 142.25C64.39 139.64 66.57 137.62 69.4 136.17C72.23 134.68 75.4 133.94 78.92 133.94L87.32 133.94ZM213.23 170.9L213.23 131.86L210.99 131.86L210.99 170.9L213.23 170.9ZM182.35 167.3C178.99 168.84 175.34 169.62 171.39 169.62C165.1 169.62 160.11 168.07 156.43 164.98C152.81 161.88 150.99 157.64 150.99 152.25L150.99 150.5C150.99 145.11 152.81 140.87 156.43 137.78C160.06 134.68 165.05 133.14 171.39 133.14C175.34 133.14 178.99 133.94 182.35 135.53C185.71 137.08 188.35 139.24 190.27 142.02L190.27 160.74C188.35 163.51 185.71 165.7 182.35 167.3ZM318.6 165.3C315.08 166.95 311.34 167.78 307.4 167.78C301.1 167.78 296.2 166.36 292.68 163.53C289.21 160.66 287.48 156.6 287.48 151.38L287.48 149.62C287.48 144.39 289.21 140.34 292.68 137.46C296.2 134.58 301.1 133.14 307.4 133.14C311.34 133.14 315.08 133.96 318.6 135.62C322.12 137.27 324.84 139.46 326.76 142.17L326.76 158.74C324.84 161.46 322.12 163.64 318.6 165.3ZM122.61 167.06Q116.93 169.62 109.73 169.62C100.18 169.62 95.41 166.95 95.41 161.62C95.41 159.11 96.45 157.14 98.53 155.7Q101.65 153.53 108.29 152.89L131.25 150.58L131.25 159.94C129.27 162.98 126.39 165.35 122.61 167.06Z" fill="url(#paint_linear_33_2387_0)" fill-opacity="1.000000" fill-rule="evenodd"/>
	<rect id="flash-solid 1" rx="0.000000" width="27.340612" height="27.340612" transform="translate(0.799988 5.680420) rotate(-10.532595)" fill="#FFFFFF" fill-opacity="0"/>
	<g clip-path="url(#clip33_2388)">
		<path id="Vector" d="M16.15 4.97C16.53 5.02 16.84 5.31 16.91 5.69L18.25 12.95L24.35 11.81C24.68 11.75 25.01 11.88 25.21 12.14C25.42 12.41 25.45 12.76 25.31 13.06L18.4 27.56C18.23 27.91 17.86 28.11 17.48 28.06C17.1 28.01 16.8 27.72 16.73 27.34L15.38 20.09L9.28 21.22C8.96 21.28 8.62 21.15 8.42 20.89C8.22 20.62 8.18 20.27 8.32 19.97L15.24 5.47C15.4 5.12 15.77 4.92 16.15 4.97Z" fill="#DD9D4D" fill-opacity="0" fill-rule="evenodd"/>
		<path id="Vector" d="M16.15 4.97C16.53 5.02 16.84 5.31 16.91 5.69L18.25 12.95L24.35 11.81C24.68 11.75 25.01 11.88 25.21 12.14C25.42 12.41 25.45 12.76 25.31 13.06L18.4 27.56C18.23 27.91 17.86 28.11 17.48 28.06C17.1 28.01 16.8 27.72 16.73 27.34L15.38 20.09L9.28 21.22C8.96 21.28 8.62 21.15 8.42 20.89C8.22 20.62 8.18 20.27 8.32 19.97L15.24 5.47C15.4 5.12 15.77 4.92 16.15 4.97Z" fill="url(#paint_linear_33_2389_0)" fill-opacity="1.000000" fill-rule="evenodd"/>
		<path id="Vector" d="M16.15 4.97C16.53 5.02 16.84 5.31 16.91 5.69L18.25 12.95L24.35 11.81C24.68 11.75 25.01 11.88 25.21 12.14C25.42 12.41 25.45 12.76 25.31 13.06L18.4 27.56C18.23 27.91 17.86 28.11 17.48 28.06C17.1 28.01 16.8 27.72 16.73 27.34L15.38 20.09L9.28 21.22C8.96 21.28 8.62 21.15 8.42 20.89C8.22 20.62 8.18 20.27 8.32 19.97L15.24 5.47C15.4 5.12 15.77 4.92 16.15 4.97Z" fill="url(#paint_linear_33_2389_1)" fill-opacity="1.000000" fill-rule="evenodd"/>
		<path id="Vector" d="M16.15 4.97C16.53 5.02 16.84 5.31 16.91 5.69L18.25 12.95L24.35 11.81C24.68 11.75 25.01 11.88 25.21 12.14C25.42 12.41 25.45 12.76 25.31 13.06L18.4 27.56C18.23 27.91 17.86 28.11 17.48 28.06C17.1 28.01 16.8 27.72 16.73 27.34L15.38 20.09L9.28 21.22C8.96 21.28 8.62 21.15 8.42 20.89C8.22 20.62 8.18 20.27 8.32 19.97L15.24 5.47C15.4 5.12 15.77 4.92 16.15 4.97Z" fill="#C1A875" fill-opacity="1.000000" fill-rule="evenodd"/>
	</g>
</svg>
