<svg width="10.291687" height="10.291748" viewBox="0 0 10.2917 10.2917" fill="none" xmlns="http://www.w3.org/2000/svg" xmlns:xlink="http://www.w3.org/1999/xlink">
	<desc>
			Created with Pixso.
	</desc>
	<defs/>
	<path id="Vector" d="M0 5.14C0 2.3 2.3 0 5.14 0C7.98 0 10.29 2.3 10.29 5.14C10.29 7.98 7.98 10.29 5.14 10.29C2.3 10.29 0 7.98 0 5.14ZM5.14 4.54C5.34 4.54 5.5 4.7 5.5 4.9L5.5 7.29C5.5 7.49 5.34 7.65 5.14 7.65C4.94 7.65 4.78 7.49 4.78 7.29L4.78 4.9C4.78 4.7 4.94 4.54 5.14 4.54ZM5.41 3.23C5.55 3.08 5.53 2.85 5.39 2.72C5.24 2.59 5.01 2.6 4.88 2.75L4.87 2.75C4.74 2.9 4.75 3.13 4.9 3.26C5.05 3.39 5.28 3.38 5.41 3.23L5.41 3.23Z" fill="#9EACBC" fill-opacity="1.000000" fill-rule="evenodd"/>
</svg>
