<svg width="21.999878" height="14.735352" viewBox="0 0 21.9999 14.7354" fill="none" xmlns="http://www.w3.org/2000/svg" xmlns:xlink="http://www.w3.org/1999/xlink">
	<desc>
			Created with Pixso.
	</desc>
	<defs/>
	<g opacity="0.200000">
		<path id="Vector" d="M16 3.73C16 3.73 17.36 5.09 17.36 7.36C17.36 9.64 16 11 16 11" stroke="#C1A875" stroke-opacity="1.000000" stroke-width="2.000000" stroke-linejoin="round" stroke-linecap="round"/>
	</g>
	<g opacity="0.200000">
		<path id="Vector" d="M18.72 1C18.72 1 20.99 3.27 20.99 7.36C20.99 11.45 18.72 13.73 18.72 13.73" stroke="#C1A875" stroke-opacity="1.000000" stroke-width="2.000000" stroke-linejoin="round" stroke-linecap="round"/>
	</g>
	<g opacity="0.200000">
		<path id="Vector" d="M5.99 3.73C5.99 3.73 4.63 5.09 4.63 7.36C4.63 9.64 5.99 11 5.99 11" stroke="#C1A875" stroke-opacity="1.000000" stroke-width="2.000000" stroke-linejoin="round" stroke-linecap="round"/>
	</g>
	<g opacity="0.200000">
		<path id="Vector" d="M3.27 1C3.27 1 1 3.27 1 7.36C1 11.45 3.27 13.73 3.27 13.73" stroke="#C1A875" stroke-opacity="1.000000" stroke-width="2.000000" stroke-linejoin="round" stroke-linecap="round"/>
	</g>
	<path id="Vector" d="M10.99 8.27C11.5 8.27 11.9 7.86 11.9 7.36C11.9 6.86 11.5 6.45 10.99 6.45C10.49 6.45 10.09 6.86 10.09 7.36C10.09 7.86 10.49 8.27 10.99 8.27Z" fill="#C1A875" fill-opacity="1.000000" fill-rule="nonzero"/>
	<path id="Vector" d="M11.9 7.36C11.9 6.86 11.5 6.45 10.99 6.45C10.49 6.45 10.09 6.86 10.09 7.36C10.09 7.86 10.49 8.27 10.99 8.27C11.5 8.27 11.9 7.86 11.9 7.36Z" stroke="#C1A875" stroke-opacity="1.000000" stroke-width="2.000000" stroke-linejoin="round"/>
</svg>
