<svg width="22.000000" height="15.468750" viewBox="0 0 22 15.4688" fill="none" xmlns="http://www.w3.org/2000/svg" xmlns:xlink="http://www.w3.org/1999/xlink">
	<desc>
			Created with Pixso.
	</desc>
	<defs>
		<linearGradient x1="1.219758" y1="8.983515" x2="22.000000" y2="6.576998" id="paint_linear_2311_2466_0" gradientUnits="userSpaceOnUse">
			<stop stop-color="#576265"/>
			<stop offset="0.172016" stop-color="#9EA1A1"/>
			<stop offset="0.457410" stop-color="#848B8A"/>
			<stop offset="0.553567" stop-color="#576265"/>
			<stop offset="0.823421" stop-color="#576265"/>
			<stop offset="0.925155" stop-color="#757A7B"/>
			<stop offset="1.000000" stop-color="#576265"/>
		</linearGradient>
		<linearGradient x1="8.782257" y1="7.181775" x2="3.215726" y2="-0.000000" id="paint_linear_2311_2466_1" gradientUnits="userSpaceOnUse">
			<stop stop-color="#FFFFFF" stop-opacity="0.000000"/>
			<stop offset="1.000000" stop-color="#FFFFFF"/>
		</linearGradient>
		<linearGradient x1="2.202431" y1="12.913097" x2="20.894823" y2="11.769955" id="paint_linear_2311_2467_0" gradientUnits="userSpaceOnUse">
			<stop stop-color="#576265"/>
			<stop offset="0.172016" stop-color="#9EA1A1"/>
			<stop offset="0.457410" stop-color="#848B8A"/>
			<stop offset="0.553567" stop-color="#576265"/>
			<stop offset="0.823421" stop-color="#576265"/>
			<stop offset="0.925155" stop-color="#757A7B"/>
			<stop offset="1.000000" stop-color="#576265"/>
		</linearGradient>
		<linearGradient x1="9.005107" y1="12.057232" x2="3.997858" y2="8.645749" id="paint_linear_2311_2467_1" gradientUnits="userSpaceOnUse">
			<stop stop-color="#FFFFFF" stop-opacity="0.000000"/>
			<stop offset="1.000000" stop-color="#FFFFFF"/>
		</linearGradient>
	</defs>
	<path id="Vector" d="M21.8 1.1L15.13 7.73L21.8 14.36C21.92 14.11 22 13.83 22 13.53L22 1.93C22 1.63 21.92 1.35 21.8 1.1ZM20.06 0L1.93 0C1.63 0 1.35 0.07 1.1 0.19L9.63 8.67C10.38 9.43 11.61 9.43 12.36 8.67L20.89 0.19C20.64 0.07 20.36 0 20.06 0ZM0.19 1.1C0.07 1.35 0 1.63 0 1.93L0 13.53C0 13.83 0.07 14.11 0.19 14.36L6.86 7.73L0.19 1.1Z" fill="url(#paint_linear_2311_2466_0)" fill-opacity="1.000000" fill-rule="nonzero"/>
	<path id="Vector" d="M21.8 1.1L15.13 7.73L21.8 14.36C21.92 14.11 22 13.83 22 13.53L22 1.93C22 1.63 21.92 1.35 21.8 1.1ZM20.06 0L1.93 0C1.63 0 1.35 0.07 1.1 0.19L9.63 8.67C10.38 9.43 11.61 9.43 12.36 8.67L20.89 0.19C20.64 0.07 20.36 0 20.06 0ZM0.19 1.1C0.07 1.35 0 1.63 0 1.93L0 13.53C0 13.83 0.07 14.11 0.19 14.36L6.86 7.73L0.19 1.1Z" fill="url(#paint_linear_2311_2466_1)" fill-opacity="1.000000" fill-rule="nonzero"/>
	<path id="Vector" d="M21.8 1.1L15.13 7.73L21.8 14.36C21.92 14.11 22 13.83 22 13.53L22 1.93C22 1.63 21.92 1.35 21.8 1.1ZM20.06 0L1.93 0C1.63 0 1.35 0.07 1.1 0.19L9.63 8.67C10.38 9.43 11.61 9.43 12.36 8.67L20.89 0.19C20.64 0.07 20.36 0 20.06 0ZM0.19 1.1C0.07 1.35 0 1.63 0 1.93L0 13.53C0 13.83 0.07 14.11 0.19 14.36L6.86 7.73L0.19 1.1Z" fill="#C1A875" fill-opacity="1.000000" fill-rule="nonzero"/>
	<path id="Vector" d="M14.22 8.64L13.27 9.58C12.02 10.84 9.97 10.84 8.72 9.58L7.77 8.64L1.1 15.27C1.35 15.39 1.63 15.46 1.93 15.46L20.06 15.46C20.36 15.46 20.64 15.39 20.89 15.27L14.22 8.64Z" fill="url(#paint_linear_2311_2467_0)" fill-opacity="1.000000" fill-rule="nonzero"/>
	<path id="Vector" d="M14.22 8.64L13.27 9.58C12.02 10.84 9.97 10.84 8.72 9.58L7.77 8.64L1.1 15.27C1.35 15.39 1.63 15.46 1.93 15.46L20.06 15.46C20.36 15.46 20.64 15.39 20.89 15.27L14.22 8.64Z" fill="url(#paint_linear_2311_2467_1)" fill-opacity="1.000000" fill-rule="nonzero"/>
	<path id="Vector" d="M14.22 8.64L13.27 9.58C12.02 10.84 9.97 10.84 8.72 9.58L7.77 8.64L1.1 15.27C1.35 15.39 1.63 15.46 1.93 15.46L20.06 15.46C20.36 15.46 20.64 15.39 20.89 15.27L14.22 8.64Z" fill="#C1A875" fill-opacity="1.000000" fill-rule="nonzero"/>
</svg>
