<svg width="22.000000" height="22.000000" viewBox="0 0 22 22" fill="none" xmlns="http://www.w3.org/2000/svg" xmlns:xlink="http://www.w3.org/1999/xlink">
	<desc>
			Created with Pixso.
	</desc>
	<defs>
		<filter id="filter_5_1421_dd" x="0.000000" y="0.000000" width="22.000000" height="22.000000" filterUnits="userSpaceOnUse" color-interpolation-filters="sRGB">
			<feFlood flood-opacity="0" result="BackgroundImageFix"/>
			<feGaussianBlur in="BackgroundImage" stdDeviation="25.9267"/>
			<feComposite in2="SourceAlpha" operator="in" result="effect_backgroundBlur_1"/>
			<feBlend mode="normal" in="SourceGraphic" in2="effect_backgroundBlur_1" result="shape"/>
		</filter>
		<linearGradient x1="11.000000" y1="0.000000" x2="11.000000" y2="22.000000" id="paint_linear_5_1421_0" gradientUnits="userSpaceOnUse">
			<stop stop-color="#06070A"/>
			<stop offset="0.535000" stop-color="#06070A" stop-opacity="0.000000"/>
			<stop offset="1.000000" stop-color="#06070A"/>
		</linearGradient>
		<linearGradient x1="3.025801" y1="11.198277" x2="20.126778" y2="11.198277" id="paint_linear_5_1419_0" gradientUnits="userSpaceOnUse">
			<stop stop-color="#FFFFFF"/>
			<stop offset="1.000000" stop-color="#4C5877"/>
		</linearGradient>
	</defs>
	<g filter="url(#filter_5_1421_dd)">
		<rect id="Plus" rx="5.750000" width="21.500000" height="21.500000" transform="translate(0.250000 0.250000)" fill="#282828" fill-opacity="1.000000"/>
		<rect id="Frame 1171274940" rx="5.500000" width="13.000000" height="13.000000" transform="translate(4.500000 4.500000)" fill="#2E2E2E" fill-opacity="0"/>
		<path id="+" d="M15.71 12.78L12.3 12.78L9.69 12.78L6.28 12.78C5.57 12.78 5 12.2 5 11.5C5 10.79 5.57 10.21 6.28 10.21L9.69 10.21L12.3 10.21L15.71 10.21C16.42 10.21 17 10.79 17 11.5C17 12.2 16.42 12.78 15.71 12.78Z" fill="url(#paint_linear_5_1419_0)" fill-opacity="1.000000" fill-rule="nonzero"/>
		<rect id="Plus" rx="5.750000" width="21.500000" height="21.500000" transform="translate(0.250000 0.250000)" stroke="url(#paint_linear_5_1421_0)" stroke-opacity="1.000000" stroke-width="0.500000"/>
	</g>
</svg>
