<svg width="5.411987" height="4.884033" viewBox="0 0 5.41199 4.88403" fill="none" xmlns="http://www.w3.org/2000/svg" xmlns:xlink="http://www.w3.org/1999/xlink">
	<desc>
			Created with Pixso.
	</desc>
	<defs/>
	<path id="~" d="M3.92 1.88C3.65 1.88 3.41 1.82 3.21 1.71C3.01 1.59 2.78 1.42 2.5 1.19C2.29 1.01 2.11 0.88 1.96 0.8C1.83 0.71 1.67 0.67 1.51 0.67C1.23 0.67 1 0.77 0.84 0.98C0.67 1.18 0.59 1.45 0.57 1.81L0 1.81C0.01 1.22 0.15 0.78 0.41 0.46C0.69 0.15 1.04 0 1.48 0C1.76 0 1.99 0.06 2.19 0.17C2.39 0.29 2.63 0.45 2.9 0.68C3.11 0.86 3.28 1 3.43 1.09C3.57 1.17 3.73 1.22 3.9 1.22C4.17 1.22 4.4 1.12 4.56 0.91C4.72 0.7 4.82 0.42 4.83 0.07L5.41 0.07C5.39 0.65 5.25 1.1 4.97 1.41C4.71 1.72 4.36 1.88 3.92 1.88Z" fill="#7E879D" fill-opacity="1.000000" fill-rule="nonzero"/>
	<path id="~" d="M3.92 4.88C3.65 4.88 3.41 4.82 3.21 4.71C3.01 4.59 2.78 4.42 2.5 4.19C2.29 4.01 2.11 3.88 1.96 3.8C1.83 3.71 1.67 3.67 1.51 3.67C1.23 3.67 1 3.77 0.84 3.98C0.67 4.18 0.59 4.45 0.57 4.81L0 4.81C0.01 4.22 0.15 3.78 0.41 3.46C0.69 3.15 1.04 3 1.48 3C1.76 3 1.99 3.06 2.19 3.17C2.39 3.29 2.63 3.45 2.9 3.68C3.11 3.86 3.28 4 3.43 4.09C3.57 4.17 3.73 4.22 3.9 4.22C4.17 4.22 4.4 4.12 4.56 3.91C4.72 3.7 4.82 3.42 4.83 3.07L5.41 3.07C5.39 3.65 5.25 4.1 4.97 4.41C4.71 4.72 4.36 4.88 3.92 4.88Z" fill="#7E879D" fill-opacity="1.000000" fill-rule="nonzero"/>
</svg>
