<svg width="59.000000" height="17.000000" viewBox="0 0 59 17" fill="none" xmlns="http://www.w3.org/2000/svg" xmlns:xlink="http://www.w3.org/1999/xlink">
	<desc>
			Created with Pixso.
	</desc>
	<defs>
		<linearGradient x1="3.271171" y1="10.632450" x2="59.000000" y2="7.784214" id="paint_linear_33_2372_0" gradientUnits="userSpaceOnUse">
			<stop stop-color="#576265"/>
			<stop offset="0.172016" stop-color="#9EA1A1"/>
			<stop offset="0.457410" stop-color="#848B8A"/>
			<stop offset="0.553567" stop-color="#576265"/>
			<stop offset="0.823421" stop-color="#576265"/>
			<stop offset="0.925155" stop-color="#757A7B"/>
			<stop offset="1.000000" stop-color="#576265"/>
		</linearGradient>
		<linearGradient x1="23.552414" y1="8.499993" x2="8.623990" y2="-0.000010" id="paint_linear_33_2372_1" gradientUnits="userSpaceOnUse">
			<stop stop-color="#FFFFFF" stop-opacity="0.000000"/>
			<stop offset="1.000000" stop-color="#FFFFFF"/>
		</linearGradient>
	</defs>
	<rect id="Frame 31" rx="8.000000" width="58.000000" height="16.000000" transform="translate(0.500000 0.500000)" fill="#DD9D4D" fill-opacity="0"/>
	<rect id="Frame 31" rx="8.000000" width="58.000000" height="16.000000" transform="translate(0.500000 0.500000)" fill="url(#paint_linear_33_2372_0)" fill-opacity="1.000000"/>
	<rect id="Frame 31" rx="8.000000" width="58.000000" height="16.000000" transform="translate(0.500000 0.500000)" fill="url(#paint_linear_33_2372_1)" fill-opacity="1.000000"/>
	<rect id="Frame 31" rx="8.000000" width="58.000000" height="16.000000" transform="translate(0.500000 0.500000)" fill="#C1A875" fill-opacity="1.000000"/>
	<path id="Selected" d="M21.58 4.58L20.33 4.58L20.33 12L21.58 12L21.58 4.58ZM50.82 12L50.82 4.58L49.57 4.58L49.57 7.31Q49.42 7.14 49.24 7.01Q49.05 6.87 48.83 6.78Q48.39 6.59 47.86 6.59Q47.2 6.59 46.65 6.84Q46.56 6.89 46.47 6.94Q46.19 7.09 45.96 7.31Q45.69 7.56 45.51 7.9Q45.49 7.92 45.48 7.94Q45.16 8.54 45.16 9.32Q45.16 10.1 45.48 10.71Q45.49 10.74 45.51 10.76Q45.7 11.11 45.98 11.37Q46.2 11.58 46.47 11.73Q46.55 11.77 46.64 11.81Q47.19 12.07 47.86 12.07Q48.41 12.07 48.86 11.88Q49.1 11.77 49.3 11.62Q49.48 11.48 49.63 11.3L49.63 12L50.82 12ZM8.82 11.94Q9.44 12.1 10.11 12.1Q11.03 12.1 11.67 11.82Q12.31 11.54 12.62 11.07Q12.75 10.87 12.83 10.65Q12.93 10.35 12.93 10.02Q12.93 9.38 12.63 8.99Q12.6 8.96 12.58 8.94Q12.41 8.75 12.21 8.6Q11.99 8.44 11.72 8.34Q11.23 8.14 10.44 7.96Q9.88 7.83 9.54 7.72Q9.21 7.61 9 7.41Q8.91 7.33 8.85 7.23Q8.78 7.09 8.78 6.92Q8.78 6.74 8.86 6.58Q8.95 6.38 9.16 6.24Q9.53 5.97 10.31 5.97Q10.77 5.97 11.27 6.12Q11.35 6.14 11.42 6.16Q11.84 6.3 12.23 6.52L12.64 5.52Q12.2 5.22 11.58 5.06Q11.25 4.97 10.92 4.93Q10.62 4.9 10.32 4.9Q9.39 4.9 8.76 5.18Q8.13 5.45 7.81 5.93Q7.67 6.14 7.6 6.36Q7.5 6.66 7.5 6.99Q7.5 7.64 7.82 8.04Q7.83 8.06 7.85 8.08Q8.06 8.31 8.31 8.48Q8.49 8.59 8.7 8.67Q9.19 8.87 10 9.06Q10.56 9.19 10.89 9.3Q11.23 9.41 11.44 9.61Q11.54 9.7 11.59 9.81Q11.66 9.94 11.66 10.11Q11.66 10.26 11.6 10.39Q11.51 10.61 11.27 10.77Q10.88 11.02 10.11 11.02Q10.06 11.02 10.02 11.02Q9.43 11 8.85 10.8Q8.23 10.58 7.8 10.24L7.34 11.26Q7.79 11.64 8.54 11.87Q8.68 11.91 8.82 11.94ZM37.99 11.98Q38.31 11.89 38.53 11.7L38.17 10.82Q38.14 10.84 38.1 10.87Q37.84 11.04 37.48 11.04Q37.16 11.04 36.98 10.88Q36.95 10.86 36.92 10.83Q36.74 10.63 36.74 10.23L36.74 7.7L38.16 7.7L38.16 6.69L36.74 6.69L36.74 5.47L35.49 5.47L35.49 6.69L34.6 6.69L34.6 7.7L35.49 7.7L35.49 10.26Q35.49 11.07 35.89 11.52Q35.92 11.57 35.96 11.61Q35.99 11.63 36.02 11.65Q36.49 12.07 37.32 12.07Q37.68 12.07 37.99 11.98ZM19.11 9.72Q19.12 9.49 19.12 9.36Q19.12 8.54 18.78 7.91Q18.59 7.57 18.33 7.32Q18.1 7.1 17.82 6.94Q17.75 6.9 17.68 6.87Q17.12 6.59 16.42 6.59Q15.77 6.59 15.22 6.84Q15.11 6.89 15 6.95Q14.68 7.12 14.43 7.37Q14.19 7.61 14.02 7.92Q13.95 8.04 13.89 8.17Q13.67 8.7 13.67 9.32Q13.67 9.97 13.91 10.51Q13.96 10.63 14.03 10.74Q14.16 10.97 14.33 11.16Q14.64 11.49 15.06 11.72Q15.74 12.07 16.62 12.07Q17.31 12.07 17.86 11.85Q18.26 11.68 18.56 11.41Q18.67 11.31 18.77 11.19L18.09 10.43Q17.89 10.64 17.64 10.77Q17.21 11 16.64 11Q16.02 11 15.57 10.72Q15.53 10.69 15.49 10.66Q15.29 10.51 15.16 10.32Q14.98 10.06 14.92 9.72L19.11 9.72ZM28.22 9.72Q28.23 9.49 28.23 9.36Q28.23 8.54 27.89 7.91Q27.7 7.57 27.44 7.32Q27.21 7.1 26.93 6.94Q26.86 6.9 26.79 6.87Q26.23 6.59 25.53 6.59Q24.88 6.59 24.33 6.84Q24.22 6.89 24.11 6.95Q23.79 7.12 23.54 7.37Q23.3 7.61 23.13 7.92Q23.06 8.04 23 8.17Q22.78 8.7 22.78 9.32Q22.78 9.97 23.02 10.51Q23.07 10.63 23.14 10.74Q23.27 10.97 23.44 11.16Q23.75 11.49 24.17 11.72Q24.85 12.07 25.73 12.07Q26.42 12.07 26.97 11.85Q27.37 11.68 27.67 11.41Q27.78 11.31 27.88 11.19L27.2 10.43Q27 10.64 26.75 10.77Q26.32 11 25.75 11Q25.13 11 24.68 10.72Q24.64 10.69 24.6 10.66Q24.4 10.51 24.27 10.32Q24.09 10.06 24.03 9.72L28.22 9.72ZM30.48 11.76Q31.1 12.07 31.88 12.07Q32.67 12.07 33.26 11.74Q33.57 11.57 33.81 11.32Q34.02 11.1 34.16 10.82L33.2 10.25Q33 10.58 32.72 10.76Q32.67 10.79 32.63 10.81Q32.53 10.86 32.43 10.9Q32.17 10.99 31.87 10.99Q31.4 10.99 31.04 10.79Q30.86 10.69 30.71 10.54Q30.61 10.44 30.53 10.32Q30.26 9.92 30.26 9.32Q30.26 8.74 30.52 8.34Q30.61 8.22 30.71 8.11Q30.89 7.94 31.09 7.83Q31.44 7.65 31.87 7.65Q32.16 7.65 32.41 7.74Q32.52 7.78 32.63 7.84Q32.68 7.87 32.72 7.9Q33.01 8.08 33.2 8.39L34.16 7.83Q34.02 7.55 33.81 7.32Q33.58 7.08 33.27 6.91Q32.68 6.59 31.88 6.59Q31.06 6.59 30.41 6.94Q30.4 6.94 30.39 6.95Q30 7.15 29.72 7.45Q29.52 7.66 29.36 7.92Q29.29 8.03 29.24 8.16Q29 8.69 29 9.32Q29 9.96 29.23 10.49Q29.29 10.62 29.36 10.74Q29.52 10.99 29.71 11.2Q30 11.51 30.39 11.72Q30.44 11.74 30.48 11.76ZM44.38 9.72Q44.39 9.49 44.39 9.36Q44.39 8.54 44.05 7.91Q43.86 7.57 43.6 7.32Q43.37 7.1 43.09 6.94Q43.02 6.9 42.95 6.87Q42.39 6.59 41.69 6.59Q41.04 6.59 40.49 6.84Q40.38 6.89 40.27 6.95Q39.95 7.12 39.7 7.37Q39.46 7.61 39.29 7.92Q39.22 8.04 39.16 8.17Q38.94 8.7 38.94 9.32Q38.94 9.97 39.18 10.51Q39.23 10.63 39.3 10.74Q39.43 10.97 39.6 11.16Q39.91 11.49 40.33 11.72Q41.01 12.07 41.89 12.07Q42.58 12.07 43.13 11.85Q43.53 11.68 43.83 11.41Q43.94 11.31 44.04 11.19L43.36 10.43Q43.16 10.64 42.91 10.77Q42.48 11 41.91 11Q41.29 11 40.84 10.72Q40.8 10.69 40.76 10.66Q40.56 10.51 40.43 10.32Q40.25 10.06 40.19 9.72L44.38 9.72ZM15.68 7.77Q16.01 7.6 16.42 7.6Q16.86 7.6 17.2 7.78Q17.33 7.85 17.45 7.96Q17.59 8.09 17.7 8.24Q17.88 8.52 17.94 8.89L14.91 8.89Q14.97 8.5 15.17 8.21Q15.27 8.07 15.41 7.95Q15.54 7.84 15.68 7.77ZM24.79 7.77Q25.12 7.6 25.53 7.6Q25.97 7.6 26.31 7.78Q26.44 7.85 26.56 7.96Q26.7 8.09 26.81 8.24Q26.99 8.52 27.05 8.89L24.02 8.89Q24.08 8.5 24.28 8.21Q24.38 8.07 24.52 7.95Q24.65 7.84 24.79 7.77ZM40.95 7.77Q41.28 7.6 41.69 7.6Q42.13 7.6 42.47 7.78Q42.6 7.85 42.72 7.96Q42.86 8.09 42.97 8.24Q43.15 8.52 43.21 8.89L40.18 8.89Q40.24 8.5 40.44 8.21Q40.54 8.07 40.68 7.95Q40.81 7.84 40.95 7.77ZM48.67 10.86Q48.37 10.99 48.01 10.99Q47.65 10.99 47.35 10.87Q47.27 10.83 47.19 10.79Q47.07 10.72 46.97 10.63Q46.76 10.45 46.63 10.21Q46.42 9.82 46.42 9.32Q46.42 8.83 46.63 8.45Q46.77 8.19 46.98 8.01Q47.08 7.93 47.19 7.86Q47.27 7.82 47.35 7.78Q47.65 7.65 48.01 7.65Q48.37 7.65 48.67 7.79Q48.74 7.82 48.81 7.86Q48.94 7.93 49.05 8.02Q49.25 8.2 49.38 8.45Q49.59 8.83 49.59 9.32Q49.59 9.82 49.38 10.21Q49.25 10.45 49.05 10.62Q48.94 10.71 48.81 10.79Q48.74 10.83 48.67 10.86Z" fill="#FFFFFF" fill-opacity="1.000000" fill-rule="evenodd"/>
</svg>
