<svg width="22.000000" height="22.000000" viewBox="0 0 22 22" fill="none" xmlns="http://www.w3.org/2000/svg" xmlns:xlink="http://www.w3.org/1999/xlink">
	<desc>
			Created with Pixso.
	</desc>
	<defs>
		<clipPath id="clip33_2860">
			<rect id="Social Icons" rx="0.000000" width="21.000000" height="21.000000" transform="translate(0.500000 0.500000)" fill="white" fill-opacity="0"/>
		</clipPath>
	</defs>
	<rect id="Social Icons" rx="0.000000" width="21.000000" height="21.000000" transform="translate(0.500000 0.500000)" fill="#FFFFFF" fill-opacity="0"/>
	<g clip-path="url(#clip33_2860)">
		<path id="Vector" d="M22 11C22 17.07 17.07 22 11 22C4.92 22 0 17.07 0 11C0 4.92 4.92 0 11 0C17.07 0 22 4.92 22 11ZM11.39 8.12C10.32 8.56 8.18 9.48 4.97 10.88C4.45 11.09 4.18 11.29 4.16 11.49C4.11 11.82 4.53 11.95 5.1 12.13C5.18 12.16 5.26 12.18 5.34 12.21C5.91 12.39 6.66 12.61 7.05 12.61C7.41 12.62 7.81 12.47 8.25 12.17C11.24 10.15 12.79 9.13 12.89 9.11C12.96 9.09 13.05 9.07 13.12 9.13C13.18 9.19 13.17 9.29 13.17 9.32C13.12 9.5 11.48 11.03 10.63 11.82C10.36 12.07 10.17 12.24 10.14 12.28C10.05 12.37 9.96 12.46 9.88 12.54C9.35 13.04 8.96 13.42 9.9 14.04C10.35 14.33 10.71 14.58 11.07 14.82C11.46 15.09 11.85 15.35 12.35 15.68C12.48 15.77 12.6 15.86 12.72 15.94C13.18 16.27 13.59 16.56 14.1 16.51C14.39 16.49 14.69 16.21 14.85 15.38C15.21 13.44 15.93 9.22 16.09 7.48C16.11 7.32 16.09 7.13 16.08 7.04C16.06 6.96 16.03 6.84 15.92 6.75C15.79 6.64 15.58 6.62 15.49 6.62C15.08 6.62 14.44 6.85 11.39 8.12Z" fill="#3F444F" fill-opacity="1.000000" fill-rule="evenodd"/>
	</g>
</svg>
