<svg width="22.000000" height="22.000000" viewBox="0 0 22 22" fill="none" xmlns="http://www.w3.org/2000/svg" xmlns:xlink="http://www.w3.org/1999/xlink">
	<desc>
			Created with Pixso.
	</desc>
	<defs>
		<clipPath id="clip33_2861">
			<rect id="Social Icons" rx="0.000000" width="21.000000" height="21.000000" transform="translate(0.500000 0.500000)" fill="white" fill-opacity="0"/>
		</clipPath>
	</defs>
	<rect id="Social Icons" rx="0.000000" width="21.000000" height="21.000000" transform="translate(0.500000 0.500000)" fill="#FFFFFF" fill-opacity="0"/>
	<g clip-path="url(#clip33_2861)">
		<path id="Vector" d="M21.78 6.59C21.78 6.59 21.56 5.08 20.9 4.41C20.06 3.54 19.12 3.53 18.7 3.48C15.62 3.26 11 3.26 11 3.26L10.99 3.26C10.99 3.26 6.37 3.26 3.29 3.48C2.87 3.53 1.93 3.54 1.09 4.41C0.43 5.08 0.22 6.59 0.22 6.59C0.22 6.59 0 8.38 0 10.16L0 11.82C0 13.6 0.21 15.39 0.21 15.39C0.21 15.39 0.43 16.9 1.09 17.57C1.92 18.45 3.02 18.42 3.51 18.51C5.28 18.68 11 18.73 11 18.73C11 18.73 15.62 18.72 18.7 18.5C19.12 18.45 20.06 18.45 20.9 17.57C21.56 16.9 21.78 15.39 21.78 15.39C21.78 15.39 22 13.61 22 11.82L22 10.16C22 8.38 21.78 6.59 21.78 6.59ZM8.72 13.85L8.72 7.66L14.66 10.77L8.72 13.85Z" fill="#3F444F" fill-opacity="1.000000" fill-rule="nonzero"/>
	</g>
</svg>
